G04 EAGLE Gerber RS-274X export*
G75*
%MOMM*%
%FSLAX34Y34*%
%LPD*%
%INCopper Layer 2*%
%IPPOS*%
%AMOC8*
5,1,8,0,0,1.08239X$1,22.5*%
G01*
%ADD10C,1.244600*%
%ADD11C,1.960000*%
%ADD12C,1.400000*%
%ADD13C,4.191000*%
%ADD14C,0.609600*%

G36*
X1266308Y2556D02*
X1266308Y2556D01*
X1266427Y2563D01*
X1266465Y2576D01*
X1266506Y2581D01*
X1266616Y2624D01*
X1266729Y2661D01*
X1266764Y2683D01*
X1266801Y2698D01*
X1266897Y2767D01*
X1266998Y2831D01*
X1267026Y2861D01*
X1267059Y2884D01*
X1267135Y2976D01*
X1267216Y3063D01*
X1267236Y3098D01*
X1267261Y3129D01*
X1267312Y3237D01*
X1267370Y3341D01*
X1267380Y3381D01*
X1267397Y3417D01*
X1267419Y3534D01*
X1267449Y3649D01*
X1267453Y3709D01*
X1267457Y3729D01*
X1267455Y3750D01*
X1267459Y3810D01*
X1267459Y1012190D01*
X1267444Y1012308D01*
X1267437Y1012427D01*
X1267424Y1012465D01*
X1267419Y1012506D01*
X1267376Y1012616D01*
X1267339Y1012729D01*
X1267317Y1012764D01*
X1267302Y1012801D01*
X1267233Y1012897D01*
X1267169Y1012998D01*
X1267139Y1013026D01*
X1267116Y1013059D01*
X1267024Y1013135D01*
X1266937Y1013216D01*
X1266902Y1013236D01*
X1266871Y1013261D01*
X1266763Y1013312D01*
X1266659Y1013370D01*
X1266619Y1013380D01*
X1266583Y1013397D01*
X1266466Y1013419D01*
X1266351Y1013449D01*
X1266291Y1013453D01*
X1266271Y1013457D01*
X1266250Y1013455D01*
X1266190Y1013459D01*
X3810Y1013459D01*
X3692Y1013444D01*
X3573Y1013437D01*
X3535Y1013424D01*
X3494Y1013419D01*
X3384Y1013376D01*
X3271Y1013339D01*
X3236Y1013317D01*
X3199Y1013302D01*
X3103Y1013233D01*
X3002Y1013169D01*
X2974Y1013139D01*
X2941Y1013116D01*
X2865Y1013024D01*
X2784Y1012937D01*
X2764Y1012902D01*
X2739Y1012871D01*
X2688Y1012763D01*
X2630Y1012659D01*
X2620Y1012619D01*
X2603Y1012583D01*
X2581Y1012466D01*
X2551Y1012351D01*
X2547Y1012291D01*
X2543Y1012271D01*
X2545Y1012250D01*
X2541Y1012190D01*
X2541Y3810D01*
X2556Y3692D01*
X2563Y3573D01*
X2576Y3535D01*
X2581Y3494D01*
X2624Y3384D01*
X2661Y3271D01*
X2683Y3236D01*
X2698Y3199D01*
X2767Y3103D01*
X2831Y3002D01*
X2861Y2974D01*
X2884Y2941D01*
X2976Y2865D01*
X3063Y2784D01*
X3098Y2764D01*
X3129Y2739D01*
X3237Y2688D01*
X3341Y2630D01*
X3381Y2620D01*
X3417Y2603D01*
X3534Y2581D01*
X3649Y2551D01*
X3709Y2547D01*
X3729Y2543D01*
X3750Y2545D01*
X3810Y2541D01*
X1266190Y2541D01*
X1266308Y2556D01*
G37*
%LPC*%
G36*
X1227226Y954404D02*
X1227226Y954404D01*
X1218591Y957981D01*
X1211981Y964591D01*
X1208404Y973226D01*
X1208404Y982574D01*
X1211981Y991209D01*
X1218591Y997819D01*
X1227226Y1001396D01*
X1236574Y1001396D01*
X1245209Y997819D01*
X1251819Y991209D01*
X1255396Y982574D01*
X1255396Y973226D01*
X1251819Y964591D01*
X1245209Y957981D01*
X1236574Y954404D01*
X1227226Y954404D01*
G37*
%LPD*%
%LPC*%
G36*
X33426Y954404D02*
X33426Y954404D01*
X24791Y957981D01*
X18181Y964591D01*
X14604Y973226D01*
X14604Y982574D01*
X18181Y991209D01*
X24791Y997819D01*
X33426Y1001396D01*
X42774Y1001396D01*
X51409Y997819D01*
X58019Y991209D01*
X61596Y982574D01*
X61596Y973226D01*
X58019Y964591D01*
X51409Y957981D01*
X42774Y954404D01*
X33426Y954404D01*
G37*
%LPD*%
%LPC*%
G36*
X33426Y14604D02*
X33426Y14604D01*
X24791Y18181D01*
X18181Y24791D01*
X14604Y33426D01*
X14604Y42774D01*
X18181Y51409D01*
X24791Y58019D01*
X33426Y61596D01*
X42774Y61596D01*
X51409Y58019D01*
X58019Y51409D01*
X61596Y42774D01*
X61596Y33426D01*
X58019Y24791D01*
X51409Y18181D01*
X42774Y14604D01*
X33426Y14604D01*
G37*
%LPD*%
%LPC*%
G36*
X1227226Y14604D02*
X1227226Y14604D01*
X1218591Y18181D01*
X1211981Y24791D01*
X1208404Y33426D01*
X1208404Y42774D01*
X1211981Y51409D01*
X1218591Y58019D01*
X1227226Y61596D01*
X1236574Y61596D01*
X1245209Y58019D01*
X1251819Y51409D01*
X1255396Y42774D01*
X1255396Y33426D01*
X1251819Y24791D01*
X1245209Y18181D01*
X1236574Y14604D01*
X1227226Y14604D01*
G37*
%LPD*%
%LPC*%
G36*
X99408Y181959D02*
X99408Y181959D01*
X93880Y184249D01*
X89649Y188480D01*
X87359Y194008D01*
X87359Y199992D01*
X89649Y205520D01*
X93880Y209751D01*
X99408Y212041D01*
X105392Y212041D01*
X110920Y209751D01*
X115151Y205520D01*
X117441Y199992D01*
X117441Y194008D01*
X115151Y188480D01*
X110920Y184249D01*
X105392Y181959D01*
X99408Y181959D01*
G37*
%LPD*%
%LPC*%
G36*
X809008Y181959D02*
X809008Y181959D01*
X803480Y184249D01*
X799249Y188480D01*
X796959Y194008D01*
X796959Y199992D01*
X799249Y205520D01*
X803480Y209751D01*
X809008Y212041D01*
X814992Y212041D01*
X820520Y209751D01*
X824751Y205520D01*
X827041Y199992D01*
X827041Y194008D01*
X824751Y188480D01*
X820520Y184249D01*
X814992Y181959D01*
X809008Y181959D01*
G37*
%LPD*%
%LPC*%
G36*
X709008Y181959D02*
X709008Y181959D01*
X703480Y184249D01*
X699249Y188480D01*
X696959Y194008D01*
X696959Y199992D01*
X699249Y205520D01*
X703480Y209751D01*
X709008Y212041D01*
X714992Y212041D01*
X720520Y209751D01*
X724751Y205520D01*
X727041Y199992D01*
X727041Y194008D01*
X724751Y188480D01*
X720520Y184249D01*
X714992Y181959D01*
X709008Y181959D01*
G37*
%LPD*%
%LPC*%
G36*
X199408Y181959D02*
X199408Y181959D01*
X193880Y184249D01*
X189649Y188480D01*
X187359Y194008D01*
X187359Y199992D01*
X189649Y205520D01*
X193880Y209751D01*
X199408Y212041D01*
X205392Y212041D01*
X210920Y209751D01*
X215151Y205520D01*
X217441Y199992D01*
X217441Y194008D01*
X215151Y188480D01*
X210920Y184249D01*
X205392Y181959D01*
X199408Y181959D01*
G37*
%LPD*%
%LPC*%
G36*
X1139545Y495259D02*
X1139545Y495259D01*
X1135010Y497138D01*
X1131538Y500610D01*
X1129659Y505145D01*
X1129659Y510055D01*
X1131538Y514590D01*
X1135010Y518062D01*
X1139545Y519941D01*
X1144455Y519941D01*
X1148990Y518062D01*
X1152462Y514590D01*
X1154341Y510055D01*
X1154341Y505145D01*
X1152462Y500610D01*
X1148990Y497138D01*
X1144455Y495259D01*
X1139545Y495259D01*
G37*
%LPD*%
%LPC*%
G36*
X1014545Y495259D02*
X1014545Y495259D01*
X1010010Y497138D01*
X1006538Y500610D01*
X1004659Y505145D01*
X1004659Y510055D01*
X1006538Y514590D01*
X1010010Y518062D01*
X1014545Y519941D01*
X1019455Y519941D01*
X1023990Y518062D01*
X1027462Y514590D01*
X1029341Y510055D01*
X1029341Y505145D01*
X1027462Y500610D01*
X1023990Y497138D01*
X1019455Y495259D01*
X1014545Y495259D01*
G37*
%LPD*%
%LPC*%
G36*
X1139545Y279359D02*
X1139545Y279359D01*
X1135010Y281238D01*
X1131538Y284710D01*
X1129659Y289245D01*
X1129659Y294155D01*
X1131538Y298690D01*
X1135010Y302162D01*
X1139545Y304041D01*
X1144455Y304041D01*
X1148990Y302162D01*
X1152462Y298690D01*
X1154341Y294155D01*
X1154341Y289245D01*
X1152462Y284710D01*
X1148990Y281238D01*
X1144455Y279359D01*
X1139545Y279359D01*
G37*
%LPD*%
%LPC*%
G36*
X1014545Y279359D02*
X1014545Y279359D01*
X1010010Y281238D01*
X1006538Y284710D01*
X1004659Y289245D01*
X1004659Y294155D01*
X1006538Y298690D01*
X1010010Y302162D01*
X1014545Y304041D01*
X1019455Y304041D01*
X1023990Y302162D01*
X1027462Y298690D01*
X1029341Y294155D01*
X1029341Y289245D01*
X1027462Y284710D01*
X1023990Y281238D01*
X1019455Y279359D01*
X1014545Y279359D01*
G37*
%LPD*%
%LPC*%
G36*
X836302Y511159D02*
X836302Y511159D01*
X832796Y512612D01*
X830112Y515296D01*
X828659Y518802D01*
X828659Y522598D01*
X830112Y526104D01*
X832796Y528788D01*
X836302Y530241D01*
X840098Y530241D01*
X843604Y528788D01*
X846288Y526104D01*
X847741Y522598D01*
X847741Y518802D01*
X846288Y515296D01*
X843604Y512612D01*
X840098Y511159D01*
X836302Y511159D01*
G37*
%LPD*%
%LPC*%
G36*
X74302Y536559D02*
X74302Y536559D01*
X70796Y538012D01*
X68112Y540696D01*
X66659Y544202D01*
X66659Y547998D01*
X68112Y551504D01*
X70796Y554188D01*
X74302Y555641D01*
X78098Y555641D01*
X81604Y554188D01*
X84288Y551504D01*
X85741Y547998D01*
X85741Y544202D01*
X84288Y540696D01*
X81604Y538012D01*
X78098Y536559D01*
X74302Y536559D01*
G37*
%LPD*%
%LPC*%
G36*
X836302Y536559D02*
X836302Y536559D01*
X832796Y538012D01*
X830112Y540696D01*
X828659Y544202D01*
X828659Y547998D01*
X830112Y551504D01*
X832796Y554188D01*
X836302Y555641D01*
X840098Y555641D01*
X843604Y554188D01*
X846288Y551504D01*
X847741Y547998D01*
X847741Y544202D01*
X846288Y540696D01*
X843604Y538012D01*
X840098Y536559D01*
X836302Y536559D01*
G37*
%LPD*%
%LPC*%
G36*
X1130942Y793099D02*
X1130942Y793099D01*
X1127436Y794552D01*
X1124752Y797236D01*
X1123299Y800742D01*
X1123299Y804538D01*
X1124752Y808044D01*
X1127436Y810728D01*
X1130942Y812181D01*
X1134738Y812181D01*
X1138244Y810728D01*
X1140928Y808044D01*
X1142381Y804538D01*
X1142381Y800742D01*
X1140928Y797236D01*
X1138244Y794552D01*
X1134738Y793099D01*
X1130942Y793099D01*
G37*
%LPD*%
%LPC*%
G36*
X836302Y790559D02*
X836302Y790559D01*
X832796Y792012D01*
X830112Y794696D01*
X828659Y798202D01*
X828659Y801998D01*
X830112Y805504D01*
X832796Y808188D01*
X836302Y809641D01*
X840098Y809641D01*
X843604Y808188D01*
X846288Y805504D01*
X847741Y801998D01*
X847741Y798202D01*
X846288Y794696D01*
X843604Y792012D01*
X840098Y790559D01*
X836302Y790559D01*
G37*
%LPD*%
%LPC*%
G36*
X74302Y790559D02*
X74302Y790559D01*
X70796Y792012D01*
X68112Y794696D01*
X66659Y798202D01*
X66659Y801998D01*
X68112Y805504D01*
X70796Y808188D01*
X74302Y809641D01*
X78098Y809641D01*
X81604Y808188D01*
X84288Y805504D01*
X85741Y801998D01*
X85741Y798202D01*
X84288Y794696D01*
X81604Y792012D01*
X78098Y790559D01*
X74302Y790559D01*
G37*
%LPD*%
%LPC*%
G36*
X74302Y561959D02*
X74302Y561959D01*
X70796Y563412D01*
X68112Y566096D01*
X66659Y569602D01*
X66659Y573398D01*
X68112Y576904D01*
X70796Y579588D01*
X74302Y581041D01*
X78098Y581041D01*
X81604Y579588D01*
X84288Y576904D01*
X85741Y573398D01*
X85741Y569602D01*
X84288Y566096D01*
X81604Y563412D01*
X78098Y561959D01*
X74302Y561959D01*
G37*
%LPD*%
%LPC*%
G36*
X836302Y561959D02*
X836302Y561959D01*
X832796Y563412D01*
X830112Y566096D01*
X828659Y569602D01*
X828659Y573398D01*
X830112Y576904D01*
X832796Y579588D01*
X836302Y581041D01*
X840098Y581041D01*
X843604Y579588D01*
X846288Y576904D01*
X847741Y573398D01*
X847741Y569602D01*
X846288Y566096D01*
X843604Y563412D01*
X840098Y561959D01*
X836302Y561959D01*
G37*
%LPD*%
%LPC*%
G36*
X836302Y765159D02*
X836302Y765159D01*
X832796Y766612D01*
X830112Y769296D01*
X828659Y772802D01*
X828659Y776598D01*
X830112Y780104D01*
X832796Y782788D01*
X836302Y784241D01*
X840098Y784241D01*
X843604Y782788D01*
X846288Y780104D01*
X847741Y776598D01*
X847741Y772802D01*
X846288Y769296D01*
X843604Y766612D01*
X840098Y765159D01*
X836302Y765159D01*
G37*
%LPD*%
%LPC*%
G36*
X836302Y460359D02*
X836302Y460359D01*
X832796Y461812D01*
X830112Y464496D01*
X828659Y468002D01*
X828659Y471798D01*
X830112Y475304D01*
X832796Y477988D01*
X836302Y479441D01*
X840098Y479441D01*
X843604Y477988D01*
X846288Y475304D01*
X847741Y471798D01*
X847741Y468002D01*
X846288Y464496D01*
X843604Y461812D01*
X840098Y460359D01*
X836302Y460359D01*
G37*
%LPD*%
%LPC*%
G36*
X74302Y384159D02*
X74302Y384159D01*
X70796Y385612D01*
X68112Y388296D01*
X66659Y391802D01*
X66659Y395598D01*
X68112Y399104D01*
X70796Y401788D01*
X74302Y403241D01*
X78098Y403241D01*
X81604Y401788D01*
X84288Y399104D01*
X85741Y395598D01*
X85741Y391802D01*
X84288Y388296D01*
X81604Y385612D01*
X78098Y384159D01*
X74302Y384159D01*
G37*
%LPD*%
%LPC*%
G36*
X836302Y841359D02*
X836302Y841359D01*
X832796Y842812D01*
X830112Y845496D01*
X828659Y849002D01*
X828659Y852798D01*
X830112Y856304D01*
X832796Y858988D01*
X836302Y860441D01*
X840098Y860441D01*
X843604Y858988D01*
X846288Y856304D01*
X847741Y852798D01*
X847741Y849002D01*
X846288Y845496D01*
X843604Y842812D01*
X840098Y841359D01*
X836302Y841359D01*
G37*
%LPD*%
%LPC*%
G36*
X836302Y384159D02*
X836302Y384159D01*
X832796Y385612D01*
X830112Y388296D01*
X828659Y391802D01*
X828659Y395598D01*
X830112Y399104D01*
X832796Y401788D01*
X836302Y403241D01*
X840098Y403241D01*
X843604Y401788D01*
X846288Y399104D01*
X847741Y395598D01*
X847741Y391802D01*
X846288Y388296D01*
X843604Y385612D01*
X840098Y384159D01*
X836302Y384159D01*
G37*
%LPD*%
%LPC*%
G36*
X74302Y409559D02*
X74302Y409559D01*
X70796Y411012D01*
X68112Y413696D01*
X66659Y417202D01*
X66659Y420998D01*
X68112Y424504D01*
X70796Y427188D01*
X74302Y428641D01*
X78098Y428641D01*
X81604Y427188D01*
X84288Y424504D01*
X85741Y420998D01*
X85741Y417202D01*
X84288Y413696D01*
X81604Y411012D01*
X78098Y409559D01*
X74302Y409559D01*
G37*
%LPD*%
%LPC*%
G36*
X836302Y409559D02*
X836302Y409559D01*
X832796Y411012D01*
X830112Y413696D01*
X828659Y417202D01*
X828659Y420998D01*
X830112Y424504D01*
X832796Y427188D01*
X836302Y428641D01*
X840098Y428641D01*
X843604Y427188D01*
X846288Y424504D01*
X847741Y420998D01*
X847741Y417202D01*
X846288Y413696D01*
X843604Y411012D01*
X840098Y409559D01*
X836302Y409559D01*
G37*
%LPD*%
%LPC*%
G36*
X74302Y434959D02*
X74302Y434959D01*
X70796Y436412D01*
X68112Y439096D01*
X66659Y442602D01*
X66659Y446398D01*
X68112Y449904D01*
X70796Y452588D01*
X74302Y454041D01*
X78098Y454041D01*
X81604Y452588D01*
X84288Y449904D01*
X85741Y446398D01*
X85741Y442602D01*
X84288Y439096D01*
X81604Y436412D01*
X78098Y434959D01*
X74302Y434959D01*
G37*
%LPD*%
%LPC*%
G36*
X836302Y434959D02*
X836302Y434959D01*
X832796Y436412D01*
X830112Y439096D01*
X828659Y442602D01*
X828659Y446398D01*
X830112Y449904D01*
X832796Y452588D01*
X836302Y454041D01*
X840098Y454041D01*
X843604Y452588D01*
X846288Y449904D01*
X847741Y446398D01*
X847741Y442602D01*
X846288Y439096D01*
X843604Y436412D01*
X840098Y434959D01*
X836302Y434959D01*
G37*
%LPD*%
%LPC*%
G36*
X74302Y460359D02*
X74302Y460359D01*
X70796Y461812D01*
X68112Y464496D01*
X66659Y468002D01*
X66659Y471798D01*
X68112Y475304D01*
X70796Y477988D01*
X74302Y479441D01*
X78098Y479441D01*
X81604Y477988D01*
X84288Y475304D01*
X85741Y471798D01*
X85741Y468002D01*
X84288Y464496D01*
X81604Y461812D01*
X78098Y460359D01*
X74302Y460359D01*
G37*
%LPD*%
%LPC*%
G36*
X836302Y485759D02*
X836302Y485759D01*
X832796Y487212D01*
X830112Y489896D01*
X828659Y493402D01*
X828659Y497198D01*
X830112Y500704D01*
X832796Y503388D01*
X836302Y504841D01*
X840098Y504841D01*
X843604Y503388D01*
X846288Y500704D01*
X847741Y497198D01*
X847741Y493402D01*
X846288Y489896D01*
X843604Y487212D01*
X840098Y485759D01*
X836302Y485759D01*
G37*
%LPD*%
%LPC*%
G36*
X74302Y765159D02*
X74302Y765159D01*
X70796Y766612D01*
X68112Y769296D01*
X66659Y772802D01*
X66659Y776598D01*
X68112Y780104D01*
X70796Y782788D01*
X74302Y784241D01*
X78098Y784241D01*
X81604Y782788D01*
X84288Y780104D01*
X85741Y776598D01*
X85741Y772802D01*
X84288Y769296D01*
X81604Y766612D01*
X78098Y765159D01*
X74302Y765159D01*
G37*
%LPD*%
%LPC*%
G36*
X74302Y587359D02*
X74302Y587359D01*
X70796Y588812D01*
X68112Y591496D01*
X66659Y595002D01*
X66659Y598798D01*
X68112Y602304D01*
X70796Y604988D01*
X74302Y606441D01*
X78098Y606441D01*
X81604Y604988D01*
X84288Y602304D01*
X85741Y598798D01*
X85741Y595002D01*
X84288Y591496D01*
X81604Y588812D01*
X78098Y587359D01*
X74302Y587359D01*
G37*
%LPD*%
%LPC*%
G36*
X836302Y587359D02*
X836302Y587359D01*
X832796Y588812D01*
X830112Y591496D01*
X828659Y595002D01*
X828659Y598798D01*
X830112Y602304D01*
X832796Y604988D01*
X836302Y606441D01*
X840098Y606441D01*
X843604Y604988D01*
X846288Y602304D01*
X847741Y598798D01*
X847741Y595002D01*
X846288Y591496D01*
X843604Y588812D01*
X840098Y587359D01*
X836302Y587359D01*
G37*
%LPD*%
%LPC*%
G36*
X836302Y739759D02*
X836302Y739759D01*
X832796Y741212D01*
X830112Y743896D01*
X828659Y747402D01*
X828659Y751198D01*
X830112Y754704D01*
X832796Y757388D01*
X836302Y758841D01*
X840098Y758841D01*
X843604Y757388D01*
X846288Y754704D01*
X847741Y751198D01*
X847741Y747402D01*
X846288Y743896D01*
X843604Y741212D01*
X840098Y739759D01*
X836302Y739759D01*
G37*
%LPD*%
%LPC*%
G36*
X74302Y739759D02*
X74302Y739759D01*
X70796Y741212D01*
X68112Y743896D01*
X66659Y747402D01*
X66659Y751198D01*
X68112Y754704D01*
X70796Y757388D01*
X74302Y758841D01*
X78098Y758841D01*
X81604Y757388D01*
X84288Y754704D01*
X85741Y751198D01*
X85741Y747402D01*
X84288Y743896D01*
X81604Y741212D01*
X78098Y739759D01*
X74302Y739759D01*
G37*
%LPD*%
%LPC*%
G36*
X836302Y714359D02*
X836302Y714359D01*
X832796Y715812D01*
X830112Y718496D01*
X828659Y722002D01*
X828659Y725798D01*
X830112Y729304D01*
X832796Y731988D01*
X836302Y733441D01*
X840098Y733441D01*
X843604Y731988D01*
X846288Y729304D01*
X847741Y725798D01*
X847741Y722002D01*
X846288Y718496D01*
X843604Y715812D01*
X840098Y714359D01*
X836302Y714359D01*
G37*
%LPD*%
%LPC*%
G36*
X74302Y714359D02*
X74302Y714359D01*
X70796Y715812D01*
X68112Y718496D01*
X66659Y722002D01*
X66659Y725798D01*
X68112Y729304D01*
X70796Y731988D01*
X74302Y733441D01*
X78098Y733441D01*
X81604Y731988D01*
X84288Y729304D01*
X85741Y725798D01*
X85741Y722002D01*
X84288Y718496D01*
X81604Y715812D01*
X78098Y714359D01*
X74302Y714359D01*
G37*
%LPD*%
%LPC*%
G36*
X836302Y688959D02*
X836302Y688959D01*
X832796Y690412D01*
X830112Y693096D01*
X828659Y696602D01*
X828659Y700398D01*
X830112Y703904D01*
X832796Y706588D01*
X836302Y708041D01*
X840098Y708041D01*
X843604Y706588D01*
X846288Y703904D01*
X847741Y700398D01*
X847741Y696602D01*
X846288Y693096D01*
X843604Y690412D01*
X840098Y688959D01*
X836302Y688959D01*
G37*
%LPD*%
%LPC*%
G36*
X74302Y688959D02*
X74302Y688959D01*
X70796Y690412D01*
X68112Y693096D01*
X66659Y696602D01*
X66659Y700398D01*
X68112Y703904D01*
X70796Y706588D01*
X74302Y708041D01*
X78098Y708041D01*
X81604Y706588D01*
X84288Y703904D01*
X85741Y700398D01*
X85741Y696602D01*
X84288Y693096D01*
X81604Y690412D01*
X78098Y688959D01*
X74302Y688959D01*
G37*
%LPD*%
%LPC*%
G36*
X836302Y663559D02*
X836302Y663559D01*
X832796Y665012D01*
X830112Y667696D01*
X828659Y671202D01*
X828659Y674998D01*
X830112Y678504D01*
X832796Y681188D01*
X836302Y682641D01*
X840098Y682641D01*
X843604Y681188D01*
X846288Y678504D01*
X847741Y674998D01*
X847741Y671202D01*
X846288Y667696D01*
X843604Y665012D01*
X840098Y663559D01*
X836302Y663559D01*
G37*
%LPD*%
%LPC*%
G36*
X74302Y663559D02*
X74302Y663559D01*
X70796Y665012D01*
X68112Y667696D01*
X66659Y671202D01*
X66659Y674998D01*
X68112Y678504D01*
X70796Y681188D01*
X74302Y682641D01*
X78098Y682641D01*
X81604Y681188D01*
X84288Y678504D01*
X85741Y674998D01*
X85741Y671202D01*
X84288Y667696D01*
X81604Y665012D01*
X78098Y663559D01*
X74302Y663559D01*
G37*
%LPD*%
%LPC*%
G36*
X836302Y638159D02*
X836302Y638159D01*
X832796Y639612D01*
X830112Y642296D01*
X828659Y645802D01*
X828659Y649598D01*
X830112Y653104D01*
X832796Y655788D01*
X836302Y657241D01*
X840098Y657241D01*
X843604Y655788D01*
X846288Y653104D01*
X847741Y649598D01*
X847741Y645802D01*
X846288Y642296D01*
X843604Y639612D01*
X840098Y638159D01*
X836302Y638159D01*
G37*
%LPD*%
%LPC*%
G36*
X1130942Y869299D02*
X1130942Y869299D01*
X1127436Y870752D01*
X1124752Y873436D01*
X1123299Y876942D01*
X1123299Y880738D01*
X1124752Y884244D01*
X1127436Y886928D01*
X1130942Y888381D01*
X1134738Y888381D01*
X1138244Y886928D01*
X1140928Y884244D01*
X1142381Y880738D01*
X1142381Y876942D01*
X1140928Y873436D01*
X1138244Y870752D01*
X1134738Y869299D01*
X1130942Y869299D01*
G37*
%LPD*%
%LPC*%
G36*
X74302Y638159D02*
X74302Y638159D01*
X70796Y639612D01*
X68112Y642296D01*
X66659Y645802D01*
X66659Y649598D01*
X68112Y653104D01*
X70796Y655788D01*
X74302Y657241D01*
X78098Y657241D01*
X81604Y655788D01*
X84288Y653104D01*
X85741Y649598D01*
X85741Y645802D01*
X84288Y642296D01*
X81604Y639612D01*
X78098Y638159D01*
X74302Y638159D01*
G37*
%LPD*%
%LPC*%
G36*
X836302Y612759D02*
X836302Y612759D01*
X832796Y614212D01*
X830112Y616896D01*
X828659Y620402D01*
X828659Y624198D01*
X830112Y627704D01*
X832796Y630388D01*
X836302Y631841D01*
X840098Y631841D01*
X843604Y630388D01*
X846288Y627704D01*
X847741Y624198D01*
X847741Y620402D01*
X846288Y616896D01*
X843604Y614212D01*
X840098Y612759D01*
X836302Y612759D01*
G37*
%LPD*%
%LPC*%
G36*
X1130942Y843899D02*
X1130942Y843899D01*
X1127436Y845352D01*
X1124752Y848036D01*
X1123299Y851542D01*
X1123299Y855338D01*
X1124752Y858844D01*
X1127436Y861528D01*
X1130942Y862981D01*
X1134738Y862981D01*
X1138244Y861528D01*
X1140928Y858844D01*
X1142381Y855338D01*
X1142381Y851542D01*
X1140928Y848036D01*
X1138244Y845352D01*
X1134738Y843899D01*
X1130942Y843899D01*
G37*
%LPD*%
%LPC*%
G36*
X74302Y358759D02*
X74302Y358759D01*
X70796Y360212D01*
X68112Y362896D01*
X66659Y366402D01*
X66659Y370198D01*
X68112Y373704D01*
X70796Y376388D01*
X74302Y377841D01*
X78098Y377841D01*
X81604Y376388D01*
X84288Y373704D01*
X85741Y370198D01*
X85741Y366402D01*
X84288Y362896D01*
X81604Y360212D01*
X78098Y358759D01*
X74302Y358759D01*
G37*
%LPD*%
%LPC*%
G36*
X74302Y612759D02*
X74302Y612759D01*
X70796Y614212D01*
X68112Y616896D01*
X66659Y620402D01*
X66659Y624198D01*
X68112Y627704D01*
X70796Y630388D01*
X74302Y631841D01*
X78098Y631841D01*
X81604Y630388D01*
X84288Y627704D01*
X85741Y624198D01*
X85741Y620402D01*
X84288Y616896D01*
X81604Y614212D01*
X78098Y612759D01*
X74302Y612759D01*
G37*
%LPD*%
%LPC*%
G36*
X74302Y485759D02*
X74302Y485759D01*
X70796Y487212D01*
X68112Y489896D01*
X66659Y493402D01*
X66659Y497198D01*
X68112Y500704D01*
X70796Y503388D01*
X74302Y504841D01*
X78098Y504841D01*
X81604Y503388D01*
X84288Y500704D01*
X85741Y497198D01*
X85741Y493402D01*
X84288Y489896D01*
X81604Y487212D01*
X78098Y485759D01*
X74302Y485759D01*
G37*
%LPD*%
%LPC*%
G36*
X836302Y815959D02*
X836302Y815959D01*
X832796Y817412D01*
X830112Y820096D01*
X828659Y823602D01*
X828659Y827398D01*
X830112Y830904D01*
X832796Y833588D01*
X836302Y835041D01*
X840098Y835041D01*
X843604Y833588D01*
X846288Y830904D01*
X847741Y827398D01*
X847741Y823602D01*
X846288Y820096D01*
X843604Y817412D01*
X840098Y815959D01*
X836302Y815959D01*
G37*
%LPD*%
%LPC*%
G36*
X74302Y815959D02*
X74302Y815959D01*
X70796Y817412D01*
X68112Y820096D01*
X66659Y823602D01*
X66659Y827398D01*
X68112Y830904D01*
X70796Y833588D01*
X74302Y835041D01*
X78098Y835041D01*
X81604Y833588D01*
X84288Y830904D01*
X85741Y827398D01*
X85741Y823602D01*
X84288Y820096D01*
X81604Y817412D01*
X78098Y815959D01*
X74302Y815959D01*
G37*
%LPD*%
%LPC*%
G36*
X74302Y511159D02*
X74302Y511159D01*
X70796Y512612D01*
X68112Y515296D01*
X66659Y518802D01*
X66659Y522598D01*
X68112Y526104D01*
X70796Y528788D01*
X74302Y530241D01*
X78098Y530241D01*
X81604Y528788D01*
X84288Y526104D01*
X85741Y522598D01*
X85741Y518802D01*
X84288Y515296D01*
X81604Y512612D01*
X78098Y511159D01*
X74302Y511159D01*
G37*
%LPD*%
%LPC*%
G36*
X1130942Y818499D02*
X1130942Y818499D01*
X1127436Y819952D01*
X1124752Y822636D01*
X1123299Y826142D01*
X1123299Y829938D01*
X1124752Y833444D01*
X1127436Y836128D01*
X1130942Y837581D01*
X1134738Y837581D01*
X1138244Y836128D01*
X1140928Y833444D01*
X1142381Y829938D01*
X1142381Y826142D01*
X1140928Y822636D01*
X1138244Y819952D01*
X1134738Y818499D01*
X1130942Y818499D01*
G37*
%LPD*%
%LPC*%
G36*
X785102Y117459D02*
X785102Y117459D01*
X781596Y118912D01*
X778912Y121596D01*
X777459Y125102D01*
X777459Y128898D01*
X778912Y132404D01*
X781596Y135088D01*
X785102Y136541D01*
X788898Y136541D01*
X792404Y135088D01*
X795088Y132404D01*
X796541Y128898D01*
X796541Y125102D01*
X795088Y121596D01*
X792404Y118912D01*
X788898Y117459D01*
X785102Y117459D01*
G37*
%LPD*%
%LPC*%
G36*
X760102Y117459D02*
X760102Y117459D01*
X756596Y118912D01*
X753912Y121596D01*
X752459Y125102D01*
X752459Y128898D01*
X753912Y132404D01*
X756596Y135088D01*
X760102Y136541D01*
X763898Y136541D01*
X767404Y135088D01*
X770088Y132404D01*
X771541Y128898D01*
X771541Y125102D01*
X770088Y121596D01*
X767404Y118912D01*
X763898Y117459D01*
X760102Y117459D01*
G37*
%LPD*%
%LPC*%
G36*
X735102Y117459D02*
X735102Y117459D01*
X731596Y118912D01*
X728912Y121596D01*
X727459Y125102D01*
X727459Y128898D01*
X728912Y132404D01*
X731596Y135088D01*
X735102Y136541D01*
X738898Y136541D01*
X742404Y135088D01*
X745088Y132404D01*
X746541Y128898D01*
X746541Y125102D01*
X745088Y121596D01*
X742404Y118912D01*
X738898Y117459D01*
X735102Y117459D01*
G37*
%LPD*%
%LPC*%
G36*
X175502Y117459D02*
X175502Y117459D01*
X171996Y118912D01*
X169312Y121596D01*
X167859Y125102D01*
X167859Y128898D01*
X169312Y132404D01*
X171996Y135088D01*
X175502Y136541D01*
X179298Y136541D01*
X182804Y135088D01*
X185488Y132404D01*
X186941Y128898D01*
X186941Y125102D01*
X185488Y121596D01*
X182804Y118912D01*
X179298Y117459D01*
X175502Y117459D01*
G37*
%LPD*%
%LPC*%
G36*
X150502Y117459D02*
X150502Y117459D01*
X146996Y118912D01*
X144312Y121596D01*
X142859Y125102D01*
X142859Y128898D01*
X144312Y132404D01*
X146996Y135088D01*
X150502Y136541D01*
X154298Y136541D01*
X157804Y135088D01*
X160488Y132404D01*
X161941Y128898D01*
X161941Y125102D01*
X160488Y121596D01*
X157804Y118912D01*
X154298Y117459D01*
X150502Y117459D01*
G37*
%LPD*%
%LPC*%
G36*
X125502Y117459D02*
X125502Y117459D01*
X121996Y118912D01*
X119312Y121596D01*
X117859Y125102D01*
X117859Y128898D01*
X119312Y132404D01*
X121996Y135088D01*
X125502Y136541D01*
X129298Y136541D01*
X132804Y135088D01*
X135488Y132404D01*
X136941Y128898D01*
X136941Y125102D01*
X135488Y121596D01*
X132804Y118912D01*
X129298Y117459D01*
X125502Y117459D01*
G37*
%LPD*%
%LPC*%
G36*
X836302Y358759D02*
X836302Y358759D01*
X832796Y360212D01*
X830112Y362896D01*
X828659Y366402D01*
X828659Y370198D01*
X830112Y373704D01*
X832796Y376388D01*
X836302Y377841D01*
X840098Y377841D01*
X843604Y376388D01*
X846288Y373704D01*
X847741Y370198D01*
X847741Y366402D01*
X846288Y362896D01*
X843604Y360212D01*
X840098Y358759D01*
X836302Y358759D01*
G37*
%LPD*%
%LPC*%
G36*
X209757Y844936D02*
X209757Y844936D01*
X206536Y846270D01*
X204070Y848736D01*
X202736Y851957D01*
X202736Y855443D01*
X204070Y858664D01*
X206536Y861130D01*
X209757Y862464D01*
X213243Y862464D01*
X216464Y861130D01*
X218930Y858664D01*
X220264Y855443D01*
X220264Y851957D01*
X218930Y848736D01*
X216464Y846270D01*
X213243Y844936D01*
X209757Y844936D01*
G37*
%LPD*%
%LPC*%
G36*
X184357Y844936D02*
X184357Y844936D01*
X181136Y846270D01*
X178670Y848736D01*
X177336Y851957D01*
X177336Y855443D01*
X178670Y858664D01*
X181136Y861130D01*
X184357Y862464D01*
X187843Y862464D01*
X191064Y861130D01*
X193530Y858664D01*
X194864Y855443D01*
X194864Y851957D01*
X193530Y848736D01*
X191064Y846270D01*
X187843Y844936D01*
X184357Y844936D01*
G37*
%LPD*%
%LPC*%
G36*
X158957Y819536D02*
X158957Y819536D01*
X155736Y820870D01*
X153270Y823336D01*
X151936Y826557D01*
X151936Y830043D01*
X153270Y833264D01*
X155736Y835730D01*
X158957Y837064D01*
X162443Y837064D01*
X165664Y835730D01*
X168130Y833264D01*
X169464Y830043D01*
X169464Y826557D01*
X168130Y823336D01*
X165664Y820870D01*
X162443Y819536D01*
X158957Y819536D01*
G37*
%LPD*%
%LPC*%
G36*
X133557Y819536D02*
X133557Y819536D01*
X130336Y820870D01*
X127870Y823336D01*
X126536Y826557D01*
X126536Y830043D01*
X127870Y833264D01*
X130336Y835730D01*
X133557Y837064D01*
X137043Y837064D01*
X140264Y835730D01*
X142730Y833264D01*
X144064Y830043D01*
X144064Y826557D01*
X142730Y823336D01*
X140264Y820870D01*
X137043Y819536D01*
X133557Y819536D01*
G37*
%LPD*%
%LPC*%
G36*
X565357Y819536D02*
X565357Y819536D01*
X562136Y820870D01*
X559670Y823336D01*
X558336Y826557D01*
X558336Y830043D01*
X559670Y833264D01*
X562136Y835730D01*
X565357Y837064D01*
X568843Y837064D01*
X572064Y835730D01*
X574530Y833264D01*
X575864Y830043D01*
X575864Y826557D01*
X574530Y823336D01*
X572064Y820870D01*
X568843Y819536D01*
X565357Y819536D01*
G37*
%LPD*%
%LPC*%
G36*
X539957Y819536D02*
X539957Y819536D01*
X536736Y820870D01*
X534270Y823336D01*
X532936Y826557D01*
X532936Y830043D01*
X534270Y833264D01*
X536736Y835730D01*
X539957Y837064D01*
X543443Y837064D01*
X546664Y835730D01*
X549130Y833264D01*
X550464Y830043D01*
X550464Y826557D01*
X549130Y823336D01*
X546664Y820870D01*
X543443Y819536D01*
X539957Y819536D01*
G37*
%LPD*%
%LPC*%
G36*
X514557Y819536D02*
X514557Y819536D01*
X511336Y820870D01*
X508870Y823336D01*
X507536Y826557D01*
X507536Y830043D01*
X508870Y833264D01*
X511336Y835730D01*
X514557Y837064D01*
X518043Y837064D01*
X521264Y835730D01*
X523730Y833264D01*
X525064Y830043D01*
X525064Y826557D01*
X523730Y823336D01*
X521264Y820870D01*
X518043Y819536D01*
X514557Y819536D01*
G37*
%LPD*%
%LPC*%
G36*
X489157Y819536D02*
X489157Y819536D01*
X485936Y820870D01*
X483470Y823336D01*
X482136Y826557D01*
X482136Y830043D01*
X483470Y833264D01*
X485936Y835730D01*
X489157Y837064D01*
X492643Y837064D01*
X495864Y835730D01*
X498330Y833264D01*
X499664Y830043D01*
X499664Y826557D01*
X498330Y823336D01*
X495864Y820870D01*
X492643Y819536D01*
X489157Y819536D01*
G37*
%LPD*%
%LPC*%
G36*
X463757Y819536D02*
X463757Y819536D01*
X460536Y820870D01*
X458070Y823336D01*
X456736Y826557D01*
X456736Y830043D01*
X458070Y833264D01*
X460536Y835730D01*
X463757Y837064D01*
X467243Y837064D01*
X470464Y835730D01*
X472930Y833264D01*
X474264Y830043D01*
X474264Y826557D01*
X472930Y823336D01*
X470464Y820870D01*
X467243Y819536D01*
X463757Y819536D01*
G37*
%LPD*%
%LPC*%
G36*
X438357Y819536D02*
X438357Y819536D01*
X435136Y820870D01*
X432670Y823336D01*
X431336Y826557D01*
X431336Y830043D01*
X432670Y833264D01*
X435136Y835730D01*
X438357Y837064D01*
X441843Y837064D01*
X445064Y835730D01*
X447530Y833264D01*
X448864Y830043D01*
X448864Y826557D01*
X447530Y823336D01*
X445064Y820870D01*
X441843Y819536D01*
X438357Y819536D01*
G37*
%LPD*%
%LPC*%
G36*
X412957Y819536D02*
X412957Y819536D01*
X409736Y820870D01*
X407270Y823336D01*
X405936Y826557D01*
X405936Y830043D01*
X407270Y833264D01*
X409736Y835730D01*
X412957Y837064D01*
X416443Y837064D01*
X419664Y835730D01*
X422130Y833264D01*
X423464Y830043D01*
X423464Y826557D01*
X422130Y823336D01*
X419664Y820870D01*
X416443Y819536D01*
X412957Y819536D01*
G37*
%LPD*%
%LPC*%
G36*
X362157Y819536D02*
X362157Y819536D01*
X358936Y820870D01*
X356470Y823336D01*
X355136Y826557D01*
X355136Y830043D01*
X356470Y833264D01*
X358936Y835730D01*
X362157Y837064D01*
X365643Y837064D01*
X368864Y835730D01*
X371330Y833264D01*
X372664Y830043D01*
X372664Y826557D01*
X371330Y823336D01*
X368864Y820870D01*
X365643Y819536D01*
X362157Y819536D01*
G37*
%LPD*%
%LPC*%
G36*
X336757Y819536D02*
X336757Y819536D01*
X333536Y820870D01*
X331070Y823336D01*
X329736Y826557D01*
X329736Y830043D01*
X331070Y833264D01*
X333536Y835730D01*
X336757Y837064D01*
X340243Y837064D01*
X343464Y835730D01*
X345930Y833264D01*
X347264Y830043D01*
X347264Y826557D01*
X345930Y823336D01*
X343464Y820870D01*
X340243Y819536D01*
X336757Y819536D01*
G37*
%LPD*%
%LPC*%
G36*
X285957Y819536D02*
X285957Y819536D01*
X282736Y820870D01*
X280270Y823336D01*
X278936Y826557D01*
X278936Y830043D01*
X280270Y833264D01*
X282736Y835730D01*
X285957Y837064D01*
X289443Y837064D01*
X292664Y835730D01*
X295130Y833264D01*
X296464Y830043D01*
X296464Y826557D01*
X295130Y823336D01*
X292664Y820870D01*
X289443Y819536D01*
X285957Y819536D01*
G37*
%LPD*%
%LPC*%
G36*
X235157Y819536D02*
X235157Y819536D01*
X231936Y820870D01*
X229470Y823336D01*
X228136Y826557D01*
X228136Y830043D01*
X229470Y833264D01*
X231936Y835730D01*
X235157Y837064D01*
X238643Y837064D01*
X241864Y835730D01*
X244330Y833264D01*
X245664Y830043D01*
X245664Y826557D01*
X244330Y823336D01*
X241864Y820870D01*
X238643Y819536D01*
X235157Y819536D01*
G37*
%LPD*%
%LPC*%
G36*
X209757Y819536D02*
X209757Y819536D01*
X206536Y820870D01*
X204070Y823336D01*
X202736Y826557D01*
X202736Y830043D01*
X204070Y833264D01*
X206536Y835730D01*
X209757Y837064D01*
X213243Y837064D01*
X216464Y835730D01*
X218930Y833264D01*
X220264Y830043D01*
X220264Y826557D01*
X218930Y823336D01*
X216464Y820870D01*
X213243Y819536D01*
X209757Y819536D01*
G37*
%LPD*%
%LPC*%
G36*
X184357Y819536D02*
X184357Y819536D01*
X181136Y820870D01*
X178670Y823336D01*
X177336Y826557D01*
X177336Y830043D01*
X178670Y833264D01*
X181136Y835730D01*
X184357Y837064D01*
X187843Y837064D01*
X191064Y835730D01*
X193530Y833264D01*
X194864Y830043D01*
X194864Y826557D01*
X193530Y823336D01*
X191064Y820870D01*
X187843Y819536D01*
X184357Y819536D01*
G37*
%LPD*%
%LPC*%
G36*
X158957Y590936D02*
X158957Y590936D01*
X155736Y592270D01*
X153270Y594736D01*
X151936Y597957D01*
X151936Y601443D01*
X153270Y604664D01*
X155736Y607130D01*
X158957Y608464D01*
X162443Y608464D01*
X165664Y607130D01*
X168130Y604664D01*
X169464Y601443D01*
X169464Y597957D01*
X168130Y594736D01*
X165664Y592270D01*
X162443Y590936D01*
X158957Y590936D01*
G37*
%LPD*%
%LPC*%
G36*
X133557Y590936D02*
X133557Y590936D01*
X130336Y592270D01*
X127870Y594736D01*
X126536Y597957D01*
X126536Y601443D01*
X127870Y604664D01*
X130336Y607130D01*
X133557Y608464D01*
X137043Y608464D01*
X140264Y607130D01*
X142730Y604664D01*
X144064Y601443D01*
X144064Y597957D01*
X142730Y594736D01*
X140264Y592270D01*
X137043Y590936D01*
X133557Y590936D01*
G37*
%LPD*%
%LPC*%
G36*
X565357Y590936D02*
X565357Y590936D01*
X562136Y592270D01*
X559670Y594736D01*
X558336Y597957D01*
X558336Y601443D01*
X559670Y604664D01*
X562136Y607130D01*
X565357Y608464D01*
X568843Y608464D01*
X572064Y607130D01*
X574530Y604664D01*
X575864Y601443D01*
X575864Y597957D01*
X574530Y594736D01*
X572064Y592270D01*
X568843Y590936D01*
X565357Y590936D01*
G37*
%LPD*%
%LPC*%
G36*
X539957Y590936D02*
X539957Y590936D01*
X536736Y592270D01*
X534270Y594736D01*
X532936Y597957D01*
X532936Y601443D01*
X534270Y604664D01*
X536736Y607130D01*
X539957Y608464D01*
X543443Y608464D01*
X546664Y607130D01*
X549130Y604664D01*
X550464Y601443D01*
X550464Y597957D01*
X549130Y594736D01*
X546664Y592270D01*
X543443Y590936D01*
X539957Y590936D01*
G37*
%LPD*%
%LPC*%
G36*
X514557Y590936D02*
X514557Y590936D01*
X511336Y592270D01*
X508870Y594736D01*
X507536Y597957D01*
X507536Y601443D01*
X508870Y604664D01*
X511336Y607130D01*
X514557Y608464D01*
X518043Y608464D01*
X521264Y607130D01*
X523730Y604664D01*
X525064Y601443D01*
X525064Y597957D01*
X523730Y594736D01*
X521264Y592270D01*
X518043Y590936D01*
X514557Y590936D01*
G37*
%LPD*%
%LPC*%
G36*
X489157Y590936D02*
X489157Y590936D01*
X485936Y592270D01*
X483470Y594736D01*
X482136Y597957D01*
X482136Y601443D01*
X483470Y604664D01*
X485936Y607130D01*
X489157Y608464D01*
X492643Y608464D01*
X495864Y607130D01*
X498330Y604664D01*
X499664Y601443D01*
X499664Y597957D01*
X498330Y594736D01*
X495864Y592270D01*
X492643Y590936D01*
X489157Y590936D01*
G37*
%LPD*%
%LPC*%
G36*
X463757Y590936D02*
X463757Y590936D01*
X460536Y592270D01*
X458070Y594736D01*
X456736Y597957D01*
X456736Y601443D01*
X458070Y604664D01*
X460536Y607130D01*
X463757Y608464D01*
X467243Y608464D01*
X470464Y607130D01*
X472930Y604664D01*
X474264Y601443D01*
X474264Y597957D01*
X472930Y594736D01*
X470464Y592270D01*
X467243Y590936D01*
X463757Y590936D01*
G37*
%LPD*%
%LPC*%
G36*
X438357Y590936D02*
X438357Y590936D01*
X435136Y592270D01*
X432670Y594736D01*
X431336Y597957D01*
X431336Y601443D01*
X432670Y604664D01*
X435136Y607130D01*
X438357Y608464D01*
X441843Y608464D01*
X445064Y607130D01*
X447530Y604664D01*
X448864Y601443D01*
X448864Y597957D01*
X447530Y594736D01*
X445064Y592270D01*
X441843Y590936D01*
X438357Y590936D01*
G37*
%LPD*%
%LPC*%
G36*
X412957Y590936D02*
X412957Y590936D01*
X409736Y592270D01*
X407270Y594736D01*
X405936Y597957D01*
X405936Y601443D01*
X407270Y604664D01*
X409736Y607130D01*
X412957Y608464D01*
X416443Y608464D01*
X419664Y607130D01*
X422130Y604664D01*
X423464Y601443D01*
X423464Y597957D01*
X422130Y594736D01*
X419664Y592270D01*
X416443Y590936D01*
X412957Y590936D01*
G37*
%LPD*%
%LPC*%
G36*
X362157Y590936D02*
X362157Y590936D01*
X358936Y592270D01*
X356470Y594736D01*
X355136Y597957D01*
X355136Y601443D01*
X356470Y604664D01*
X358936Y607130D01*
X362157Y608464D01*
X365643Y608464D01*
X368864Y607130D01*
X371330Y604664D01*
X372664Y601443D01*
X372664Y597957D01*
X371330Y594736D01*
X368864Y592270D01*
X365643Y590936D01*
X362157Y590936D01*
G37*
%LPD*%
%LPC*%
G36*
X260557Y819536D02*
X260557Y819536D01*
X257336Y820870D01*
X254870Y823336D01*
X253536Y826557D01*
X253536Y830043D01*
X254870Y833264D01*
X257336Y835730D01*
X260557Y837064D01*
X264043Y837064D01*
X267264Y835730D01*
X269730Y833264D01*
X271064Y830043D01*
X271064Y826557D01*
X269730Y823336D01*
X267264Y820870D01*
X264043Y819536D01*
X260557Y819536D01*
G37*
%LPD*%
%LPC*%
G36*
X285957Y590936D02*
X285957Y590936D01*
X282736Y592270D01*
X280270Y594736D01*
X278936Y597957D01*
X278936Y601443D01*
X280270Y604664D01*
X282736Y607130D01*
X285957Y608464D01*
X289443Y608464D01*
X292664Y607130D01*
X295130Y604664D01*
X296464Y601443D01*
X296464Y597957D01*
X295130Y594736D01*
X292664Y592270D01*
X289443Y590936D01*
X285957Y590936D01*
G37*
%LPD*%
%LPC*%
G36*
X260557Y590936D02*
X260557Y590936D01*
X257336Y592270D01*
X254870Y594736D01*
X253536Y597957D01*
X253536Y601443D01*
X254870Y604664D01*
X257336Y607130D01*
X260557Y608464D01*
X264043Y608464D01*
X267264Y607130D01*
X269730Y604664D01*
X271064Y601443D01*
X271064Y597957D01*
X269730Y594736D01*
X267264Y592270D01*
X264043Y590936D01*
X260557Y590936D01*
G37*
%LPD*%
%LPC*%
G36*
X235157Y590936D02*
X235157Y590936D01*
X231936Y592270D01*
X229470Y594736D01*
X228136Y597957D01*
X228136Y601443D01*
X229470Y604664D01*
X231936Y607130D01*
X235157Y608464D01*
X238643Y608464D01*
X241864Y607130D01*
X244330Y604664D01*
X245664Y601443D01*
X245664Y597957D01*
X244330Y594736D01*
X241864Y592270D01*
X238643Y590936D01*
X235157Y590936D01*
G37*
%LPD*%
%LPC*%
G36*
X209757Y590936D02*
X209757Y590936D01*
X206536Y592270D01*
X204070Y594736D01*
X202736Y597957D01*
X202736Y601443D01*
X204070Y604664D01*
X206536Y607130D01*
X209757Y608464D01*
X213243Y608464D01*
X216464Y607130D01*
X218930Y604664D01*
X220264Y601443D01*
X220264Y597957D01*
X218930Y594736D01*
X216464Y592270D01*
X213243Y590936D01*
X209757Y590936D01*
G37*
%LPD*%
%LPC*%
G36*
X184357Y590936D02*
X184357Y590936D01*
X181136Y592270D01*
X178670Y594736D01*
X177336Y597957D01*
X177336Y601443D01*
X178670Y604664D01*
X181136Y607130D01*
X184357Y608464D01*
X187843Y608464D01*
X191064Y607130D01*
X193530Y604664D01*
X194864Y601443D01*
X194864Y597957D01*
X193530Y594736D01*
X191064Y592270D01*
X187843Y590936D01*
X184357Y590936D01*
G37*
%LPD*%
%LPC*%
G36*
X362157Y565536D02*
X362157Y565536D01*
X358936Y566870D01*
X356470Y569336D01*
X355136Y572557D01*
X355136Y576043D01*
X356470Y579264D01*
X358936Y581730D01*
X362157Y583064D01*
X365643Y583064D01*
X368864Y581730D01*
X371330Y579264D01*
X372664Y576043D01*
X372664Y572557D01*
X371330Y569336D01*
X368864Y566870D01*
X365643Y565536D01*
X362157Y565536D01*
G37*
%LPD*%
%LPC*%
G36*
X336757Y565536D02*
X336757Y565536D01*
X333536Y566870D01*
X331070Y569336D01*
X329736Y572557D01*
X329736Y576043D01*
X331070Y579264D01*
X333536Y581730D01*
X336757Y583064D01*
X340243Y583064D01*
X343464Y581730D01*
X345930Y579264D01*
X347264Y576043D01*
X347264Y572557D01*
X345930Y569336D01*
X343464Y566870D01*
X340243Y565536D01*
X336757Y565536D01*
G37*
%LPD*%
%LPC*%
G36*
X565357Y565536D02*
X565357Y565536D01*
X562136Y566870D01*
X559670Y569336D01*
X558336Y572557D01*
X558336Y576043D01*
X559670Y579264D01*
X562136Y581730D01*
X565357Y583064D01*
X568843Y583064D01*
X572064Y581730D01*
X574530Y579264D01*
X575864Y576043D01*
X575864Y572557D01*
X574530Y569336D01*
X572064Y566870D01*
X568843Y565536D01*
X565357Y565536D01*
G37*
%LPD*%
%LPC*%
G36*
X539957Y565536D02*
X539957Y565536D01*
X536736Y566870D01*
X534270Y569336D01*
X532936Y572557D01*
X532936Y576043D01*
X534270Y579264D01*
X536736Y581730D01*
X539957Y583064D01*
X543443Y583064D01*
X546664Y581730D01*
X549130Y579264D01*
X550464Y576043D01*
X550464Y572557D01*
X549130Y569336D01*
X546664Y566870D01*
X543443Y565536D01*
X539957Y565536D01*
G37*
%LPD*%
%LPC*%
G36*
X514557Y565536D02*
X514557Y565536D01*
X511336Y566870D01*
X508870Y569336D01*
X507536Y572557D01*
X507536Y576043D01*
X508870Y579264D01*
X511336Y581730D01*
X514557Y583064D01*
X518043Y583064D01*
X521264Y581730D01*
X523730Y579264D01*
X525064Y576043D01*
X525064Y572557D01*
X523730Y569336D01*
X521264Y566870D01*
X518043Y565536D01*
X514557Y565536D01*
G37*
%LPD*%
%LPC*%
G36*
X489157Y565536D02*
X489157Y565536D01*
X485936Y566870D01*
X483470Y569336D01*
X482136Y572557D01*
X482136Y576043D01*
X483470Y579264D01*
X485936Y581730D01*
X489157Y583064D01*
X492643Y583064D01*
X495864Y581730D01*
X498330Y579264D01*
X499664Y576043D01*
X499664Y572557D01*
X498330Y569336D01*
X495864Y566870D01*
X492643Y565536D01*
X489157Y565536D01*
G37*
%LPD*%
%LPC*%
G36*
X463757Y565536D02*
X463757Y565536D01*
X460536Y566870D01*
X458070Y569336D01*
X456736Y572557D01*
X456736Y576043D01*
X458070Y579264D01*
X460536Y581730D01*
X463757Y583064D01*
X467243Y583064D01*
X470464Y581730D01*
X472930Y579264D01*
X474264Y576043D01*
X474264Y572557D01*
X472930Y569336D01*
X470464Y566870D01*
X467243Y565536D01*
X463757Y565536D01*
G37*
%LPD*%
%LPC*%
G36*
X438357Y565536D02*
X438357Y565536D01*
X435136Y566870D01*
X432670Y569336D01*
X431336Y572557D01*
X431336Y576043D01*
X432670Y579264D01*
X435136Y581730D01*
X438357Y583064D01*
X441843Y583064D01*
X445064Y581730D01*
X447530Y579264D01*
X448864Y576043D01*
X448864Y572557D01*
X447530Y569336D01*
X445064Y566870D01*
X441843Y565536D01*
X438357Y565536D01*
G37*
%LPD*%
%LPC*%
G36*
X412957Y565536D02*
X412957Y565536D01*
X409736Y566870D01*
X407270Y569336D01*
X405936Y572557D01*
X405936Y576043D01*
X407270Y579264D01*
X409736Y581730D01*
X412957Y583064D01*
X416443Y583064D01*
X419664Y581730D01*
X422130Y579264D01*
X423464Y576043D01*
X423464Y572557D01*
X422130Y569336D01*
X419664Y566870D01*
X416443Y565536D01*
X412957Y565536D01*
G37*
%LPD*%
%LPC*%
G36*
X387557Y565536D02*
X387557Y565536D01*
X384336Y566870D01*
X381870Y569336D01*
X380536Y572557D01*
X380536Y576043D01*
X381870Y579264D01*
X384336Y581730D01*
X387557Y583064D01*
X391043Y583064D01*
X394264Y581730D01*
X396730Y579264D01*
X398064Y576043D01*
X398064Y572557D01*
X396730Y569336D01*
X394264Y566870D01*
X391043Y565536D01*
X387557Y565536D01*
G37*
%LPD*%
%LPC*%
G36*
X311357Y565536D02*
X311357Y565536D01*
X308136Y566870D01*
X305670Y569336D01*
X304336Y572557D01*
X304336Y576043D01*
X305670Y579264D01*
X308136Y581730D01*
X311357Y583064D01*
X314843Y583064D01*
X318064Y581730D01*
X320530Y579264D01*
X321864Y576043D01*
X321864Y572557D01*
X320530Y569336D01*
X318064Y566870D01*
X314843Y565536D01*
X311357Y565536D01*
G37*
%LPD*%
%LPC*%
G36*
X285957Y565536D02*
X285957Y565536D01*
X282736Y566870D01*
X280270Y569336D01*
X278936Y572557D01*
X278936Y576043D01*
X280270Y579264D01*
X282736Y581730D01*
X285957Y583064D01*
X289443Y583064D01*
X292664Y581730D01*
X295130Y579264D01*
X296464Y576043D01*
X296464Y572557D01*
X295130Y569336D01*
X292664Y566870D01*
X289443Y565536D01*
X285957Y565536D01*
G37*
%LPD*%
%LPC*%
G36*
X260557Y565536D02*
X260557Y565536D01*
X257336Y566870D01*
X254870Y569336D01*
X253536Y572557D01*
X253536Y576043D01*
X254870Y579264D01*
X257336Y581730D01*
X260557Y583064D01*
X264043Y583064D01*
X267264Y581730D01*
X269730Y579264D01*
X271064Y576043D01*
X271064Y572557D01*
X269730Y569336D01*
X267264Y566870D01*
X264043Y565536D01*
X260557Y565536D01*
G37*
%LPD*%
%LPC*%
G36*
X235157Y565536D02*
X235157Y565536D01*
X231936Y566870D01*
X229470Y569336D01*
X228136Y572557D01*
X228136Y576043D01*
X229470Y579264D01*
X231936Y581730D01*
X235157Y583064D01*
X238643Y583064D01*
X241864Y581730D01*
X244330Y579264D01*
X245664Y576043D01*
X245664Y572557D01*
X244330Y569336D01*
X241864Y566870D01*
X238643Y565536D01*
X235157Y565536D01*
G37*
%LPD*%
%LPC*%
G36*
X209757Y565536D02*
X209757Y565536D01*
X206536Y566870D01*
X204070Y569336D01*
X202736Y572557D01*
X202736Y576043D01*
X204070Y579264D01*
X206536Y581730D01*
X209757Y583064D01*
X213243Y583064D01*
X216464Y581730D01*
X218930Y579264D01*
X220264Y576043D01*
X220264Y572557D01*
X218930Y569336D01*
X216464Y566870D01*
X213243Y565536D01*
X209757Y565536D01*
G37*
%LPD*%
%LPC*%
G36*
X184357Y565536D02*
X184357Y565536D01*
X181136Y566870D01*
X178670Y569336D01*
X177336Y572557D01*
X177336Y576043D01*
X178670Y579264D01*
X181136Y581730D01*
X184357Y583064D01*
X187843Y583064D01*
X191064Y581730D01*
X193530Y579264D01*
X194864Y576043D01*
X194864Y572557D01*
X193530Y569336D01*
X191064Y566870D01*
X187843Y565536D01*
X184357Y565536D01*
G37*
%LPD*%
%LPC*%
G36*
X158957Y565536D02*
X158957Y565536D01*
X155736Y566870D01*
X153270Y569336D01*
X151936Y572557D01*
X151936Y576043D01*
X153270Y579264D01*
X155736Y581730D01*
X158957Y583064D01*
X162443Y583064D01*
X165664Y581730D01*
X168130Y579264D01*
X169464Y576043D01*
X169464Y572557D01*
X168130Y569336D01*
X165664Y566870D01*
X162443Y565536D01*
X158957Y565536D01*
G37*
%LPD*%
%LPC*%
G36*
X133557Y565536D02*
X133557Y565536D01*
X130336Y566870D01*
X127870Y569336D01*
X126536Y572557D01*
X126536Y576043D01*
X127870Y579264D01*
X130336Y581730D01*
X133557Y583064D01*
X137043Y583064D01*
X140264Y581730D01*
X142730Y579264D01*
X144064Y576043D01*
X144064Y572557D01*
X142730Y569336D01*
X140264Y566870D01*
X137043Y565536D01*
X133557Y565536D01*
G37*
%LPD*%
%LPC*%
G36*
X158957Y844936D02*
X158957Y844936D01*
X155736Y846270D01*
X153270Y848736D01*
X151936Y851957D01*
X151936Y855443D01*
X153270Y858664D01*
X155736Y861130D01*
X158957Y862464D01*
X162443Y862464D01*
X165664Y861130D01*
X168130Y858664D01*
X169464Y855443D01*
X169464Y851957D01*
X168130Y848736D01*
X165664Y846270D01*
X162443Y844936D01*
X158957Y844936D01*
G37*
%LPD*%
%LPC*%
G36*
X133557Y844936D02*
X133557Y844936D01*
X130336Y846270D01*
X127870Y848736D01*
X126536Y851957D01*
X126536Y855443D01*
X127870Y858664D01*
X130336Y861130D01*
X133557Y862464D01*
X137043Y862464D01*
X140264Y861130D01*
X142730Y858664D01*
X144064Y855443D01*
X144064Y851957D01*
X142730Y848736D01*
X140264Y846270D01*
X137043Y844936D01*
X133557Y844936D01*
G37*
%LPD*%
%LPC*%
G36*
X565357Y844936D02*
X565357Y844936D01*
X562136Y846270D01*
X559670Y848736D01*
X558336Y851957D01*
X558336Y855443D01*
X559670Y858664D01*
X562136Y861130D01*
X565357Y862464D01*
X568843Y862464D01*
X572064Y861130D01*
X574530Y858664D01*
X575864Y855443D01*
X575864Y851957D01*
X574530Y848736D01*
X572064Y846270D01*
X568843Y844936D01*
X565357Y844936D01*
G37*
%LPD*%
%LPC*%
G36*
X539957Y844936D02*
X539957Y844936D01*
X536736Y846270D01*
X534270Y848736D01*
X532936Y851957D01*
X532936Y855443D01*
X534270Y858664D01*
X536736Y861130D01*
X539957Y862464D01*
X543443Y862464D01*
X546664Y861130D01*
X549130Y858664D01*
X550464Y855443D01*
X550464Y851957D01*
X549130Y848736D01*
X546664Y846270D01*
X543443Y844936D01*
X539957Y844936D01*
G37*
%LPD*%
%LPC*%
G36*
X336757Y590936D02*
X336757Y590936D01*
X333536Y592270D01*
X331070Y594736D01*
X329736Y597957D01*
X329736Y601443D01*
X331070Y604664D01*
X333536Y607130D01*
X336757Y608464D01*
X340243Y608464D01*
X343464Y607130D01*
X345930Y604664D01*
X347264Y601443D01*
X347264Y597957D01*
X345930Y594736D01*
X343464Y592270D01*
X340243Y590936D01*
X336757Y590936D01*
G37*
%LPD*%
%LPC*%
G36*
X514557Y844936D02*
X514557Y844936D01*
X511336Y846270D01*
X508870Y848736D01*
X507536Y851957D01*
X507536Y855443D01*
X508870Y858664D01*
X511336Y861130D01*
X514557Y862464D01*
X518043Y862464D01*
X521264Y861130D01*
X523730Y858664D01*
X525064Y855443D01*
X525064Y851957D01*
X523730Y848736D01*
X521264Y846270D01*
X518043Y844936D01*
X514557Y844936D01*
G37*
%LPD*%
%LPC*%
G36*
X489157Y844936D02*
X489157Y844936D01*
X485936Y846270D01*
X483470Y848736D01*
X482136Y851957D01*
X482136Y855443D01*
X483470Y858664D01*
X485936Y861130D01*
X489157Y862464D01*
X492643Y862464D01*
X495864Y861130D01*
X498330Y858664D01*
X499664Y855443D01*
X499664Y851957D01*
X498330Y848736D01*
X495864Y846270D01*
X492643Y844936D01*
X489157Y844936D01*
G37*
%LPD*%
%LPC*%
G36*
X463757Y844936D02*
X463757Y844936D01*
X460536Y846270D01*
X458070Y848736D01*
X456736Y851957D01*
X456736Y855443D01*
X458070Y858664D01*
X460536Y861130D01*
X463757Y862464D01*
X467243Y862464D01*
X470464Y861130D01*
X472930Y858664D01*
X474264Y855443D01*
X474264Y851957D01*
X472930Y848736D01*
X470464Y846270D01*
X467243Y844936D01*
X463757Y844936D01*
G37*
%LPD*%
%LPC*%
G36*
X438357Y844936D02*
X438357Y844936D01*
X435136Y846270D01*
X432670Y848736D01*
X431336Y851957D01*
X431336Y855443D01*
X432670Y858664D01*
X435136Y861130D01*
X438357Y862464D01*
X441843Y862464D01*
X445064Y861130D01*
X447530Y858664D01*
X448864Y855443D01*
X448864Y851957D01*
X447530Y848736D01*
X445064Y846270D01*
X441843Y844936D01*
X438357Y844936D01*
G37*
%LPD*%
%LPC*%
G36*
X412957Y844936D02*
X412957Y844936D01*
X409736Y846270D01*
X407270Y848736D01*
X405936Y851957D01*
X405936Y855443D01*
X407270Y858664D01*
X409736Y861130D01*
X412957Y862464D01*
X416443Y862464D01*
X419664Y861130D01*
X422130Y858664D01*
X423464Y855443D01*
X423464Y851957D01*
X422130Y848736D01*
X419664Y846270D01*
X416443Y844936D01*
X412957Y844936D01*
G37*
%LPD*%
%LPC*%
G36*
X387557Y844936D02*
X387557Y844936D01*
X384336Y846270D01*
X381870Y848736D01*
X380536Y851957D01*
X380536Y855443D01*
X381870Y858664D01*
X384336Y861130D01*
X387557Y862464D01*
X391043Y862464D01*
X394264Y861130D01*
X396730Y858664D01*
X398064Y855443D01*
X398064Y851957D01*
X396730Y848736D01*
X394264Y846270D01*
X391043Y844936D01*
X387557Y844936D01*
G37*
%LPD*%
%LPC*%
G36*
X362157Y844936D02*
X362157Y844936D01*
X358936Y846270D01*
X356470Y848736D01*
X355136Y851957D01*
X355136Y855443D01*
X356470Y858664D01*
X358936Y861130D01*
X362157Y862464D01*
X365643Y862464D01*
X368864Y861130D01*
X371330Y858664D01*
X372664Y855443D01*
X372664Y851957D01*
X371330Y848736D01*
X368864Y846270D01*
X365643Y844936D01*
X362157Y844936D01*
G37*
%LPD*%
%LPC*%
G36*
X336757Y844936D02*
X336757Y844936D01*
X333536Y846270D01*
X331070Y848736D01*
X329736Y851957D01*
X329736Y855443D01*
X331070Y858664D01*
X333536Y861130D01*
X336757Y862464D01*
X340243Y862464D01*
X343464Y861130D01*
X345930Y858664D01*
X347264Y855443D01*
X347264Y851957D01*
X345930Y848736D01*
X343464Y846270D01*
X340243Y844936D01*
X336757Y844936D01*
G37*
%LPD*%
%LPC*%
G36*
X285957Y844936D02*
X285957Y844936D01*
X282736Y846270D01*
X280270Y848736D01*
X278936Y851957D01*
X278936Y855443D01*
X280270Y858664D01*
X282736Y861130D01*
X285957Y862464D01*
X289443Y862464D01*
X292664Y861130D01*
X295130Y858664D01*
X296464Y855443D01*
X296464Y851957D01*
X295130Y848736D01*
X292664Y846270D01*
X289443Y844936D01*
X285957Y844936D01*
G37*
%LPD*%
%LPC*%
G36*
X260557Y844936D02*
X260557Y844936D01*
X257336Y846270D01*
X254870Y848736D01*
X253536Y851957D01*
X253536Y855443D01*
X254870Y858664D01*
X257336Y861130D01*
X260557Y862464D01*
X264043Y862464D01*
X267264Y861130D01*
X269730Y858664D01*
X271064Y855443D01*
X271064Y851957D01*
X269730Y848736D01*
X267264Y846270D01*
X264043Y844936D01*
X260557Y844936D01*
G37*
%LPD*%
%LPC*%
G36*
X235157Y844936D02*
X235157Y844936D01*
X231936Y846270D01*
X229470Y848736D01*
X228136Y851957D01*
X228136Y855443D01*
X229470Y858664D01*
X231936Y861130D01*
X235157Y862464D01*
X238643Y862464D01*
X241864Y861130D01*
X244330Y858664D01*
X245664Y855443D01*
X245664Y851957D01*
X244330Y848736D01*
X241864Y846270D01*
X238643Y844936D01*
X235157Y844936D01*
G37*
%LPD*%
%LPC*%
G36*
X989488Y261111D02*
X989488Y261111D01*
X987434Y261962D01*
X985862Y263534D01*
X985011Y265588D01*
X985011Y267812D01*
X985862Y269866D01*
X987434Y271438D01*
X989488Y272289D01*
X991712Y272289D01*
X993766Y271438D01*
X995338Y269866D01*
X996189Y267812D01*
X996189Y265588D01*
X995338Y263534D01*
X993766Y261962D01*
X991712Y261111D01*
X989488Y261111D01*
G37*
%LPD*%
%LPC*%
G36*
X989488Y477011D02*
X989488Y477011D01*
X987434Y477862D01*
X985862Y479434D01*
X985011Y481488D01*
X985011Y483712D01*
X985862Y485766D01*
X987434Y487338D01*
X989488Y488189D01*
X991712Y488189D01*
X993766Y487338D01*
X995338Y485766D01*
X996189Y483712D01*
X996189Y481488D01*
X995338Y479434D01*
X993766Y477862D01*
X991712Y477011D01*
X989488Y477011D01*
G37*
%LPD*%
%LPC*%
G36*
X1019539Y460139D02*
X1019539Y460139D01*
X1019539Y469692D01*
X1019890Y469637D01*
X1021737Y469037D01*
X1023468Y468155D01*
X1024604Y467329D01*
X1025039Y467013D01*
X1026413Y465639D01*
X1027555Y464068D01*
X1028437Y462337D01*
X1029037Y460490D01*
X1029092Y460139D01*
X1019539Y460139D01*
G37*
%LPD*%
%LPC*%
G36*
X1144539Y460139D02*
X1144539Y460139D01*
X1144539Y469692D01*
X1144890Y469637D01*
X1146737Y469037D01*
X1148468Y468155D01*
X1149604Y467329D01*
X1150039Y467013D01*
X1151413Y465639D01*
X1152555Y464068D01*
X1153437Y462337D01*
X1154037Y460490D01*
X1154092Y460139D01*
X1144539Y460139D01*
G37*
%LPD*%
%LPC*%
G36*
X1019539Y244239D02*
X1019539Y244239D01*
X1019539Y253792D01*
X1019890Y253737D01*
X1021737Y253137D01*
X1023468Y252255D01*
X1025039Y251113D01*
X1026413Y249739D01*
X1027555Y248168D01*
X1028437Y246437D01*
X1029037Y244590D01*
X1029092Y244239D01*
X1019539Y244239D01*
G37*
%LPD*%
%LPC*%
G36*
X1144539Y244239D02*
X1144539Y244239D01*
X1144539Y253792D01*
X1144890Y253737D01*
X1146737Y253137D01*
X1148468Y252255D01*
X1150039Y251113D01*
X1151413Y249739D01*
X1152555Y248168D01*
X1153437Y246437D01*
X1154037Y244590D01*
X1154092Y244239D01*
X1144539Y244239D01*
G37*
%LPD*%
%LPC*%
G36*
X1004908Y244239D02*
X1004908Y244239D01*
X1004963Y244590D01*
X1005563Y246437D01*
X1006445Y248168D01*
X1007587Y249739D01*
X1008961Y251113D01*
X1010532Y252255D01*
X1012263Y253137D01*
X1014110Y253737D01*
X1014461Y253792D01*
X1014461Y244239D01*
X1004908Y244239D01*
G37*
%LPD*%
%LPC*%
G36*
X1019539Y239161D02*
X1019539Y239161D01*
X1029092Y239161D01*
X1029037Y238810D01*
X1028437Y236963D01*
X1027555Y235232D01*
X1026413Y233661D01*
X1025039Y232287D01*
X1023468Y231145D01*
X1021737Y230263D01*
X1019890Y229663D01*
X1019539Y229608D01*
X1019539Y239161D01*
G37*
%LPD*%
%LPC*%
G36*
X1004908Y460139D02*
X1004908Y460139D01*
X1004963Y460490D01*
X1005563Y462337D01*
X1006445Y464068D01*
X1007587Y465639D01*
X1008961Y467013D01*
X1010532Y468155D01*
X1012263Y469037D01*
X1014110Y469637D01*
X1014461Y469692D01*
X1014461Y460139D01*
X1004908Y460139D01*
G37*
%LPD*%
%LPC*%
G36*
X1129908Y460139D02*
X1129908Y460139D01*
X1129963Y460490D01*
X1130563Y462337D01*
X1131445Y464068D01*
X1132587Y465639D01*
X1133961Y467013D01*
X1135532Y468155D01*
X1137263Y469037D01*
X1139110Y469637D01*
X1139461Y469692D01*
X1139461Y460139D01*
X1129908Y460139D01*
G37*
%LPD*%
%LPC*%
G36*
X1144539Y239161D02*
X1144539Y239161D01*
X1154092Y239161D01*
X1154037Y238810D01*
X1153437Y236963D01*
X1152555Y235232D01*
X1151413Y233661D01*
X1150039Y232287D01*
X1148468Y231145D01*
X1146737Y230263D01*
X1144890Y229663D01*
X1144539Y229608D01*
X1144539Y239161D01*
G37*
%LPD*%
%LPC*%
G36*
X1144539Y455061D02*
X1144539Y455061D01*
X1154092Y455061D01*
X1154037Y454710D01*
X1153437Y452863D01*
X1152555Y451132D01*
X1151413Y449561D01*
X1150039Y448187D01*
X1148468Y447045D01*
X1146737Y446163D01*
X1144890Y445563D01*
X1144539Y445508D01*
X1144539Y455061D01*
G37*
%LPD*%
%LPC*%
G36*
X1019539Y455061D02*
X1019539Y455061D01*
X1029092Y455061D01*
X1029037Y454710D01*
X1028437Y452863D01*
X1027555Y451132D01*
X1026413Y449561D01*
X1025039Y448187D01*
X1023468Y447045D01*
X1021737Y446163D01*
X1019890Y445563D01*
X1019539Y445508D01*
X1019539Y455061D01*
G37*
%LPD*%
%LPC*%
G36*
X1129908Y244239D02*
X1129908Y244239D01*
X1129963Y244590D01*
X1130563Y246437D01*
X1131445Y248168D01*
X1132587Y249739D01*
X1133961Y251113D01*
X1135532Y252255D01*
X1137263Y253137D01*
X1139110Y253737D01*
X1139461Y253792D01*
X1139461Y244239D01*
X1129908Y244239D01*
G37*
%LPD*%
%LPC*%
G36*
X1014110Y229663D02*
X1014110Y229663D01*
X1012263Y230263D01*
X1010532Y231145D01*
X1008961Y232287D01*
X1007587Y233661D01*
X1006445Y235232D01*
X1005563Y236963D01*
X1004963Y238810D01*
X1004908Y239161D01*
X1014461Y239161D01*
X1014461Y229608D01*
X1014110Y229663D01*
G37*
%LPD*%
%LPC*%
G36*
X1139110Y229663D02*
X1139110Y229663D01*
X1137263Y230263D01*
X1135532Y231145D01*
X1133961Y232287D01*
X1132587Y233661D01*
X1131445Y235232D01*
X1130563Y236963D01*
X1129963Y238810D01*
X1129908Y239161D01*
X1139461Y239161D01*
X1139461Y229608D01*
X1139110Y229663D01*
G37*
%LPD*%
%LPC*%
G36*
X1139110Y445563D02*
X1139110Y445563D01*
X1137263Y446163D01*
X1135532Y447045D01*
X1133961Y448187D01*
X1132587Y449561D01*
X1131445Y451132D01*
X1130563Y452863D01*
X1129963Y454710D01*
X1129908Y455061D01*
X1139461Y455061D01*
X1139461Y445508D01*
X1139110Y445563D01*
G37*
%LPD*%
%LPC*%
G36*
X1014110Y445563D02*
X1014110Y445563D01*
X1012263Y446163D01*
X1010532Y447045D01*
X1008961Y448187D01*
X1007587Y449561D01*
X1006445Y451132D01*
X1005563Y452863D01*
X1004963Y454710D01*
X1004908Y455061D01*
X1014461Y455061D01*
X1014461Y445508D01*
X1014110Y445563D01*
G37*
%LPD*%
%LPC*%
G36*
X78699Y853399D02*
X78699Y853399D01*
X78699Y860120D01*
X79862Y859742D01*
X81201Y859060D01*
X82415Y858177D01*
X83477Y857115D01*
X84360Y855901D01*
X85042Y854562D01*
X85420Y853399D01*
X78699Y853399D01*
G37*
%LPD*%
%LPC*%
G36*
X1135339Y779739D02*
X1135339Y779739D01*
X1135339Y786460D01*
X1136502Y786082D01*
X1137841Y785400D01*
X1139055Y784517D01*
X1140117Y783455D01*
X1141000Y782241D01*
X1141682Y780902D01*
X1142060Y779739D01*
X1135339Y779739D01*
G37*
%LPD*%
%LPC*%
G36*
X78699Y848401D02*
X78699Y848401D01*
X85420Y848401D01*
X85042Y847238D01*
X84360Y845899D01*
X83477Y844685D01*
X82415Y843623D01*
X81201Y842740D01*
X79862Y842058D01*
X78699Y841680D01*
X78699Y848401D01*
G37*
%LPD*%
%LPC*%
G36*
X66980Y853399D02*
X66980Y853399D01*
X67358Y854562D01*
X68040Y855901D01*
X68923Y857115D01*
X69985Y858177D01*
X71199Y859060D01*
X72538Y859742D01*
X73701Y860120D01*
X73701Y853399D01*
X66980Y853399D01*
G37*
%LPD*%
%LPC*%
G36*
X1135339Y774741D02*
X1135339Y774741D01*
X1142060Y774741D01*
X1141682Y773578D01*
X1141000Y772239D01*
X1140117Y771025D01*
X1139055Y769963D01*
X1137841Y769080D01*
X1136502Y768398D01*
X1135339Y768020D01*
X1135339Y774741D01*
G37*
%LPD*%
%LPC*%
G36*
X1123620Y779739D02*
X1123620Y779739D01*
X1123998Y780902D01*
X1124680Y782241D01*
X1125563Y783455D01*
X1126625Y784517D01*
X1127839Y785400D01*
X1129178Y786082D01*
X1130341Y786460D01*
X1130341Y779739D01*
X1123620Y779739D01*
G37*
%LPD*%
%LPC*%
G36*
X72538Y842058D02*
X72538Y842058D01*
X71199Y842740D01*
X69985Y843623D01*
X68923Y844685D01*
X68040Y845899D01*
X67358Y847238D01*
X66980Y848401D01*
X73701Y848401D01*
X73701Y841680D01*
X72538Y842058D01*
G37*
%LPD*%
%LPC*%
G36*
X1129178Y768398D02*
X1129178Y768398D01*
X1127839Y769080D01*
X1126625Y769963D01*
X1125563Y771025D01*
X1124680Y772239D01*
X1123998Y773578D01*
X1123620Y774741D01*
X1130341Y774741D01*
X1130341Y768020D01*
X1129178Y768398D01*
G37*
%LPD*%
%LPC*%
G36*
X315322Y601922D02*
X315322Y601922D01*
X315322Y608193D01*
X315656Y608127D01*
X317251Y607466D01*
X318687Y606507D01*
X319907Y605287D01*
X320866Y603851D01*
X321527Y602256D01*
X321593Y601922D01*
X315322Y601922D01*
G37*
%LPD*%
%LPC*%
G36*
X391522Y601922D02*
X391522Y601922D01*
X391522Y608193D01*
X391856Y608127D01*
X393451Y607466D01*
X394887Y606507D01*
X396107Y605287D01*
X397066Y603851D01*
X397727Y602256D01*
X397793Y601922D01*
X391522Y601922D01*
G37*
%LPD*%
%LPC*%
G36*
X315322Y830522D02*
X315322Y830522D01*
X315322Y836793D01*
X315656Y836727D01*
X317251Y836066D01*
X318687Y835107D01*
X319907Y833887D01*
X320866Y832451D01*
X321527Y830856D01*
X321593Y830522D01*
X315322Y830522D01*
G37*
%LPD*%
%LPC*%
G36*
X315322Y855922D02*
X315322Y855922D01*
X315322Y862193D01*
X315656Y862127D01*
X317251Y861466D01*
X318687Y860507D01*
X319907Y859287D01*
X320866Y857851D01*
X321527Y856256D01*
X321593Y855922D01*
X315322Y855922D01*
G37*
%LPD*%
%LPC*%
G36*
X391522Y830522D02*
X391522Y830522D01*
X391522Y836793D01*
X391856Y836727D01*
X393451Y836066D01*
X394887Y835107D01*
X396107Y833887D01*
X397066Y832451D01*
X397727Y830856D01*
X397793Y830522D01*
X391522Y830522D01*
G37*
%LPD*%
%LPC*%
G36*
X304607Y601922D02*
X304607Y601922D01*
X304673Y602256D01*
X305334Y603851D01*
X306293Y605287D01*
X307513Y606507D01*
X308949Y607466D01*
X310544Y608127D01*
X310878Y608193D01*
X310878Y601922D01*
X304607Y601922D01*
G37*
%LPD*%
%LPC*%
G36*
X304607Y855922D02*
X304607Y855922D01*
X304673Y856256D01*
X305334Y857851D01*
X306293Y859287D01*
X307513Y860507D01*
X308949Y861466D01*
X310544Y862127D01*
X310878Y862193D01*
X310878Y855922D01*
X304607Y855922D01*
G37*
%LPD*%
%LPC*%
G36*
X304607Y830522D02*
X304607Y830522D01*
X304673Y830856D01*
X305334Y832451D01*
X306293Y833887D01*
X307513Y835107D01*
X308949Y836066D01*
X310544Y836727D01*
X310878Y836793D01*
X310878Y830522D01*
X304607Y830522D01*
G37*
%LPD*%
%LPC*%
G36*
X380807Y601922D02*
X380807Y601922D01*
X380873Y602256D01*
X381534Y603851D01*
X382493Y605287D01*
X383713Y606507D01*
X385149Y607466D01*
X386744Y608127D01*
X387078Y608193D01*
X387078Y601922D01*
X380807Y601922D01*
G37*
%LPD*%
%LPC*%
G36*
X380807Y830522D02*
X380807Y830522D01*
X380873Y830856D01*
X381534Y832451D01*
X382493Y833887D01*
X383713Y835107D01*
X385149Y836066D01*
X386744Y836727D01*
X387078Y836793D01*
X387078Y830522D01*
X380807Y830522D01*
G37*
%LPD*%
%LPC*%
G36*
X315322Y597478D02*
X315322Y597478D01*
X321593Y597478D01*
X321527Y597144D01*
X320866Y595549D01*
X319907Y594113D01*
X318687Y592893D01*
X317251Y591934D01*
X315656Y591273D01*
X315322Y591207D01*
X315322Y597478D01*
G37*
%LPD*%
%LPC*%
G36*
X315322Y851478D02*
X315322Y851478D01*
X321593Y851478D01*
X321527Y851144D01*
X320866Y849549D01*
X319907Y848113D01*
X318687Y846893D01*
X317251Y845934D01*
X315656Y845273D01*
X315322Y845207D01*
X315322Y851478D01*
G37*
%LPD*%
%LPC*%
G36*
X391522Y597478D02*
X391522Y597478D01*
X397793Y597478D01*
X397727Y597144D01*
X397066Y595549D01*
X396107Y594113D01*
X394887Y592893D01*
X393451Y591934D01*
X391856Y591273D01*
X391522Y591207D01*
X391522Y597478D01*
G37*
%LPD*%
%LPC*%
G36*
X315322Y826078D02*
X315322Y826078D01*
X321593Y826078D01*
X321527Y825744D01*
X320866Y824149D01*
X319907Y822713D01*
X318687Y821493D01*
X317251Y820534D01*
X315656Y819873D01*
X315322Y819807D01*
X315322Y826078D01*
G37*
%LPD*%
%LPC*%
G36*
X391522Y826078D02*
X391522Y826078D01*
X397793Y826078D01*
X397727Y825744D01*
X397066Y824149D01*
X396107Y822713D01*
X394887Y821493D01*
X393451Y820534D01*
X391856Y819873D01*
X391522Y819807D01*
X391522Y826078D01*
G37*
%LPD*%
%LPC*%
G36*
X386744Y591273D02*
X386744Y591273D01*
X385149Y591934D01*
X383713Y592893D01*
X382493Y594113D01*
X381534Y595549D01*
X380873Y597144D01*
X380807Y597478D01*
X387078Y597478D01*
X387078Y591207D01*
X386744Y591273D01*
G37*
%LPD*%
%LPC*%
G36*
X310544Y591273D02*
X310544Y591273D01*
X308949Y591934D01*
X307513Y592893D01*
X306293Y594113D01*
X305334Y595549D01*
X304673Y597144D01*
X304607Y597478D01*
X310878Y597478D01*
X310878Y591207D01*
X310544Y591273D01*
G37*
%LPD*%
%LPC*%
G36*
X310544Y819873D02*
X310544Y819873D01*
X308949Y820534D01*
X307513Y821493D01*
X306293Y822713D01*
X305334Y824149D01*
X304673Y825744D01*
X304607Y826078D01*
X310878Y826078D01*
X310878Y819807D01*
X310544Y819873D01*
G37*
%LPD*%
%LPC*%
G36*
X386744Y819873D02*
X386744Y819873D01*
X385149Y820534D01*
X383713Y821493D01*
X382493Y822713D01*
X381534Y824149D01*
X380873Y825744D01*
X380807Y826078D01*
X387078Y826078D01*
X387078Y819807D01*
X386744Y819873D01*
G37*
%LPD*%
%LPC*%
G36*
X310544Y845273D02*
X310544Y845273D01*
X308949Y845934D01*
X307513Y846893D01*
X306293Y848113D01*
X305334Y849549D01*
X304673Y851144D01*
X304607Y851478D01*
X310878Y851478D01*
X310878Y845207D01*
X310544Y845273D01*
G37*
%LPD*%
%LPC*%
G36*
X1141999Y241699D02*
X1141999Y241699D01*
X1141999Y241701D01*
X1142001Y241701D01*
X1142001Y241699D01*
X1141999Y241699D01*
G37*
%LPD*%
%LPC*%
G36*
X1016999Y241699D02*
X1016999Y241699D01*
X1016999Y241701D01*
X1017001Y241701D01*
X1017001Y241699D01*
X1016999Y241699D01*
G37*
%LPD*%
%LPC*%
G36*
X1016999Y457599D02*
X1016999Y457599D01*
X1016999Y457601D01*
X1017001Y457601D01*
X1017001Y457599D01*
X1016999Y457599D01*
G37*
%LPD*%
%LPC*%
G36*
X1141999Y457599D02*
X1141999Y457599D01*
X1141999Y457601D01*
X1142001Y457601D01*
X1142001Y457599D01*
X1141999Y457599D01*
G37*
%LPD*%
D10*
X135300Y853700D03*
X135300Y828300D03*
X160700Y853700D03*
X160700Y828300D03*
X186100Y853700D03*
X186100Y828300D03*
X211500Y853700D03*
X211500Y828300D03*
X236900Y853700D03*
X236900Y828300D03*
X262300Y853700D03*
X262300Y828300D03*
X287700Y853700D03*
X287700Y828300D03*
X313100Y853700D03*
X313100Y828300D03*
X338500Y853700D03*
X338500Y828300D03*
X363900Y853700D03*
X363900Y828300D03*
X389300Y853700D03*
X389300Y828300D03*
X414700Y853700D03*
X414700Y828300D03*
X440100Y853700D03*
X440100Y828300D03*
X465500Y853700D03*
X465500Y828300D03*
X490900Y853700D03*
X490900Y828300D03*
X516300Y853700D03*
X516300Y828300D03*
X541700Y853700D03*
X541700Y828300D03*
X567100Y853700D03*
X567100Y828300D03*
X135300Y599700D03*
X135300Y574300D03*
X160700Y599700D03*
X160700Y574300D03*
X186100Y599700D03*
X186100Y574300D03*
X211500Y599700D03*
X211500Y574300D03*
X236900Y599700D03*
X236900Y574300D03*
X262300Y599700D03*
X262300Y574300D03*
X287700Y599700D03*
X287700Y574300D03*
X313100Y599700D03*
X313100Y574300D03*
X338500Y599700D03*
X338500Y574300D03*
X363900Y599700D03*
X363900Y574300D03*
X389300Y599700D03*
X389300Y574300D03*
X414700Y599700D03*
X414700Y574300D03*
X440100Y599700D03*
X440100Y574300D03*
X465500Y599700D03*
X465500Y574300D03*
X490900Y599700D03*
X490900Y574300D03*
X516300Y599700D03*
X516300Y574300D03*
X541700Y599700D03*
X541700Y574300D03*
X567100Y599700D03*
X567100Y574300D03*
D11*
X1017000Y291700D03*
X1017000Y241700D03*
X1142000Y291700D03*
X1142000Y241700D03*
X1017000Y507600D03*
X1017000Y457600D03*
X1142000Y507600D03*
X1142000Y457600D03*
D12*
X737000Y127000D03*
X787000Y127000D03*
X762000Y127000D03*
X127400Y127000D03*
X177400Y127000D03*
X152400Y127000D03*
X838200Y368300D03*
X838200Y393700D03*
X838200Y419100D03*
X838200Y444500D03*
X838200Y469900D03*
X838200Y495300D03*
X838200Y520700D03*
X838200Y546100D03*
X838200Y571500D03*
X838200Y596900D03*
X838200Y622300D03*
X838200Y647700D03*
X838200Y673100D03*
X838200Y698500D03*
X838200Y723900D03*
X838200Y749300D03*
X838200Y774700D03*
X838200Y800100D03*
X838200Y825500D03*
X838200Y850900D03*
X76200Y368300D03*
X76200Y393700D03*
X76200Y419100D03*
X76200Y444500D03*
X76200Y469900D03*
X76200Y495300D03*
X76200Y520700D03*
X76200Y546100D03*
X76200Y571500D03*
X76200Y596900D03*
X76200Y622300D03*
X76200Y647700D03*
X76200Y673100D03*
X76200Y698500D03*
X76200Y723900D03*
X76200Y749300D03*
X76200Y774700D03*
X76200Y800100D03*
X76200Y825500D03*
X76200Y850900D03*
D13*
X38100Y38100D03*
X38100Y977900D03*
X1231900Y977900D03*
X1231900Y38100D03*
D12*
X1132840Y777240D03*
X1132840Y802640D03*
X1132840Y828040D03*
X1132840Y853440D03*
X1132840Y878840D03*
D14*
X1117600Y622300D03*
X1117600Y685800D03*
X1117600Y749300D03*
X63500Y88900D03*
X990600Y266700D03*
X990600Y482600D03*
M02*
