G04 EAGLE Gerber RS-274X export*
G75*
%MOMM*%
%FSLAX34Y34*%
%LPD*%
%INTop Copper*%
%IPPOS*%
%AMOC8*
5,1,8,0,0,1.08239X$1,22.5*%
G01*
%ADD10R,1.524000X1.524000*%
%ADD11P,1.649562X8X22.500000*%
%ADD12R,0.949959X1.031241*%
%ADD13C,1.960000*%
%ADD14C,1.400000*%
%ADD15R,0.800000X0.800000*%
%ADD16R,1.676400X1.676400*%
%ADD17C,1.676400*%
%ADD18C,4.445000*%
%ADD19C,1.016000*%
%ADD20R,1.778000X1.778000*%
%ADD21C,1.778000*%
%ADD22C,0.254000*%
%ADD23C,0.609600*%

G36*
X1267444Y1012308D02*
X1267444Y1012308D01*
X1267437Y1012427D01*
X1267424Y1012465D01*
X1267419Y1012506D01*
X1267376Y1012616D01*
X1267339Y1012729D01*
X1267317Y1012764D01*
X1267302Y1012801D01*
X1267233Y1012897D01*
X1267169Y1012998D01*
X1267139Y1013026D01*
X1267116Y1013059D01*
X1267024Y1013135D01*
X1266937Y1013216D01*
X1266902Y1013236D01*
X1266871Y1013261D01*
X1266763Y1013312D01*
X1266659Y1013370D01*
X1266619Y1013380D01*
X1266583Y1013397D01*
X1266466Y1013419D01*
X1266351Y1013449D01*
X1266291Y1013453D01*
X1266271Y1013457D01*
X1266250Y1013455D01*
X1266190Y1013459D01*
X3810Y1013459D01*
X3692Y1013444D01*
X3573Y1013437D01*
X3535Y1013424D01*
X3494Y1013419D01*
X3384Y1013376D01*
X3271Y1013339D01*
X3236Y1013317D01*
X3199Y1013302D01*
X3103Y1013233D01*
X3002Y1013169D01*
X2974Y1013139D01*
X2941Y1013116D01*
X2865Y1013024D01*
X2784Y1012937D01*
X2764Y1012902D01*
X2739Y1012871D01*
X2688Y1012763D01*
X2630Y1012659D01*
X2620Y1012619D01*
X2603Y1012583D01*
X2581Y1012466D01*
X2551Y1012351D01*
X2547Y1012291D01*
X2543Y1012271D01*
X2545Y1012250D01*
X2541Y1012190D01*
X2541Y3810D01*
X2556Y3692D01*
X2563Y3573D01*
X2576Y3535D01*
X2581Y3494D01*
X2624Y3384D01*
X2661Y3271D01*
X2683Y3236D01*
X2698Y3199D01*
X2767Y3103D01*
X2831Y3002D01*
X2861Y2974D01*
X2884Y2941D01*
X2976Y2865D01*
X3063Y2784D01*
X3098Y2764D01*
X3129Y2739D01*
X3237Y2688D01*
X3341Y2630D01*
X3381Y2620D01*
X3417Y2603D01*
X3534Y2581D01*
X3649Y2551D01*
X3709Y2547D01*
X3729Y2543D01*
X3750Y2545D01*
X3810Y2541D01*
X1266190Y2541D01*
X1266308Y2556D01*
X1266427Y2563D01*
X1266465Y2576D01*
X1266506Y2581D01*
X1266616Y2624D01*
X1266729Y2661D01*
X1266764Y2683D01*
X1266801Y2698D01*
X1266897Y2767D01*
X1266998Y2831D01*
X1267026Y2861D01*
X1267059Y2884D01*
X1267135Y2976D01*
X1267216Y3063D01*
X1267236Y3098D01*
X1267261Y3129D01*
X1267312Y3237D01*
X1267370Y3341D01*
X1267380Y3381D01*
X1267397Y3417D01*
X1267419Y3534D01*
X1267449Y3649D01*
X1267453Y3709D01*
X1267457Y3729D01*
X1267455Y3750D01*
X1267459Y3810D01*
X1267459Y1012190D01*
X1267444Y1012308D01*
G37*
%LPC*%
G36*
X76200Y938531D02*
X76200Y938531D01*
X76318Y938546D01*
X76437Y938553D01*
X76475Y938566D01*
X76516Y938571D01*
X76626Y938614D01*
X76739Y938651D01*
X76774Y938673D01*
X76811Y938688D01*
X76907Y938758D01*
X77008Y938821D01*
X77036Y938851D01*
X77069Y938874D01*
X77145Y938966D01*
X77226Y939053D01*
X77246Y939088D01*
X77271Y939119D01*
X77322Y939227D01*
X77380Y939331D01*
X77390Y939371D01*
X77407Y939407D01*
X77429Y939524D01*
X77459Y939639D01*
X77463Y939700D01*
X77467Y939720D01*
X77465Y939740D01*
X77469Y939800D01*
X77469Y1002031D01*
X1192531Y1002031D01*
X1192531Y939800D01*
X1192546Y939682D01*
X1192553Y939563D01*
X1192566Y939525D01*
X1192571Y939484D01*
X1192614Y939374D01*
X1192651Y939261D01*
X1192673Y939226D01*
X1192688Y939189D01*
X1192758Y939093D01*
X1192821Y938992D01*
X1192851Y938964D01*
X1192874Y938931D01*
X1192966Y938856D01*
X1193053Y938774D01*
X1193088Y938754D01*
X1193119Y938729D01*
X1193227Y938678D01*
X1193331Y938620D01*
X1193371Y938610D01*
X1193407Y938593D01*
X1193524Y938571D01*
X1193639Y938541D01*
X1193700Y938537D01*
X1193720Y938533D01*
X1193740Y938535D01*
X1193800Y938531D01*
X1256031Y938531D01*
X1256031Y77469D01*
X1193800Y77469D01*
X1193682Y77454D01*
X1193563Y77447D01*
X1193525Y77434D01*
X1193484Y77429D01*
X1193374Y77386D01*
X1193261Y77349D01*
X1193226Y77327D01*
X1193189Y77312D01*
X1193093Y77243D01*
X1192992Y77179D01*
X1192964Y77149D01*
X1192931Y77126D01*
X1192856Y77034D01*
X1192774Y76947D01*
X1192754Y76912D01*
X1192729Y76881D01*
X1192678Y76773D01*
X1192620Y76669D01*
X1192610Y76629D01*
X1192593Y76593D01*
X1192571Y76476D01*
X1192541Y76361D01*
X1192537Y76301D01*
X1192533Y76281D01*
X1192535Y76260D01*
X1192531Y76200D01*
X1192531Y13969D01*
X77469Y13969D01*
X77469Y38100D01*
X77457Y38198D01*
X77454Y38297D01*
X77437Y38355D01*
X77429Y38416D01*
X77393Y38508D01*
X77365Y38603D01*
X77335Y38655D01*
X77312Y38711D01*
X77254Y38791D01*
X77204Y38877D01*
X77138Y38952D01*
X77126Y38969D01*
X77116Y38976D01*
X77098Y38998D01*
X39369Y76726D01*
X39369Y81607D01*
X39357Y81705D01*
X39354Y81804D01*
X39337Y81862D01*
X39329Y81922D01*
X39293Y82015D01*
X39265Y82110D01*
X39235Y82162D01*
X39212Y82218D01*
X39154Y82298D01*
X39104Y82384D01*
X39038Y82459D01*
X39026Y82475D01*
X39016Y82483D01*
X38998Y82504D01*
X38943Y82559D01*
X38844Y82636D01*
X38749Y82718D01*
X38719Y82733D01*
X38692Y82754D01*
X38577Y82804D01*
X38464Y82860D01*
X38431Y82867D01*
X38400Y82880D01*
X38276Y82900D01*
X38153Y82926D01*
X38119Y82925D01*
X38086Y82930D01*
X37961Y82918D01*
X37835Y82913D01*
X37803Y82903D01*
X37769Y82900D01*
X37651Y82857D01*
X37531Y82821D01*
X37502Y82804D01*
X37470Y82792D01*
X37366Y82722D01*
X37258Y82657D01*
X37235Y82633D01*
X37207Y82614D01*
X37124Y82520D01*
X37036Y82430D01*
X37009Y82389D01*
X36996Y82375D01*
X36987Y82356D01*
X36947Y82296D01*
X36882Y82184D01*
X36409Y81711D01*
X35830Y81376D01*
X35183Y81203D01*
X32473Y81203D01*
X32473Y87795D01*
X32458Y87913D01*
X32451Y88032D01*
X32438Y88070D01*
X32433Y88110D01*
X32389Y88221D01*
X32353Y88334D01*
X32331Y88369D01*
X32316Y88406D01*
X32246Y88502D01*
X32183Y88603D01*
X32153Y88631D01*
X32129Y88663D01*
X32038Y88739D01*
X31951Y88821D01*
X31916Y88840D01*
X31884Y88866D01*
X31820Y88896D01*
X31911Y88963D01*
X32012Y89026D01*
X32040Y89056D01*
X32072Y89080D01*
X32148Y89171D01*
X32230Y89258D01*
X32249Y89293D01*
X32275Y89325D01*
X32326Y89432D01*
X32383Y89536D01*
X32394Y89576D01*
X32411Y89612D01*
X32433Y89729D01*
X32463Y89844D01*
X32467Y89905D01*
X32471Y89925D01*
X32469Y89945D01*
X32473Y90005D01*
X32473Y96597D01*
X35183Y96597D01*
X35830Y96424D01*
X36409Y96089D01*
X36882Y95616D01*
X36947Y95504D01*
X37022Y95404D01*
X37093Y95300D01*
X37118Y95278D01*
X37139Y95251D01*
X37237Y95173D01*
X37332Y95090D01*
X37362Y95074D01*
X37388Y95053D01*
X37503Y95002D01*
X37615Y94945D01*
X37648Y94938D01*
X37678Y94924D01*
X37802Y94903D01*
X37925Y94875D01*
X37959Y94876D01*
X37992Y94871D01*
X38117Y94881D01*
X38243Y94885D01*
X38275Y94894D01*
X38309Y94897D01*
X38428Y94938D01*
X38548Y94973D01*
X38577Y94990D01*
X38609Y95002D01*
X38714Y95071D01*
X38822Y95135D01*
X38859Y95167D01*
X38874Y95177D01*
X38889Y95193D01*
X38943Y95241D01*
X38998Y95296D01*
X39058Y95374D01*
X39126Y95446D01*
X39155Y95499D01*
X39192Y95547D01*
X39232Y95638D01*
X39280Y95724D01*
X39295Y95783D01*
X39319Y95839D01*
X39334Y95937D01*
X39359Y96032D01*
X39365Y96132D01*
X39369Y96153D01*
X39367Y96165D01*
X39369Y96193D01*
X39369Y101600D01*
X39354Y101718D01*
X39347Y101837D01*
X39334Y101875D01*
X39329Y101916D01*
X39286Y102026D01*
X39249Y102139D01*
X39227Y102174D01*
X39212Y102211D01*
X39143Y102307D01*
X39079Y102408D01*
X39049Y102436D01*
X39026Y102469D01*
X38934Y102545D01*
X38847Y102626D01*
X38812Y102646D01*
X38781Y102671D01*
X38673Y102722D01*
X38569Y102780D01*
X38529Y102790D01*
X38493Y102807D01*
X38376Y102829D01*
X38261Y102859D01*
X38201Y102863D01*
X38181Y102867D01*
X38160Y102865D01*
X38100Y102869D01*
X13969Y102869D01*
X13969Y938531D01*
X76200Y938531D01*
G37*
%LPD*%
%LPC*%
G36*
X40639Y980439D02*
X40639Y980439D01*
X40639Y1002536D01*
X42255Y1002354D01*
X44967Y1001735D01*
X47592Y1000817D01*
X50099Y999610D01*
X52454Y998130D01*
X54629Y996395D01*
X56595Y994429D01*
X58330Y992254D01*
X59810Y989899D01*
X61017Y987392D01*
X61935Y984767D01*
X62554Y982055D01*
X62736Y980439D01*
X40639Y980439D01*
G37*
%LPD*%
%LPC*%
G36*
X1234439Y980439D02*
X1234439Y980439D01*
X1234439Y1002536D01*
X1236055Y1002354D01*
X1238767Y1001735D01*
X1241392Y1000817D01*
X1243899Y999610D01*
X1246254Y998130D01*
X1248429Y996395D01*
X1250395Y994429D01*
X1252130Y992254D01*
X1253610Y989899D01*
X1254817Y987392D01*
X1255735Y984767D01*
X1256354Y982055D01*
X1256536Y980439D01*
X1234439Y980439D01*
G37*
%LPD*%
%LPC*%
G36*
X40639Y40639D02*
X40639Y40639D01*
X40639Y62736D01*
X42255Y62554D01*
X44967Y61935D01*
X47592Y61017D01*
X50099Y59810D01*
X52454Y58330D01*
X54629Y56595D01*
X56595Y54629D01*
X58330Y52454D01*
X59810Y50099D01*
X61017Y47592D01*
X61935Y44967D01*
X62554Y42255D01*
X62736Y40639D01*
X40639Y40639D01*
G37*
%LPD*%
%LPC*%
G36*
X1234439Y40639D02*
X1234439Y40639D01*
X1234439Y62736D01*
X1236055Y62554D01*
X1238767Y61935D01*
X1241392Y61017D01*
X1243899Y59810D01*
X1246254Y58330D01*
X1248429Y56595D01*
X1250395Y54629D01*
X1252130Y52454D01*
X1253610Y50099D01*
X1254817Y47592D01*
X1255735Y44967D01*
X1256354Y42255D01*
X1256536Y40639D01*
X1234439Y40639D01*
G37*
%LPD*%
%LPC*%
G36*
X13464Y980439D02*
X13464Y980439D01*
X13646Y982055D01*
X14265Y984767D01*
X15183Y987392D01*
X16390Y989899D01*
X17870Y992254D01*
X19605Y994429D01*
X21571Y996395D01*
X23746Y998130D01*
X26101Y999610D01*
X28608Y1000817D01*
X31233Y1001735D01*
X33945Y1002354D01*
X35561Y1002536D01*
X35561Y980439D01*
X13464Y980439D01*
G37*
%LPD*%
%LPC*%
G36*
X1207264Y980439D02*
X1207264Y980439D01*
X1207446Y982055D01*
X1208065Y984767D01*
X1208983Y987392D01*
X1210190Y989899D01*
X1211670Y992254D01*
X1213405Y994429D01*
X1215371Y996395D01*
X1217546Y998130D01*
X1219901Y999610D01*
X1222408Y1000817D01*
X1225033Y1001735D01*
X1227745Y1002354D01*
X1229361Y1002536D01*
X1229361Y980439D01*
X1207264Y980439D01*
G37*
%LPD*%
%LPC*%
G36*
X1234439Y975361D02*
X1234439Y975361D01*
X1256536Y975361D01*
X1256354Y973745D01*
X1255735Y971033D01*
X1254817Y968408D01*
X1253610Y965901D01*
X1252130Y963546D01*
X1250395Y961371D01*
X1248429Y959405D01*
X1246254Y957670D01*
X1243899Y956190D01*
X1241392Y954983D01*
X1238767Y954065D01*
X1236055Y953446D01*
X1234439Y953264D01*
X1234439Y975361D01*
G37*
%LPD*%
%LPC*%
G36*
X40639Y975361D02*
X40639Y975361D01*
X62736Y975361D01*
X62554Y973745D01*
X61935Y971033D01*
X61017Y968408D01*
X59810Y965901D01*
X58330Y963546D01*
X56595Y961371D01*
X54629Y959405D01*
X52454Y957670D01*
X50099Y956190D01*
X47592Y954983D01*
X44967Y954065D01*
X42255Y953446D01*
X40639Y953264D01*
X40639Y975361D01*
G37*
%LPD*%
%LPC*%
G36*
X13464Y40639D02*
X13464Y40639D01*
X13646Y42255D01*
X14265Y44967D01*
X15183Y47592D01*
X16390Y50099D01*
X17870Y52454D01*
X19605Y54629D01*
X21571Y56595D01*
X23746Y58330D01*
X26101Y59810D01*
X28608Y61017D01*
X31233Y61935D01*
X33945Y62554D01*
X35561Y62736D01*
X35561Y40639D01*
X13464Y40639D01*
G37*
%LPD*%
%LPC*%
G36*
X1207264Y40639D02*
X1207264Y40639D01*
X1207446Y42255D01*
X1208065Y44967D01*
X1208983Y47592D01*
X1210190Y50099D01*
X1211670Y52454D01*
X1213405Y54629D01*
X1215371Y56595D01*
X1217546Y58330D01*
X1219901Y59810D01*
X1222408Y61017D01*
X1225033Y61935D01*
X1227745Y62554D01*
X1229361Y62736D01*
X1229361Y40639D01*
X1207264Y40639D01*
G37*
%LPD*%
%LPC*%
G36*
X1234439Y35561D02*
X1234439Y35561D01*
X1256536Y35561D01*
X1256354Y33945D01*
X1255735Y31233D01*
X1254817Y28608D01*
X1253610Y26101D01*
X1252130Y23746D01*
X1250395Y21571D01*
X1248429Y19605D01*
X1246254Y17870D01*
X1243899Y16390D01*
X1241392Y15183D01*
X1238767Y14265D01*
X1236055Y13646D01*
X1234439Y13464D01*
X1234439Y35561D01*
G37*
%LPD*%
%LPC*%
G36*
X40639Y35561D02*
X40639Y35561D01*
X62736Y35561D01*
X62554Y33945D01*
X61935Y31233D01*
X61017Y28608D01*
X59810Y26101D01*
X58330Y23746D01*
X56595Y21571D01*
X54629Y19605D01*
X52454Y17870D01*
X50099Y16390D01*
X47592Y15183D01*
X44967Y14265D01*
X42255Y13646D01*
X40639Y13464D01*
X40639Y35561D01*
G37*
%LPD*%
%LPC*%
G36*
X1227745Y953446D02*
X1227745Y953446D01*
X1225033Y954065D01*
X1222408Y954983D01*
X1219901Y956190D01*
X1217546Y957670D01*
X1215371Y959405D01*
X1213405Y961371D01*
X1211670Y963546D01*
X1210190Y965901D01*
X1208983Y968408D01*
X1208065Y971033D01*
X1207446Y973745D01*
X1207264Y975361D01*
X1229361Y975361D01*
X1229361Y953264D01*
X1227745Y953446D01*
G37*
%LPD*%
%LPC*%
G36*
X33945Y953446D02*
X33945Y953446D01*
X31233Y954065D01*
X28608Y954983D01*
X26101Y956190D01*
X23746Y957670D01*
X21571Y959405D01*
X19605Y961371D01*
X17870Y963546D01*
X16390Y965901D01*
X15183Y968408D01*
X14265Y971033D01*
X13646Y973745D01*
X13464Y975361D01*
X35561Y975361D01*
X35561Y953264D01*
X33945Y953446D01*
G37*
%LPD*%
%LPC*%
G36*
X1227745Y13646D02*
X1227745Y13646D01*
X1225033Y14265D01*
X1222408Y15183D01*
X1219901Y16390D01*
X1217546Y17870D01*
X1215371Y19605D01*
X1213405Y21571D01*
X1211670Y23746D01*
X1210190Y26101D01*
X1208983Y28608D01*
X1208065Y31233D01*
X1207446Y33945D01*
X1207264Y35561D01*
X1229361Y35561D01*
X1229361Y13464D01*
X1227745Y13646D01*
G37*
%LPD*%
%LPC*%
G36*
X33945Y13646D02*
X33945Y13646D01*
X31233Y14265D01*
X28608Y15183D01*
X26101Y16390D01*
X23746Y17870D01*
X21571Y19605D01*
X19605Y21571D01*
X17870Y23746D01*
X16390Y26101D01*
X15183Y28608D01*
X14265Y31233D01*
X13646Y33945D01*
X13464Y35561D01*
X35561Y35561D01*
X35561Y13464D01*
X33945Y13646D01*
G37*
%LPD*%
%LPC*%
G36*
X22808Y91274D02*
X22808Y91274D01*
X22808Y94391D01*
X22982Y95037D01*
X23316Y95616D01*
X23789Y96089D01*
X24368Y96424D01*
X25015Y96597D01*
X27725Y96597D01*
X27725Y91274D01*
X22808Y91274D01*
G37*
%LPD*%
%LPC*%
G36*
X25015Y81203D02*
X25015Y81203D01*
X24368Y81376D01*
X23789Y81711D01*
X23316Y82184D01*
X22982Y82763D01*
X22808Y83409D01*
X22808Y86526D01*
X27725Y86526D01*
X27725Y81203D01*
X25015Y81203D01*
G37*
%LPD*%
%LPC*%
G36*
X1231899Y977899D02*
X1231899Y977899D01*
X1231899Y977901D01*
X1231901Y977901D01*
X1231901Y977899D01*
X1231899Y977899D01*
G37*
%LPD*%
%LPC*%
G36*
X38099Y977899D02*
X38099Y977899D01*
X38099Y977901D01*
X38101Y977901D01*
X38101Y977899D01*
X38099Y977899D01*
G37*
%LPD*%
%LPC*%
G36*
X1231899Y38099D02*
X1231899Y38099D01*
X1231899Y38101D01*
X1231901Y38101D01*
X1231901Y38099D01*
X1231899Y38099D01*
G37*
%LPD*%
%LPC*%
G36*
X38099Y38099D02*
X38099Y38099D01*
X38099Y38101D01*
X38101Y38101D01*
X38101Y38099D01*
X38099Y38099D01*
G37*
%LPD*%
D10*
X135300Y853700D03*
D11*
X135300Y828300D03*
X160700Y853700D03*
X160700Y828300D03*
X186100Y853700D03*
X186100Y828300D03*
X211500Y853700D03*
X211500Y828300D03*
X236900Y853700D03*
X236900Y828300D03*
X262300Y853700D03*
X262300Y828300D03*
X287700Y853700D03*
X287700Y828300D03*
X313100Y853700D03*
X313100Y828300D03*
X338500Y853700D03*
X338500Y828300D03*
X363900Y853700D03*
X363900Y828300D03*
X389300Y853700D03*
X389300Y828300D03*
X414700Y853700D03*
X414700Y828300D03*
X440100Y853700D03*
X440100Y828300D03*
X465500Y853700D03*
X465500Y828300D03*
X490900Y853700D03*
X490900Y828300D03*
X516300Y853700D03*
X516300Y828300D03*
X541700Y853700D03*
X541700Y828300D03*
X567100Y853700D03*
X567100Y828300D03*
D10*
X135300Y599700D03*
D11*
X135300Y574300D03*
X160700Y599700D03*
X160700Y574300D03*
X186100Y599700D03*
X186100Y574300D03*
X211500Y599700D03*
X211500Y574300D03*
X236900Y599700D03*
X236900Y574300D03*
X262300Y599700D03*
X262300Y574300D03*
X287700Y599700D03*
X287700Y574300D03*
X313100Y599700D03*
X313100Y574300D03*
X338500Y599700D03*
X338500Y574300D03*
X363900Y599700D03*
X363900Y574300D03*
X389300Y599700D03*
X389300Y574300D03*
X414700Y599700D03*
X414700Y574300D03*
X440100Y599700D03*
X440100Y574300D03*
X465500Y599700D03*
X465500Y574300D03*
X490900Y599700D03*
X490900Y574300D03*
X516300Y599700D03*
X516300Y574300D03*
X541700Y599700D03*
X541700Y574300D03*
X567100Y599700D03*
X567100Y574300D03*
D12*
X957199Y482600D03*
X973201Y482600D03*
X957199Y266700D03*
X973201Y266700D03*
D13*
X1017000Y291700D03*
X1017000Y241700D03*
X1142000Y291700D03*
X1142000Y241700D03*
X1017000Y507600D03*
X1017000Y457600D03*
X1142000Y507600D03*
X1142000Y457600D03*
D14*
X737000Y127000D03*
X787000Y127000D03*
X762000Y127000D03*
X127400Y127000D03*
X177400Y127000D03*
X152400Y127000D03*
D15*
X1084700Y749300D03*
X1099700Y749300D03*
X1084700Y685800D03*
X1099700Y685800D03*
X1084700Y622300D03*
X1099700Y622300D03*
D16*
X838200Y368300D03*
D17*
X838200Y393700D03*
X838200Y419100D03*
X838200Y444500D03*
X838200Y469900D03*
X838200Y495300D03*
X838200Y520700D03*
X838200Y546100D03*
X838200Y571500D03*
X838200Y596900D03*
X838200Y622300D03*
X838200Y647700D03*
X838200Y673100D03*
X838200Y698500D03*
X838200Y723900D03*
X838200Y749300D03*
X838200Y774700D03*
X838200Y800100D03*
X838200Y825500D03*
X838200Y850900D03*
D16*
X76200Y368300D03*
D17*
X76200Y393700D03*
X76200Y419100D03*
X76200Y444500D03*
X76200Y469900D03*
X76200Y495300D03*
X76200Y520700D03*
X76200Y546100D03*
X76200Y571500D03*
X76200Y596900D03*
X76200Y622300D03*
X76200Y647700D03*
X76200Y673100D03*
X76200Y698500D03*
X76200Y723900D03*
X76200Y749300D03*
X76200Y774700D03*
X76200Y800100D03*
X76200Y825500D03*
X76200Y850900D03*
D18*
X38100Y38100D03*
X38100Y977900D03*
X1231900Y977900D03*
X1231900Y38100D03*
D19*
X38100Y927100D03*
X1231900Y927100D03*
X1231900Y101600D03*
D12*
X46101Y88900D03*
X30099Y88900D03*
D20*
X1132840Y777240D03*
D21*
X1132840Y802640D03*
X1132840Y828040D03*
X1132840Y853440D03*
X1132840Y878840D03*
D22*
X1117600Y622300D02*
X1099700Y622300D01*
D23*
X1117600Y622300D03*
D22*
X1117600Y685800D02*
X1099700Y685800D01*
D23*
X1117600Y685800D03*
D22*
X1117600Y749300D02*
X1099700Y749300D01*
D23*
X1117600Y749300D03*
D22*
X63500Y88900D02*
X46101Y88900D01*
D23*
X63500Y88900D03*
D22*
X973201Y266700D02*
X990600Y266700D01*
D23*
X990600Y266700D03*
D22*
X990600Y482600D02*
X973201Y482600D01*
D23*
X990600Y482600D03*
D22*
X315900Y774700D02*
X76200Y774700D01*
X315900Y774700D02*
X490900Y599700D01*
X315900Y749300D02*
X76200Y749300D01*
X315900Y749300D02*
X465500Y599700D01*
X315900Y723900D02*
X76200Y723900D01*
X315900Y723900D02*
X440100Y599700D01*
X76200Y698500D02*
X60960Y698500D01*
X60960Y787400D01*
X330200Y787400D01*
X516300Y601300D01*
X516300Y599700D01*
X1017000Y507600D02*
X1142000Y507600D01*
X982199Y507600D02*
X957199Y482600D01*
X982199Y507600D02*
X1017000Y507600D01*
X1016000Y508600D01*
X1016000Y546100D01*
X1003300Y558800D01*
X379400Y558800D02*
X363900Y574300D01*
X379400Y558800D02*
X1003300Y558800D01*
X1017000Y291700D02*
X1142000Y291700D01*
X982199Y291700D02*
X957199Y266700D01*
X982199Y291700D02*
X1017000Y291700D01*
X850392Y474950D02*
X843250Y482092D01*
X850392Y458308D02*
X1017000Y291700D01*
X826608Y482092D02*
X762600Y546100D01*
X850392Y474950D02*
X850392Y458308D01*
X843250Y482092D02*
X826608Y482092D01*
X368300Y546100D02*
X345440Y568960D01*
X342900Y571500D01*
X368300Y546100D02*
X762600Y546100D01*
X340100Y574300D02*
X338500Y574300D01*
X340100Y574300D02*
X342900Y571500D01*
X708310Y180690D02*
X762000Y127000D01*
X708310Y180690D02*
X705244Y180690D01*
X169936Y599700D02*
X160700Y599700D01*
X169936Y599700D02*
X181366Y588270D01*
X324530Y561404D02*
X705244Y180690D01*
X324530Y561404D02*
X324530Y579035D01*
X315295Y588270D01*
X181366Y588270D01*
X135300Y590465D02*
X135300Y599700D01*
X135300Y590465D02*
X123870Y579035D01*
X123870Y155530D02*
X152400Y127000D01*
X123870Y155530D02*
X123870Y579035D01*
X521035Y588270D02*
X527730Y594966D01*
X855442Y749300D02*
X1084700Y749300D01*
X504870Y588270D02*
X490900Y574300D01*
X843250Y737108D02*
X855442Y749300D01*
X521035Y588270D02*
X504870Y588270D01*
X527730Y601895D02*
X662944Y737108D01*
X527730Y601895D02*
X527730Y594966D01*
X662944Y737108D02*
X843250Y737108D01*
X894080Y685800D02*
X1084700Y685800D01*
X894080Y685800D02*
X842772Y634492D01*
X833150Y634492D01*
X562366Y611130D02*
X555670Y604435D01*
X525536Y574300D02*
X516300Y574300D01*
X525536Y574300D02*
X536966Y585730D01*
X555670Y597506D02*
X555670Y604435D01*
X555670Y597506D02*
X543895Y585730D01*
X536966Y585730D01*
X562366Y611130D02*
X809788Y611130D01*
X833150Y634492D01*
X904240Y622300D02*
X1084700Y622300D01*
X904240Y622300D02*
X866140Y584200D01*
X571835Y585730D02*
X562366Y585730D01*
X550936Y574300D02*
X541700Y574300D01*
X550936Y574300D02*
X562366Y585730D01*
X573365Y584200D02*
X866140Y584200D01*
X573365Y584200D02*
X571835Y585730D01*
X993140Y802640D02*
X1132840Y802640D01*
X993140Y802640D02*
X894080Y901700D01*
X335700Y901700D01*
X287700Y853700D01*
X998220Y828040D02*
X1132840Y828040D01*
X998220Y828040D02*
X899160Y927100D01*
X335700Y927100D01*
X262300Y853700D01*
X1008380Y853440D02*
X1132840Y853440D01*
X1008380Y853440D02*
X909320Y952500D01*
X335700Y952500D01*
X236900Y853700D01*
M02*
