M48
;GenerationSoftware,Autodesk,EAGLE,9.6.2*%
;CreationDate,2023-05-02T21:28:52Z*%
FMAT,2
ICI,OFF
METRIC,TZ,000.000
T6C0.305
T5C0.889
T4C1.000
T3C1.400
T2C2.500
T1C3.175
%
G90
M71
T1
X3810Y3810
X3810Y97790
X123190Y97790
X123190Y3810
T2
X10240Y19700
X71200Y19700
X81200Y19700
X20240Y19700
T3
X101700Y45760
X101700Y50760
X114200Y24170
X114200Y29170
X101700Y24170
X114200Y50760
X114200Y45760
X101700Y29170
T4
X12740Y12700
X17740Y12700
X15240Y12700
X83820Y36830
X83820Y39370
X83820Y41910
X83820Y44450
X83820Y46990
X83820Y49530
X83820Y52070
X83820Y54610
X83820Y57150
X83820Y59690
X83820Y62230
X83820Y64770
X83820Y67310
X83820Y69850
X83820Y72390
X83820Y74930
X83820Y77470
X83820Y80010
X83820Y82550
X83820Y85090
X7620Y36830
X7620Y39370
X7620Y41910
X7620Y44450
X7620Y46990
X7620Y49530
X7620Y52070
X7620Y54610
X7620Y57150
X7620Y59690
X7620Y64770
X7620Y62230
X7620Y69850
X7620Y72390
X7620Y74930
X7620Y77470
X7620Y80010
X7620Y82550
X7620Y85090
X7620Y67310
X73700Y12700
X78700Y12700
X76200Y12700
X113284Y77724
X113284Y80264
X113284Y82804
X113284Y85344
X113284Y87884
T5
X38930Y57430
X41470Y59970
X41470Y57430
X44010Y59970
X44010Y57430
X46550Y85370
X46550Y57430
X49090Y59970
X49090Y57430
X51630Y59970
X51630Y57430
X54170Y59970
X54170Y57430
X56710Y59970
X56710Y57430
X23690Y85370
X13530Y85370
X46550Y59970
X13530Y82830
X16070Y85370
X16070Y82830
X18610Y85370
X18610Y82830
X21150Y85370
X21150Y82830
X23690Y82830
X26230Y85370
X26230Y82830
X28770Y85370
X28770Y82830
X31310Y85370
X31310Y82830
X33850Y85370
X33850Y82830
X36390Y85370
X36390Y82830
X38930Y85370
X38930Y82830
X41470Y85370
X41470Y82830
X44010Y85370
X44010Y82830
X46550Y82830
X49090Y85370
X49090Y82830
X51630Y85370
X51630Y82830
X54170Y85370
X54170Y82830
X56710Y85370
X56710Y82830
X13530Y59970
X13530Y57430
X23690Y59970
X16070Y59970
X16070Y57430
X18610Y59970
X18610Y57430
X21150Y59970
X21150Y57430
X23690Y57430
X26230Y59970
X26230Y57430
X28770Y59970
X28770Y57430
X31310Y59970
X31310Y57430
X33850Y59970
X33850Y57430
X36390Y59970
X36390Y57430
X38930Y59970
T6
X6350Y8890
X111760Y74930
X111760Y68580
X111760Y62230
X99060Y48260
X99060Y26670
M30