G04 EAGLE Gerber RS-274X export*
G75*
%MOMM*%
%FSLAX34Y34*%
%LPD*%
%IN*%
%IPPOS*%
%AMOC8*
5,1,8,0,0,1.08239X$1,22.5*%
G01*
%ADD10C,0.254000*%


D10*
X0Y0D02*
X1270000Y0D01*
X1270000Y1016000D01*
X0Y1016000D01*
X0Y0D01*
X724500Y196509D02*
X724423Y195530D01*
X724269Y194560D01*
X724040Y193604D01*
X723736Y192670D01*
X723361Y191763D01*
X722915Y190888D01*
X722401Y190050D01*
X721824Y189255D01*
X721186Y188508D01*
X720492Y187814D01*
X719745Y187176D01*
X718950Y186599D01*
X718112Y186085D01*
X717237Y185639D01*
X716330Y185264D01*
X715396Y184960D01*
X714441Y184731D01*
X713470Y184577D01*
X712491Y184500D01*
X711509Y184500D01*
X710530Y184577D01*
X709560Y184731D01*
X708604Y184960D01*
X707670Y185264D01*
X706763Y185639D01*
X705888Y186085D01*
X705050Y186599D01*
X704255Y187176D01*
X703508Y187814D01*
X702814Y188508D01*
X702176Y189255D01*
X701599Y190050D01*
X701085Y190888D01*
X700639Y191763D01*
X700264Y192670D01*
X699960Y193604D01*
X699731Y194560D01*
X699577Y195530D01*
X699500Y196509D01*
X699500Y197491D01*
X699577Y198470D01*
X699731Y199441D01*
X699960Y200396D01*
X700264Y201330D01*
X700639Y202237D01*
X701085Y203112D01*
X701599Y203950D01*
X702176Y204745D01*
X702814Y205492D01*
X703508Y206186D01*
X704255Y206824D01*
X705050Y207401D01*
X705888Y207915D01*
X706763Y208361D01*
X707670Y208736D01*
X708604Y209040D01*
X709560Y209269D01*
X710530Y209423D01*
X711509Y209500D01*
X712491Y209500D01*
X713470Y209423D01*
X714441Y209269D01*
X715396Y209040D01*
X716330Y208736D01*
X717237Y208361D01*
X718112Y207915D01*
X718950Y207401D01*
X719745Y206824D01*
X720492Y206186D01*
X721186Y205492D01*
X721824Y204745D01*
X722401Y203950D01*
X722915Y203112D01*
X723361Y202237D01*
X723736Y201330D01*
X724040Y200396D01*
X724269Y199441D01*
X724423Y198470D01*
X724500Y197491D01*
X724500Y196509D01*
X824500Y196509D02*
X824423Y195530D01*
X824269Y194560D01*
X824040Y193604D01*
X823736Y192670D01*
X823361Y191763D01*
X822915Y190888D01*
X822401Y190050D01*
X821824Y189255D01*
X821186Y188508D01*
X820492Y187814D01*
X819745Y187176D01*
X818950Y186599D01*
X818112Y186085D01*
X817237Y185639D01*
X816330Y185264D01*
X815396Y184960D01*
X814441Y184731D01*
X813470Y184577D01*
X812491Y184500D01*
X811509Y184500D01*
X810530Y184577D01*
X809560Y184731D01*
X808604Y184960D01*
X807670Y185264D01*
X806763Y185639D01*
X805888Y186085D01*
X805050Y186599D01*
X804255Y187176D01*
X803508Y187814D01*
X802814Y188508D01*
X802176Y189255D01*
X801599Y190050D01*
X801085Y190888D01*
X800639Y191763D01*
X800264Y192670D01*
X799960Y193604D01*
X799731Y194560D01*
X799577Y195530D01*
X799500Y196509D01*
X799500Y197491D01*
X799577Y198470D01*
X799731Y199441D01*
X799960Y200396D01*
X800264Y201330D01*
X800639Y202237D01*
X801085Y203112D01*
X801599Y203950D01*
X802176Y204745D01*
X802814Y205492D01*
X803508Y206186D01*
X804255Y206824D01*
X805050Y207401D01*
X805888Y207915D01*
X806763Y208361D01*
X807670Y208736D01*
X808604Y209040D01*
X809560Y209269D01*
X810530Y209423D01*
X811509Y209500D01*
X812491Y209500D01*
X813470Y209423D01*
X814441Y209269D01*
X815396Y209040D01*
X816330Y208736D01*
X817237Y208361D01*
X818112Y207915D01*
X818950Y207401D01*
X819745Y206824D01*
X820492Y206186D01*
X821186Y205492D01*
X821824Y204745D01*
X822401Y203950D01*
X822915Y203112D01*
X823361Y202237D01*
X823736Y201330D01*
X824040Y200396D01*
X824269Y199441D01*
X824423Y198470D01*
X824500Y197491D01*
X824500Y196509D01*
X114900Y196509D02*
X114823Y195530D01*
X114669Y194560D01*
X114440Y193604D01*
X114136Y192670D01*
X113761Y191763D01*
X113315Y190888D01*
X112801Y190050D01*
X112224Y189255D01*
X111586Y188508D01*
X110892Y187814D01*
X110145Y187176D01*
X109350Y186599D01*
X108512Y186085D01*
X107637Y185639D01*
X106730Y185264D01*
X105796Y184960D01*
X104841Y184731D01*
X103870Y184577D01*
X102891Y184500D01*
X101909Y184500D01*
X100930Y184577D01*
X99960Y184731D01*
X99004Y184960D01*
X98070Y185264D01*
X97163Y185639D01*
X96288Y186085D01*
X95450Y186599D01*
X94655Y187176D01*
X93908Y187814D01*
X93214Y188508D01*
X92576Y189255D01*
X91999Y190050D01*
X91485Y190888D01*
X91039Y191763D01*
X90664Y192670D01*
X90360Y193604D01*
X90131Y194560D01*
X89977Y195530D01*
X89900Y196509D01*
X89900Y197491D01*
X89977Y198470D01*
X90131Y199441D01*
X90360Y200396D01*
X90664Y201330D01*
X91039Y202237D01*
X91485Y203112D01*
X91999Y203950D01*
X92576Y204745D01*
X93214Y205492D01*
X93908Y206186D01*
X94655Y206824D01*
X95450Y207401D01*
X96288Y207915D01*
X97163Y208361D01*
X98070Y208736D01*
X99004Y209040D01*
X99960Y209269D01*
X100930Y209423D01*
X101909Y209500D01*
X102891Y209500D01*
X103870Y209423D01*
X104841Y209269D01*
X105796Y209040D01*
X106730Y208736D01*
X107637Y208361D01*
X108512Y207915D01*
X109350Y207401D01*
X110145Y206824D01*
X110892Y206186D01*
X111586Y205492D01*
X112224Y204745D01*
X112801Y203950D01*
X113315Y203112D01*
X113761Y202237D01*
X114136Y201330D01*
X114440Y200396D01*
X114669Y199441D01*
X114823Y198470D01*
X114900Y197491D01*
X114900Y196509D01*
X214900Y196509D02*
X214823Y195530D01*
X214669Y194560D01*
X214440Y193604D01*
X214136Y192670D01*
X213761Y191763D01*
X213315Y190888D01*
X212801Y190050D01*
X212224Y189255D01*
X211586Y188508D01*
X210892Y187814D01*
X210145Y187176D01*
X209350Y186599D01*
X208512Y186085D01*
X207637Y185639D01*
X206730Y185264D01*
X205796Y184960D01*
X204841Y184731D01*
X203870Y184577D01*
X202891Y184500D01*
X201909Y184500D01*
X200930Y184577D01*
X199960Y184731D01*
X199004Y184960D01*
X198070Y185264D01*
X197163Y185639D01*
X196288Y186085D01*
X195450Y186599D01*
X194655Y187176D01*
X193908Y187814D01*
X193214Y188508D01*
X192576Y189255D01*
X191999Y190050D01*
X191485Y190888D01*
X191039Y191763D01*
X190664Y192670D01*
X190360Y193604D01*
X190131Y194560D01*
X189977Y195530D01*
X189900Y196509D01*
X189900Y197491D01*
X189977Y198470D01*
X190131Y199441D01*
X190360Y200396D01*
X190664Y201330D01*
X191039Y202237D01*
X191485Y203112D01*
X191999Y203950D01*
X192576Y204745D01*
X193214Y205492D01*
X193908Y206186D01*
X194655Y206824D01*
X195450Y207401D01*
X196288Y207915D01*
X197163Y208361D01*
X198070Y208736D01*
X199004Y209040D01*
X199960Y209269D01*
X200930Y209423D01*
X201909Y209500D01*
X202891Y209500D01*
X203870Y209423D01*
X204841Y209269D01*
X205796Y209040D01*
X206730Y208736D01*
X207637Y208361D01*
X208512Y207915D01*
X209350Y207401D01*
X210145Y206824D01*
X210892Y206186D01*
X211586Y205492D01*
X212224Y204745D01*
X212801Y203950D01*
X213315Y203112D01*
X213761Y202237D01*
X214136Y201330D01*
X214440Y200396D01*
X214669Y199441D01*
X214823Y198470D01*
X214900Y197491D01*
X214900Y196509D01*
M02*
