G04 EAGLE Gerber RS-274X export*
G75*
%MOMM*%
%FSLAX34Y34*%
%LPD*%
%INSilkscreen Top*%
%IPPOS*%
%AMOC8*
5,1,8,0,0,1.08239X$1,22.5*%
G01*
%ADD10C,0.152400*%
%ADD11C,0.127000*%
%ADD12C,0.254000*%
%ADD13C,0.101600*%

G36*
X1090205Y746676D02*
X1090205Y746676D01*
X1090305Y746675D01*
X1090319Y746679D01*
X1090331Y746679D01*
X1090374Y746697D01*
X1090484Y746733D01*
X1094484Y748733D01*
X1094519Y748759D01*
X1094560Y748778D01*
X1094609Y748826D01*
X1094663Y748867D01*
X1094688Y748904D01*
X1094719Y748936D01*
X1094748Y748998D01*
X1094785Y749055D01*
X1094795Y749099D01*
X1094814Y749139D01*
X1094819Y749208D01*
X1094834Y749274D01*
X1094828Y749319D01*
X1094831Y749363D01*
X1094812Y749429D01*
X1094803Y749497D01*
X1094782Y749536D01*
X1094770Y749579D01*
X1094729Y749634D01*
X1094697Y749694D01*
X1094663Y749724D01*
X1094637Y749760D01*
X1094566Y749809D01*
X1094528Y749843D01*
X1094507Y749851D01*
X1094484Y749867D01*
X1090484Y751867D01*
X1090388Y751895D01*
X1090294Y751927D01*
X1090281Y751927D01*
X1090268Y751931D01*
X1090169Y751924D01*
X1090069Y751921D01*
X1090058Y751916D01*
X1090045Y751915D01*
X1089954Y751874D01*
X1089862Y751836D01*
X1089852Y751828D01*
X1089840Y751822D01*
X1089769Y751752D01*
X1089696Y751685D01*
X1089690Y751674D01*
X1089681Y751664D01*
X1089639Y751574D01*
X1089593Y751485D01*
X1089591Y751471D01*
X1089586Y751461D01*
X1089583Y751414D01*
X1089566Y751300D01*
X1089566Y747300D01*
X1089583Y747202D01*
X1089597Y747103D01*
X1089603Y747092D01*
X1089605Y747079D01*
X1089656Y746993D01*
X1089703Y746906D01*
X1089713Y746897D01*
X1089720Y746886D01*
X1089797Y746823D01*
X1089872Y746757D01*
X1089884Y746753D01*
X1089894Y746745D01*
X1089988Y746713D01*
X1090081Y746677D01*
X1090094Y746677D01*
X1090106Y746673D01*
X1090205Y746676D01*
G37*
G36*
X1090205Y683176D02*
X1090205Y683176D01*
X1090305Y683175D01*
X1090319Y683179D01*
X1090331Y683179D01*
X1090374Y683197D01*
X1090484Y683233D01*
X1094484Y685233D01*
X1094519Y685259D01*
X1094560Y685278D01*
X1094609Y685326D01*
X1094663Y685367D01*
X1094688Y685404D01*
X1094719Y685436D01*
X1094748Y685498D01*
X1094785Y685555D01*
X1094795Y685599D01*
X1094814Y685639D01*
X1094819Y685708D01*
X1094834Y685774D01*
X1094828Y685819D01*
X1094831Y685863D01*
X1094812Y685929D01*
X1094803Y685997D01*
X1094782Y686036D01*
X1094770Y686079D01*
X1094729Y686134D01*
X1094697Y686194D01*
X1094663Y686224D01*
X1094637Y686260D01*
X1094566Y686309D01*
X1094528Y686343D01*
X1094507Y686351D01*
X1094484Y686367D01*
X1090484Y688367D01*
X1090388Y688395D01*
X1090294Y688427D01*
X1090281Y688427D01*
X1090268Y688431D01*
X1090169Y688424D01*
X1090069Y688421D01*
X1090058Y688416D01*
X1090045Y688415D01*
X1089954Y688374D01*
X1089862Y688336D01*
X1089852Y688328D01*
X1089840Y688322D01*
X1089769Y688252D01*
X1089696Y688185D01*
X1089690Y688174D01*
X1089681Y688164D01*
X1089639Y688074D01*
X1089593Y687985D01*
X1089591Y687971D01*
X1089586Y687961D01*
X1089583Y687914D01*
X1089566Y687800D01*
X1089566Y683800D01*
X1089583Y683702D01*
X1089597Y683603D01*
X1089603Y683592D01*
X1089605Y683579D01*
X1089656Y683493D01*
X1089703Y683406D01*
X1089713Y683397D01*
X1089720Y683386D01*
X1089797Y683323D01*
X1089872Y683257D01*
X1089884Y683253D01*
X1089894Y683245D01*
X1089988Y683213D01*
X1090081Y683177D01*
X1090094Y683177D01*
X1090106Y683173D01*
X1090205Y683176D01*
G37*
G36*
X1090205Y619676D02*
X1090205Y619676D01*
X1090305Y619675D01*
X1090319Y619679D01*
X1090331Y619679D01*
X1090374Y619697D01*
X1090484Y619733D01*
X1094484Y621733D01*
X1094519Y621759D01*
X1094560Y621778D01*
X1094609Y621826D01*
X1094663Y621867D01*
X1094688Y621904D01*
X1094719Y621936D01*
X1094748Y621998D01*
X1094785Y622055D01*
X1094795Y622099D01*
X1094814Y622139D01*
X1094819Y622208D01*
X1094834Y622274D01*
X1094828Y622319D01*
X1094831Y622363D01*
X1094812Y622429D01*
X1094803Y622497D01*
X1094782Y622536D01*
X1094770Y622579D01*
X1094729Y622634D01*
X1094697Y622694D01*
X1094663Y622724D01*
X1094637Y622760D01*
X1094566Y622809D01*
X1094528Y622843D01*
X1094507Y622851D01*
X1094484Y622867D01*
X1090484Y624867D01*
X1090388Y624895D01*
X1090294Y624927D01*
X1090281Y624927D01*
X1090268Y624931D01*
X1090169Y624924D01*
X1090069Y624921D01*
X1090058Y624916D01*
X1090045Y624915D01*
X1089954Y624874D01*
X1089862Y624836D01*
X1089852Y624828D01*
X1089840Y624822D01*
X1089769Y624752D01*
X1089696Y624685D01*
X1089690Y624674D01*
X1089681Y624664D01*
X1089639Y624574D01*
X1089593Y624485D01*
X1089591Y624471D01*
X1089586Y624461D01*
X1089583Y624414D01*
X1089566Y624300D01*
X1089566Y620300D01*
X1089583Y620202D01*
X1089597Y620103D01*
X1089603Y620092D01*
X1089605Y620079D01*
X1089656Y619993D01*
X1089703Y619906D01*
X1089713Y619897D01*
X1089720Y619886D01*
X1089797Y619823D01*
X1089872Y619757D01*
X1089884Y619753D01*
X1089894Y619745D01*
X1089988Y619713D01*
X1090081Y619677D01*
X1090094Y619677D01*
X1090106Y619673D01*
X1090205Y619676D01*
G37*
D10*
X882029Y140462D02*
X877062Y140462D01*
X877062Y151638D01*
X882029Y151638D01*
X880787Y146671D02*
X877062Y146671D01*
X885399Y147913D02*
X889124Y147913D01*
X886641Y151638D02*
X886641Y142325D01*
X886643Y142241D01*
X886648Y142158D01*
X886658Y142075D01*
X886671Y141992D01*
X886688Y141910D01*
X886708Y141829D01*
X886732Y141749D01*
X886760Y141670D01*
X886791Y141593D01*
X886825Y141517D01*
X886863Y141442D01*
X886905Y141369D01*
X886949Y141299D01*
X886997Y141230D01*
X887047Y141163D01*
X887101Y141099D01*
X887157Y141038D01*
X887217Y140978D01*
X887278Y140922D01*
X887342Y140868D01*
X887409Y140818D01*
X887478Y140770D01*
X887548Y140726D01*
X887621Y140684D01*
X887696Y140646D01*
X887772Y140612D01*
X887849Y140581D01*
X887928Y140553D01*
X888008Y140529D01*
X888089Y140509D01*
X888171Y140492D01*
X888254Y140479D01*
X888337Y140469D01*
X888420Y140464D01*
X888504Y140462D01*
X889124Y140462D01*
X895536Y140462D02*
X898019Y140462D01*
X895536Y140462D02*
X895452Y140464D01*
X895369Y140469D01*
X895286Y140479D01*
X895203Y140492D01*
X895121Y140509D01*
X895040Y140529D01*
X894960Y140553D01*
X894881Y140581D01*
X894804Y140612D01*
X894728Y140646D01*
X894653Y140684D01*
X894580Y140726D01*
X894510Y140770D01*
X894441Y140818D01*
X894374Y140868D01*
X894310Y140922D01*
X894249Y140978D01*
X894189Y141038D01*
X894133Y141099D01*
X894079Y141163D01*
X894029Y141230D01*
X893981Y141299D01*
X893937Y141369D01*
X893895Y141442D01*
X893857Y141517D01*
X893823Y141593D01*
X893792Y141670D01*
X893764Y141749D01*
X893740Y141829D01*
X893720Y141910D01*
X893703Y141992D01*
X893690Y142075D01*
X893680Y142158D01*
X893675Y142241D01*
X893673Y142325D01*
X893673Y146050D01*
X893675Y146134D01*
X893681Y146217D01*
X893690Y146300D01*
X893703Y146383D01*
X893720Y146465D01*
X893740Y146546D01*
X893764Y146626D01*
X893792Y146705D01*
X893823Y146782D01*
X893857Y146858D01*
X893895Y146933D01*
X893937Y147006D01*
X893981Y147076D01*
X894029Y147145D01*
X894079Y147212D01*
X894133Y147276D01*
X894189Y147337D01*
X894249Y147397D01*
X894310Y147453D01*
X894374Y147507D01*
X894441Y147557D01*
X894510Y147605D01*
X894580Y147649D01*
X894653Y147691D01*
X894728Y147729D01*
X894804Y147763D01*
X894881Y147794D01*
X894960Y147822D01*
X895040Y147846D01*
X895121Y147866D01*
X895203Y147883D01*
X895286Y147896D01*
X895369Y147906D01*
X895452Y147911D01*
X895536Y147913D01*
X898019Y147913D01*
X902801Y151638D02*
X902801Y140462D01*
X902801Y147913D02*
X905905Y147913D01*
X905989Y147911D01*
X906072Y147906D01*
X906155Y147896D01*
X906238Y147883D01*
X906320Y147866D01*
X906401Y147846D01*
X906481Y147822D01*
X906560Y147794D01*
X906637Y147763D01*
X906713Y147729D01*
X906788Y147691D01*
X906861Y147649D01*
X906931Y147605D01*
X907000Y147557D01*
X907067Y147507D01*
X907131Y147453D01*
X907192Y147397D01*
X907252Y147337D01*
X907308Y147276D01*
X907362Y147212D01*
X907412Y147145D01*
X907460Y147076D01*
X907504Y147006D01*
X907546Y146933D01*
X907584Y146858D01*
X907618Y146782D01*
X907649Y146705D01*
X907677Y146626D01*
X907701Y146546D01*
X907721Y146465D01*
X907738Y146383D01*
X907751Y146300D01*
X907761Y146217D01*
X907766Y146134D01*
X907768Y146050D01*
X907768Y140462D01*
X913370Y144808D02*
X920820Y144808D01*
X925562Y140462D02*
X929287Y151638D01*
X933012Y140462D01*
X932081Y143256D02*
X926493Y143256D01*
X937754Y144808D02*
X945204Y144808D01*
X953911Y140462D02*
X954008Y140464D01*
X954106Y140470D01*
X954203Y140479D01*
X954300Y140493D01*
X954396Y140510D01*
X954491Y140531D01*
X954585Y140555D01*
X954679Y140584D01*
X954771Y140616D01*
X954862Y140651D01*
X954951Y140690D01*
X955039Y140733D01*
X955125Y140779D01*
X955209Y140828D01*
X955291Y140881D01*
X955371Y140936D01*
X955449Y140995D01*
X955524Y141057D01*
X955597Y141122D01*
X955667Y141190D01*
X955735Y141260D01*
X955800Y141333D01*
X955862Y141408D01*
X955921Y141486D01*
X955976Y141566D01*
X956029Y141648D01*
X956078Y141732D01*
X956124Y141818D01*
X956167Y141906D01*
X956206Y141995D01*
X956241Y142086D01*
X956273Y142178D01*
X956302Y142272D01*
X956326Y142366D01*
X956347Y142461D01*
X956364Y142557D01*
X956378Y142654D01*
X956387Y142751D01*
X956393Y142848D01*
X956395Y142946D01*
X953911Y140462D02*
X953768Y140464D01*
X953625Y140470D01*
X953483Y140479D01*
X953341Y140493D01*
X953199Y140511D01*
X953058Y140532D01*
X952917Y140557D01*
X952777Y140586D01*
X952638Y140619D01*
X952500Y140655D01*
X952363Y140696D01*
X952227Y140740D01*
X952092Y140787D01*
X951959Y140839D01*
X951827Y140894D01*
X951697Y140952D01*
X951568Y141014D01*
X951441Y141080D01*
X951316Y141149D01*
X951193Y141221D01*
X951072Y141297D01*
X950953Y141375D01*
X950836Y141458D01*
X950721Y141543D01*
X950609Y141631D01*
X950499Y141723D01*
X950392Y141817D01*
X950287Y141914D01*
X950185Y142014D01*
X950496Y149154D02*
X950498Y149252D01*
X950504Y149349D01*
X950513Y149446D01*
X950527Y149543D01*
X950544Y149639D01*
X950565Y149734D01*
X950589Y149828D01*
X950618Y149922D01*
X950650Y150014D01*
X950685Y150105D01*
X950724Y150194D01*
X950767Y150282D01*
X950813Y150368D01*
X950862Y150452D01*
X950915Y150534D01*
X950970Y150614D01*
X951029Y150692D01*
X951091Y150767D01*
X951156Y150840D01*
X951224Y150910D01*
X951294Y150978D01*
X951367Y151043D01*
X951442Y151105D01*
X951520Y151164D01*
X951600Y151219D01*
X951682Y151272D01*
X951766Y151321D01*
X951852Y151367D01*
X951940Y151410D01*
X952029Y151449D01*
X952120Y151484D01*
X952212Y151516D01*
X952306Y151545D01*
X952400Y151569D01*
X952495Y151590D01*
X952591Y151607D01*
X952688Y151621D01*
X952785Y151630D01*
X952882Y151636D01*
X952980Y151638D01*
X953110Y151636D01*
X953240Y151631D01*
X953370Y151622D01*
X953500Y151609D01*
X953629Y151593D01*
X953758Y151573D01*
X953886Y151549D01*
X954014Y151522D01*
X954140Y151491D01*
X954266Y151457D01*
X954391Y151419D01*
X954514Y151378D01*
X954637Y151333D01*
X954758Y151285D01*
X954878Y151234D01*
X954996Y151179D01*
X955112Y151121D01*
X955227Y151060D01*
X955341Y150995D01*
X955452Y150928D01*
X955561Y150857D01*
X955669Y150783D01*
X955774Y150707D01*
X951738Y146981D02*
X951655Y147032D01*
X951574Y147086D01*
X951496Y147143D01*
X951420Y147203D01*
X951346Y147266D01*
X951275Y147332D01*
X951206Y147400D01*
X951140Y147471D01*
X951076Y147544D01*
X951016Y147620D01*
X950959Y147698D01*
X950904Y147779D01*
X950853Y147861D01*
X950805Y147945D01*
X950760Y148031D01*
X950718Y148119D01*
X950680Y148208D01*
X950646Y148298D01*
X950614Y148390D01*
X950587Y148483D01*
X950563Y148577D01*
X950542Y148672D01*
X950526Y148768D01*
X950513Y148864D01*
X950503Y148960D01*
X950498Y149057D01*
X950496Y149154D01*
X955152Y145119D02*
X955235Y145068D01*
X955316Y145014D01*
X955394Y144957D01*
X955470Y144897D01*
X955544Y144834D01*
X955615Y144768D01*
X955684Y144700D01*
X955750Y144629D01*
X955814Y144556D01*
X955874Y144480D01*
X955931Y144402D01*
X955986Y144321D01*
X956037Y144239D01*
X956085Y144155D01*
X956130Y144069D01*
X956172Y143981D01*
X956210Y143892D01*
X956244Y143802D01*
X956276Y143710D01*
X956303Y143617D01*
X956327Y143523D01*
X956348Y143428D01*
X956364Y143332D01*
X956377Y143236D01*
X956387Y143140D01*
X956392Y143043D01*
X956394Y142946D01*
X955153Y145119D02*
X951738Y146981D01*
X961644Y151638D02*
X961644Y140462D01*
X961644Y144187D02*
X966611Y147913D01*
X963817Y145740D02*
X966611Y140462D01*
X972862Y140462D02*
X975967Y140462D01*
X972862Y140462D02*
X972778Y140464D01*
X972695Y140469D01*
X972612Y140479D01*
X972529Y140492D01*
X972447Y140509D01*
X972366Y140529D01*
X972286Y140553D01*
X972207Y140581D01*
X972130Y140612D01*
X972054Y140646D01*
X971979Y140684D01*
X971906Y140726D01*
X971836Y140770D01*
X971767Y140818D01*
X971700Y140868D01*
X971636Y140922D01*
X971575Y140978D01*
X971515Y141038D01*
X971459Y141099D01*
X971405Y141163D01*
X971355Y141230D01*
X971307Y141299D01*
X971263Y141369D01*
X971221Y141442D01*
X971183Y141517D01*
X971149Y141593D01*
X971118Y141670D01*
X971090Y141749D01*
X971066Y141829D01*
X971046Y141910D01*
X971029Y141992D01*
X971016Y142075D01*
X971006Y142158D01*
X971001Y142241D01*
X970999Y142325D01*
X970999Y145429D01*
X971001Y145528D01*
X971007Y145626D01*
X971017Y145725D01*
X971030Y145822D01*
X971048Y145920D01*
X971069Y146016D01*
X971095Y146112D01*
X971124Y146206D01*
X971156Y146299D01*
X971193Y146391D01*
X971233Y146481D01*
X971277Y146570D01*
X971324Y146657D01*
X971374Y146742D01*
X971428Y146824D01*
X971485Y146905D01*
X971545Y146983D01*
X971609Y147059D01*
X971675Y147132D01*
X971744Y147203D01*
X971816Y147271D01*
X971891Y147335D01*
X971968Y147397D01*
X972047Y147456D01*
X972129Y147511D01*
X972213Y147564D01*
X972298Y147612D01*
X972386Y147658D01*
X972476Y147700D01*
X972567Y147738D01*
X972659Y147772D01*
X972753Y147803D01*
X972848Y147830D01*
X972944Y147854D01*
X973041Y147873D01*
X973138Y147889D01*
X973236Y147901D01*
X973335Y147909D01*
X973434Y147913D01*
X973532Y147913D01*
X973631Y147909D01*
X973730Y147901D01*
X973828Y147889D01*
X973925Y147873D01*
X974022Y147854D01*
X974118Y147830D01*
X974213Y147803D01*
X974307Y147772D01*
X974399Y147738D01*
X974490Y147700D01*
X974580Y147658D01*
X974668Y147612D01*
X974753Y147564D01*
X974837Y147511D01*
X974919Y147456D01*
X974998Y147397D01*
X975075Y147335D01*
X975150Y147271D01*
X975222Y147203D01*
X975291Y147132D01*
X975357Y147059D01*
X975421Y146983D01*
X975481Y146905D01*
X975538Y146824D01*
X975592Y146742D01*
X975642Y146657D01*
X975689Y146570D01*
X975733Y146481D01*
X975773Y146391D01*
X975810Y146299D01*
X975842Y146206D01*
X975871Y146112D01*
X975897Y146016D01*
X975918Y145920D01*
X975936Y145822D01*
X975949Y145725D01*
X975959Y145626D01*
X975965Y145528D01*
X975967Y145429D01*
X975967Y144187D01*
X970999Y144187D01*
X979887Y147913D02*
X983612Y147913D01*
X981129Y151638D02*
X981129Y142325D01*
X981128Y142325D02*
X981130Y142241D01*
X981135Y142158D01*
X981145Y142075D01*
X981158Y141992D01*
X981175Y141910D01*
X981195Y141829D01*
X981219Y141749D01*
X981247Y141670D01*
X981278Y141593D01*
X981312Y141517D01*
X981350Y141442D01*
X981392Y141369D01*
X981436Y141299D01*
X981484Y141230D01*
X981534Y141163D01*
X981588Y141099D01*
X981644Y141038D01*
X981704Y140978D01*
X981765Y140922D01*
X981829Y140868D01*
X981896Y140818D01*
X981965Y140770D01*
X982035Y140726D01*
X982108Y140684D01*
X982183Y140646D01*
X982259Y140612D01*
X982336Y140581D01*
X982415Y140553D01*
X982495Y140529D01*
X982576Y140509D01*
X982658Y140492D01*
X982741Y140479D01*
X982824Y140469D01*
X982907Y140464D01*
X982991Y140462D01*
X983612Y140462D01*
X990024Y140462D02*
X992507Y140462D01*
X990024Y140462D02*
X989940Y140464D01*
X989857Y140469D01*
X989774Y140479D01*
X989691Y140492D01*
X989609Y140509D01*
X989528Y140529D01*
X989448Y140553D01*
X989369Y140581D01*
X989292Y140612D01*
X989216Y140646D01*
X989141Y140684D01*
X989068Y140726D01*
X988998Y140770D01*
X988929Y140818D01*
X988862Y140868D01*
X988798Y140922D01*
X988737Y140978D01*
X988677Y141038D01*
X988621Y141099D01*
X988567Y141163D01*
X988517Y141230D01*
X988469Y141299D01*
X988425Y141369D01*
X988383Y141442D01*
X988345Y141517D01*
X988311Y141593D01*
X988280Y141670D01*
X988252Y141749D01*
X988228Y141829D01*
X988208Y141910D01*
X988191Y141992D01*
X988178Y142075D01*
X988168Y142158D01*
X988163Y142241D01*
X988161Y142325D01*
X988161Y146050D01*
X988163Y146134D01*
X988169Y146217D01*
X988178Y146300D01*
X988191Y146383D01*
X988208Y146465D01*
X988228Y146546D01*
X988252Y146626D01*
X988280Y146705D01*
X988311Y146782D01*
X988345Y146858D01*
X988383Y146933D01*
X988425Y147006D01*
X988469Y147076D01*
X988517Y147145D01*
X988567Y147212D01*
X988621Y147276D01*
X988677Y147337D01*
X988737Y147397D01*
X988798Y147453D01*
X988862Y147507D01*
X988929Y147557D01*
X988998Y147605D01*
X989068Y147649D01*
X989141Y147691D01*
X989216Y147729D01*
X989292Y147763D01*
X989369Y147794D01*
X989448Y147822D01*
X989528Y147846D01*
X989609Y147866D01*
X989691Y147883D01*
X989774Y147896D01*
X989857Y147906D01*
X989940Y147911D01*
X990024Y147913D01*
X992507Y147913D01*
X997288Y151638D02*
X997288Y140462D01*
X997288Y147913D02*
X1000393Y147913D01*
X1000477Y147911D01*
X1000560Y147906D01*
X1000643Y147896D01*
X1000726Y147883D01*
X1000808Y147866D01*
X1000889Y147846D01*
X1000969Y147822D01*
X1001048Y147794D01*
X1001125Y147763D01*
X1001201Y147729D01*
X1001276Y147691D01*
X1001349Y147649D01*
X1001419Y147605D01*
X1001488Y147557D01*
X1001555Y147507D01*
X1001619Y147453D01*
X1001680Y147397D01*
X1001740Y147337D01*
X1001796Y147276D01*
X1001850Y147212D01*
X1001900Y147145D01*
X1001948Y147076D01*
X1001992Y147006D01*
X1002034Y146933D01*
X1002072Y146858D01*
X1002106Y146782D01*
X1002137Y146705D01*
X1002165Y146626D01*
X1002189Y146546D01*
X1002209Y146465D01*
X1002226Y146383D01*
X1002239Y146300D01*
X1002249Y146217D01*
X1002254Y146134D01*
X1002256Y146050D01*
X1002255Y146050D02*
X1002255Y140462D01*
X880787Y115062D02*
X877062Y126238D01*
X884513Y126238D02*
X880787Y115062D01*
X889113Y123754D02*
X892217Y126238D01*
X892217Y115062D01*
X889113Y115062D02*
X895322Y115062D01*
X882029Y89662D02*
X877062Y89662D01*
X877062Y100838D01*
X882029Y100838D01*
X880787Y95871D02*
X877062Y95871D01*
X886940Y100838D02*
X886940Y89662D01*
X893149Y89662D02*
X886940Y100838D01*
X893149Y100838D02*
X893149Y89662D01*
X903478Y95871D02*
X905341Y95871D01*
X905341Y89662D01*
X901615Y89662D01*
X901517Y89664D01*
X901420Y89670D01*
X901323Y89679D01*
X901226Y89693D01*
X901130Y89710D01*
X901035Y89731D01*
X900941Y89755D01*
X900847Y89784D01*
X900755Y89816D01*
X900664Y89851D01*
X900575Y89890D01*
X900487Y89933D01*
X900401Y89979D01*
X900317Y90028D01*
X900235Y90081D01*
X900155Y90136D01*
X900077Y90195D01*
X900002Y90257D01*
X899929Y90322D01*
X899859Y90390D01*
X899791Y90460D01*
X899726Y90533D01*
X899664Y90608D01*
X899605Y90686D01*
X899550Y90766D01*
X899497Y90848D01*
X899448Y90932D01*
X899402Y91018D01*
X899359Y91106D01*
X899320Y91195D01*
X899285Y91286D01*
X899253Y91378D01*
X899224Y91472D01*
X899200Y91566D01*
X899179Y91661D01*
X899162Y91757D01*
X899148Y91854D01*
X899139Y91951D01*
X899133Y92048D01*
X899131Y92146D01*
X899132Y92146D02*
X899132Y98354D01*
X899131Y98354D02*
X899133Y98452D01*
X899139Y98549D01*
X899148Y98646D01*
X899162Y98743D01*
X899179Y98839D01*
X899200Y98934D01*
X899224Y99028D01*
X899253Y99122D01*
X899285Y99214D01*
X899320Y99305D01*
X899359Y99394D01*
X899402Y99482D01*
X899448Y99568D01*
X899497Y99652D01*
X899550Y99734D01*
X899605Y99814D01*
X899664Y99892D01*
X899726Y99967D01*
X899791Y100040D01*
X899859Y100110D01*
X899929Y100178D01*
X900002Y100243D01*
X900077Y100305D01*
X900155Y100364D01*
X900235Y100419D01*
X900317Y100472D01*
X900401Y100521D01*
X900487Y100567D01*
X900575Y100610D01*
X900664Y100649D01*
X900755Y100684D01*
X900847Y100716D01*
X900941Y100745D01*
X901035Y100769D01*
X901130Y100790D01*
X901226Y100807D01*
X901323Y100821D01*
X901420Y100830D01*
X901517Y100836D01*
X901615Y100838D01*
X905341Y100838D01*
X911761Y100838D02*
X911761Y89662D01*
X910519Y89662D02*
X913003Y89662D01*
X913003Y100838D02*
X910519Y100838D01*
X917801Y89662D02*
X920905Y89662D01*
X921016Y89664D01*
X921126Y89670D01*
X921237Y89680D01*
X921347Y89694D01*
X921456Y89711D01*
X921565Y89733D01*
X921673Y89758D01*
X921779Y89788D01*
X921885Y89821D01*
X921990Y89858D01*
X922093Y89898D01*
X922194Y89943D01*
X922294Y89990D01*
X922393Y90042D01*
X922489Y90097D01*
X922583Y90155D01*
X922675Y90216D01*
X922765Y90281D01*
X922853Y90349D01*
X922938Y90420D01*
X923020Y90494D01*
X923100Y90571D01*
X923177Y90651D01*
X923251Y90733D01*
X923322Y90818D01*
X923390Y90906D01*
X923455Y90996D01*
X923516Y91088D01*
X923574Y91182D01*
X923629Y91278D01*
X923681Y91377D01*
X923728Y91477D01*
X923773Y91578D01*
X923813Y91681D01*
X923850Y91786D01*
X923883Y91892D01*
X923913Y91998D01*
X923938Y92106D01*
X923960Y92215D01*
X923977Y92324D01*
X923991Y92434D01*
X924001Y92545D01*
X924007Y92655D01*
X924009Y92766D01*
X924007Y92877D01*
X924001Y92987D01*
X923991Y93098D01*
X923977Y93208D01*
X923960Y93317D01*
X923938Y93426D01*
X923913Y93534D01*
X923883Y93640D01*
X923850Y93746D01*
X923813Y93851D01*
X923773Y93954D01*
X923728Y94055D01*
X923681Y94155D01*
X923629Y94254D01*
X923574Y94350D01*
X923516Y94444D01*
X923455Y94536D01*
X923390Y94626D01*
X923322Y94714D01*
X923251Y94799D01*
X923177Y94881D01*
X923100Y94961D01*
X923020Y95038D01*
X922938Y95112D01*
X922853Y95183D01*
X922765Y95251D01*
X922675Y95316D01*
X922583Y95377D01*
X922489Y95435D01*
X922393Y95490D01*
X922294Y95542D01*
X922194Y95589D01*
X922093Y95634D01*
X921990Y95674D01*
X921885Y95711D01*
X921779Y95744D01*
X921673Y95774D01*
X921565Y95799D01*
X921456Y95821D01*
X921347Y95838D01*
X921237Y95852D01*
X921126Y95862D01*
X921016Y95868D01*
X920905Y95870D01*
X921526Y100838D02*
X917801Y100838D01*
X921526Y100838D02*
X921625Y100836D01*
X921723Y100830D01*
X921822Y100820D01*
X921919Y100807D01*
X922017Y100789D01*
X922113Y100768D01*
X922209Y100742D01*
X922303Y100713D01*
X922396Y100681D01*
X922488Y100644D01*
X922578Y100604D01*
X922667Y100560D01*
X922754Y100513D01*
X922839Y100463D01*
X922921Y100409D01*
X923002Y100352D01*
X923080Y100292D01*
X923156Y100228D01*
X923229Y100162D01*
X923300Y100093D01*
X923368Y100021D01*
X923432Y99946D01*
X923494Y99869D01*
X923553Y99790D01*
X923608Y99708D01*
X923661Y99624D01*
X923709Y99539D01*
X923755Y99451D01*
X923797Y99361D01*
X923835Y99270D01*
X923869Y99178D01*
X923900Y99084D01*
X923927Y98989D01*
X923951Y98893D01*
X923970Y98796D01*
X923986Y98699D01*
X923998Y98601D01*
X924006Y98502D01*
X924010Y98403D01*
X924010Y98305D01*
X924006Y98206D01*
X923998Y98107D01*
X923986Y98009D01*
X923970Y97912D01*
X923951Y97815D01*
X923927Y97719D01*
X923900Y97624D01*
X923869Y97530D01*
X923835Y97438D01*
X923797Y97347D01*
X923755Y97257D01*
X923709Y97169D01*
X923661Y97084D01*
X923608Y97000D01*
X923553Y96918D01*
X923494Y96839D01*
X923432Y96762D01*
X923368Y96687D01*
X923300Y96615D01*
X923229Y96546D01*
X923156Y96480D01*
X923080Y96416D01*
X923002Y96356D01*
X922921Y96299D01*
X922839Y96245D01*
X922754Y96195D01*
X922667Y96148D01*
X922578Y96104D01*
X922488Y96064D01*
X922396Y96027D01*
X922303Y95995D01*
X922209Y95966D01*
X922113Y95940D01*
X922017Y95919D01*
X921919Y95901D01*
X921822Y95888D01*
X921723Y95878D01*
X921625Y95872D01*
X921526Y95870D01*
X921526Y95871D02*
X919042Y95871D01*
X929231Y95250D02*
X929234Y95470D01*
X929241Y95690D01*
X929255Y95909D01*
X929273Y96128D01*
X929297Y96347D01*
X929325Y96565D01*
X929359Y96782D01*
X929398Y96998D01*
X929443Y97214D01*
X929492Y97428D01*
X929547Y97641D01*
X929606Y97853D01*
X929671Y98063D01*
X929741Y98271D01*
X929815Y98478D01*
X929895Y98683D01*
X929979Y98886D01*
X930068Y99087D01*
X930162Y99286D01*
X930195Y99375D01*
X930231Y99463D01*
X930271Y99549D01*
X930314Y99634D01*
X930361Y99716D01*
X930412Y99797D01*
X930465Y99875D01*
X930522Y99951D01*
X930582Y100025D01*
X930645Y100096D01*
X930710Y100165D01*
X930779Y100231D01*
X930850Y100293D01*
X930924Y100353D01*
X931000Y100410D01*
X931078Y100464D01*
X931159Y100514D01*
X931241Y100561D01*
X931326Y100604D01*
X931412Y100644D01*
X931500Y100681D01*
X931589Y100713D01*
X931679Y100742D01*
X931771Y100768D01*
X931863Y100789D01*
X931957Y100807D01*
X932051Y100820D01*
X932145Y100830D01*
X932240Y100836D01*
X932335Y100838D01*
X932430Y100836D01*
X932525Y100830D01*
X932619Y100820D01*
X932713Y100807D01*
X932807Y100789D01*
X932899Y100768D01*
X932991Y100742D01*
X933081Y100713D01*
X933170Y100681D01*
X933258Y100644D01*
X933344Y100604D01*
X933429Y100561D01*
X933511Y100514D01*
X933592Y100464D01*
X933670Y100410D01*
X933746Y100353D01*
X933820Y100293D01*
X933891Y100231D01*
X933960Y100165D01*
X934025Y100096D01*
X934088Y100025D01*
X934148Y99951D01*
X934205Y99875D01*
X934258Y99797D01*
X934309Y99716D01*
X934356Y99633D01*
X934399Y99549D01*
X934439Y99463D01*
X934475Y99375D01*
X934508Y99286D01*
X934509Y99286D02*
X934603Y99087D01*
X934692Y98886D01*
X934776Y98683D01*
X934856Y98478D01*
X934930Y98271D01*
X935000Y98063D01*
X935065Y97853D01*
X935124Y97641D01*
X935179Y97428D01*
X935228Y97214D01*
X935273Y96998D01*
X935312Y96782D01*
X935346Y96565D01*
X935374Y96347D01*
X935398Y96128D01*
X935416Y95909D01*
X935430Y95690D01*
X935437Y95470D01*
X935440Y95250D01*
X929231Y95250D02*
X929234Y95030D01*
X929241Y94810D01*
X929255Y94591D01*
X929273Y94372D01*
X929297Y94153D01*
X929325Y93935D01*
X929359Y93718D01*
X929398Y93502D01*
X929443Y93286D01*
X929492Y93072D01*
X929547Y92859D01*
X929606Y92648D01*
X929671Y92437D01*
X929741Y92229D01*
X929815Y92022D01*
X929895Y91817D01*
X929979Y91614D01*
X930068Y91413D01*
X930162Y91214D01*
X930195Y91125D01*
X930231Y91037D01*
X930271Y90951D01*
X930314Y90866D01*
X930361Y90784D01*
X930412Y90703D01*
X930465Y90625D01*
X930522Y90549D01*
X930582Y90475D01*
X930645Y90404D01*
X930710Y90335D01*
X930779Y90269D01*
X930850Y90207D01*
X930924Y90147D01*
X931000Y90090D01*
X931078Y90036D01*
X931159Y89986D01*
X931241Y89939D01*
X931326Y89896D01*
X931412Y89856D01*
X931500Y89819D01*
X931589Y89787D01*
X931679Y89758D01*
X931771Y89732D01*
X931863Y89711D01*
X931957Y89693D01*
X932051Y89680D01*
X932145Y89670D01*
X932240Y89664D01*
X932335Y89662D01*
X934509Y91214D02*
X934603Y91413D01*
X934692Y91614D01*
X934776Y91817D01*
X934856Y92022D01*
X934930Y92229D01*
X935000Y92437D01*
X935065Y92647D01*
X935124Y92859D01*
X935179Y93072D01*
X935228Y93286D01*
X935273Y93502D01*
X935312Y93718D01*
X935346Y93935D01*
X935374Y94153D01*
X935398Y94372D01*
X935416Y94591D01*
X935430Y94810D01*
X935437Y95030D01*
X935440Y95250D01*
X934508Y91214D02*
X934475Y91125D01*
X934439Y91037D01*
X934399Y90951D01*
X934356Y90866D01*
X934309Y90784D01*
X934258Y90703D01*
X934205Y90625D01*
X934148Y90549D01*
X934088Y90475D01*
X934025Y90404D01*
X933960Y90335D01*
X933891Y90269D01*
X933820Y90207D01*
X933746Y90147D01*
X933670Y90090D01*
X933592Y90036D01*
X933511Y89986D01*
X933429Y89939D01*
X933344Y89896D01*
X933258Y89856D01*
X933170Y89819D01*
X933081Y89787D01*
X932991Y89758D01*
X932899Y89732D01*
X932807Y89711D01*
X932713Y89693D01*
X932619Y89680D01*
X932525Y89670D01*
X932430Y89664D01*
X932335Y89662D01*
X929852Y92146D02*
X934819Y98354D01*
X940661Y98354D02*
X943765Y100838D01*
X943765Y89662D01*
X940661Y89662D02*
X946870Y89662D01*
X1131062Y743571D02*
X1134166Y743571D01*
X1134166Y743570D02*
X1134277Y743568D01*
X1134387Y743562D01*
X1134498Y743552D01*
X1134608Y743538D01*
X1134717Y743521D01*
X1134826Y743499D01*
X1134934Y743474D01*
X1135040Y743444D01*
X1135146Y743411D01*
X1135251Y743374D01*
X1135354Y743334D01*
X1135455Y743289D01*
X1135555Y743242D01*
X1135654Y743190D01*
X1135750Y743135D01*
X1135844Y743077D01*
X1135936Y743016D01*
X1136026Y742951D01*
X1136114Y742883D01*
X1136199Y742812D01*
X1136281Y742738D01*
X1136361Y742661D01*
X1136438Y742581D01*
X1136512Y742499D01*
X1136583Y742414D01*
X1136651Y742326D01*
X1136716Y742236D01*
X1136777Y742144D01*
X1136835Y742050D01*
X1136890Y741954D01*
X1136942Y741855D01*
X1136989Y741755D01*
X1137034Y741654D01*
X1137074Y741551D01*
X1137111Y741446D01*
X1137144Y741340D01*
X1137174Y741234D01*
X1137199Y741126D01*
X1137221Y741017D01*
X1137238Y740908D01*
X1137252Y740798D01*
X1137262Y740687D01*
X1137268Y740577D01*
X1137270Y740466D01*
X1137268Y740355D01*
X1137262Y740245D01*
X1137252Y740134D01*
X1137238Y740024D01*
X1137221Y739915D01*
X1137199Y739806D01*
X1137174Y739698D01*
X1137144Y739592D01*
X1137111Y739486D01*
X1137074Y739381D01*
X1137034Y739278D01*
X1136989Y739177D01*
X1136942Y739077D01*
X1136890Y738978D01*
X1136835Y738882D01*
X1136777Y738788D01*
X1136716Y738696D01*
X1136651Y738606D01*
X1136583Y738518D01*
X1136512Y738433D01*
X1136438Y738351D01*
X1136361Y738271D01*
X1136281Y738194D01*
X1136199Y738120D01*
X1136114Y738049D01*
X1136026Y737981D01*
X1135936Y737916D01*
X1135844Y737855D01*
X1135750Y737797D01*
X1135654Y737742D01*
X1135555Y737690D01*
X1135455Y737643D01*
X1135354Y737598D01*
X1135251Y737558D01*
X1135146Y737521D01*
X1135040Y737488D01*
X1134934Y737458D01*
X1134826Y737433D01*
X1134717Y737411D01*
X1134608Y737394D01*
X1134498Y737380D01*
X1134387Y737370D01*
X1134277Y737364D01*
X1134166Y737362D01*
X1131062Y737362D01*
X1131062Y748538D01*
X1134166Y748538D01*
X1134265Y748536D01*
X1134363Y748530D01*
X1134462Y748520D01*
X1134559Y748507D01*
X1134657Y748489D01*
X1134753Y748468D01*
X1134849Y748442D01*
X1134943Y748413D01*
X1135036Y748381D01*
X1135128Y748344D01*
X1135218Y748304D01*
X1135307Y748260D01*
X1135394Y748213D01*
X1135479Y748163D01*
X1135561Y748109D01*
X1135642Y748052D01*
X1135720Y747992D01*
X1135796Y747928D01*
X1135869Y747862D01*
X1135940Y747793D01*
X1136008Y747721D01*
X1136072Y747646D01*
X1136134Y747569D01*
X1136193Y747490D01*
X1136248Y747408D01*
X1136301Y747324D01*
X1136349Y747239D01*
X1136395Y747151D01*
X1136437Y747061D01*
X1136475Y746970D01*
X1136509Y746878D01*
X1136540Y746784D01*
X1136567Y746689D01*
X1136591Y746593D01*
X1136610Y746496D01*
X1136626Y746399D01*
X1136638Y746301D01*
X1136646Y746202D01*
X1136650Y746103D01*
X1136650Y746005D01*
X1136646Y745906D01*
X1136638Y745807D01*
X1136626Y745709D01*
X1136610Y745612D01*
X1136591Y745515D01*
X1136567Y745419D01*
X1136540Y745324D01*
X1136509Y745230D01*
X1136475Y745138D01*
X1136437Y745047D01*
X1136395Y744957D01*
X1136349Y744869D01*
X1136301Y744784D01*
X1136248Y744700D01*
X1136193Y744618D01*
X1136134Y744539D01*
X1136072Y744462D01*
X1136008Y744387D01*
X1135940Y744315D01*
X1135869Y744246D01*
X1135796Y744180D01*
X1135720Y744116D01*
X1135642Y744056D01*
X1135561Y743999D01*
X1135479Y743945D01*
X1135394Y743895D01*
X1135307Y743848D01*
X1135218Y743804D01*
X1135128Y743764D01*
X1135036Y743727D01*
X1134943Y743695D01*
X1134849Y743666D01*
X1134753Y743640D01*
X1134657Y743619D01*
X1134559Y743601D01*
X1134462Y743588D01*
X1134363Y743578D01*
X1134265Y743572D01*
X1134166Y743570D01*
X1142309Y748538D02*
X1142309Y737362D01*
X1147276Y737362D01*
X1152186Y740466D02*
X1152186Y748538D01*
X1152187Y740466D02*
X1152189Y740355D01*
X1152195Y740245D01*
X1152205Y740134D01*
X1152219Y740024D01*
X1152236Y739915D01*
X1152258Y739806D01*
X1152283Y739698D01*
X1152313Y739592D01*
X1152346Y739486D01*
X1152383Y739381D01*
X1152423Y739278D01*
X1152468Y739177D01*
X1152515Y739077D01*
X1152567Y738978D01*
X1152622Y738882D01*
X1152680Y738788D01*
X1152741Y738696D01*
X1152806Y738606D01*
X1152874Y738518D01*
X1152945Y738433D01*
X1153019Y738351D01*
X1153096Y738271D01*
X1153176Y738194D01*
X1153258Y738120D01*
X1153343Y738049D01*
X1153431Y737981D01*
X1153521Y737916D01*
X1153613Y737855D01*
X1153707Y737797D01*
X1153803Y737742D01*
X1153902Y737690D01*
X1154002Y737643D01*
X1154103Y737598D01*
X1154206Y737558D01*
X1154311Y737521D01*
X1154417Y737488D01*
X1154523Y737458D01*
X1154631Y737433D01*
X1154740Y737411D01*
X1154849Y737394D01*
X1154959Y737380D01*
X1155070Y737370D01*
X1155180Y737364D01*
X1155291Y737362D01*
X1155402Y737364D01*
X1155512Y737370D01*
X1155623Y737380D01*
X1155733Y737394D01*
X1155842Y737411D01*
X1155951Y737433D01*
X1156059Y737458D01*
X1156165Y737488D01*
X1156271Y737521D01*
X1156376Y737558D01*
X1156479Y737598D01*
X1156580Y737643D01*
X1156680Y737690D01*
X1156779Y737742D01*
X1156875Y737797D01*
X1156969Y737855D01*
X1157061Y737916D01*
X1157151Y737981D01*
X1157239Y738049D01*
X1157324Y738120D01*
X1157406Y738194D01*
X1157486Y738271D01*
X1157563Y738351D01*
X1157637Y738433D01*
X1157708Y738518D01*
X1157776Y738606D01*
X1157841Y738696D01*
X1157902Y738788D01*
X1157960Y738882D01*
X1158015Y738978D01*
X1158067Y739077D01*
X1158114Y739177D01*
X1158159Y739278D01*
X1158199Y739381D01*
X1158236Y739486D01*
X1158269Y739592D01*
X1158299Y739698D01*
X1158324Y739806D01*
X1158346Y739915D01*
X1158363Y740024D01*
X1158377Y740134D01*
X1158387Y740245D01*
X1158393Y740355D01*
X1158395Y740466D01*
X1158395Y748538D01*
X1164407Y737362D02*
X1169374Y737362D01*
X1164407Y737362D02*
X1164407Y748538D01*
X1169374Y748538D01*
X1168132Y743571D02*
X1164407Y743571D01*
X1137271Y680071D02*
X1135408Y680071D01*
X1137271Y680071D02*
X1137271Y673862D01*
X1133546Y673862D01*
X1133448Y673864D01*
X1133351Y673870D01*
X1133254Y673879D01*
X1133157Y673893D01*
X1133061Y673910D01*
X1132966Y673931D01*
X1132872Y673955D01*
X1132778Y673984D01*
X1132686Y674016D01*
X1132595Y674051D01*
X1132506Y674090D01*
X1132418Y674133D01*
X1132332Y674179D01*
X1132248Y674228D01*
X1132166Y674281D01*
X1132086Y674336D01*
X1132008Y674395D01*
X1131933Y674457D01*
X1131860Y674522D01*
X1131790Y674590D01*
X1131722Y674660D01*
X1131657Y674733D01*
X1131595Y674808D01*
X1131536Y674886D01*
X1131481Y674966D01*
X1131428Y675048D01*
X1131379Y675132D01*
X1131333Y675218D01*
X1131290Y675306D01*
X1131251Y675395D01*
X1131216Y675486D01*
X1131184Y675578D01*
X1131155Y675672D01*
X1131131Y675766D01*
X1131110Y675861D01*
X1131093Y675957D01*
X1131079Y676054D01*
X1131070Y676151D01*
X1131064Y676248D01*
X1131062Y676346D01*
X1131062Y682554D01*
X1131064Y682652D01*
X1131070Y682749D01*
X1131079Y682846D01*
X1131093Y682943D01*
X1131110Y683039D01*
X1131131Y683134D01*
X1131155Y683228D01*
X1131184Y683322D01*
X1131216Y683414D01*
X1131251Y683505D01*
X1131290Y683594D01*
X1131333Y683682D01*
X1131379Y683768D01*
X1131428Y683852D01*
X1131481Y683934D01*
X1131536Y684014D01*
X1131595Y684092D01*
X1131657Y684167D01*
X1131722Y684240D01*
X1131790Y684310D01*
X1131860Y684378D01*
X1131933Y684443D01*
X1132008Y684505D01*
X1132086Y684564D01*
X1132166Y684619D01*
X1132248Y684672D01*
X1132332Y684721D01*
X1132418Y684767D01*
X1132506Y684810D01*
X1132595Y684849D01*
X1132686Y684884D01*
X1132778Y684916D01*
X1132872Y684945D01*
X1132966Y684969D01*
X1133061Y684990D01*
X1133157Y685007D01*
X1133254Y685021D01*
X1133351Y685030D01*
X1133448Y685036D01*
X1133546Y685038D01*
X1137271Y685038D01*
X1143346Y685038D02*
X1143346Y673862D01*
X1143346Y685038D02*
X1146450Y685038D01*
X1146561Y685036D01*
X1146671Y685030D01*
X1146782Y685020D01*
X1146892Y685006D01*
X1147001Y684989D01*
X1147110Y684967D01*
X1147218Y684942D01*
X1147324Y684912D01*
X1147430Y684879D01*
X1147535Y684842D01*
X1147638Y684802D01*
X1147739Y684757D01*
X1147839Y684710D01*
X1147938Y684658D01*
X1148034Y684603D01*
X1148128Y684545D01*
X1148220Y684484D01*
X1148310Y684419D01*
X1148398Y684351D01*
X1148483Y684280D01*
X1148565Y684206D01*
X1148645Y684129D01*
X1148722Y684049D01*
X1148796Y683967D01*
X1148867Y683882D01*
X1148935Y683794D01*
X1149000Y683704D01*
X1149061Y683612D01*
X1149119Y683518D01*
X1149174Y683422D01*
X1149226Y683323D01*
X1149273Y683223D01*
X1149318Y683122D01*
X1149358Y683019D01*
X1149395Y682914D01*
X1149428Y682808D01*
X1149458Y682702D01*
X1149483Y682594D01*
X1149505Y682485D01*
X1149522Y682376D01*
X1149536Y682266D01*
X1149546Y682155D01*
X1149552Y682045D01*
X1149554Y681934D01*
X1149552Y681823D01*
X1149546Y681713D01*
X1149536Y681602D01*
X1149522Y681492D01*
X1149505Y681383D01*
X1149483Y681274D01*
X1149458Y681166D01*
X1149428Y681060D01*
X1149395Y680954D01*
X1149358Y680849D01*
X1149318Y680746D01*
X1149273Y680645D01*
X1149226Y680545D01*
X1149174Y680446D01*
X1149119Y680350D01*
X1149061Y680256D01*
X1149000Y680164D01*
X1148935Y680074D01*
X1148867Y679986D01*
X1148796Y679901D01*
X1148722Y679819D01*
X1148645Y679739D01*
X1148565Y679662D01*
X1148483Y679588D01*
X1148398Y679517D01*
X1148310Y679449D01*
X1148220Y679384D01*
X1148128Y679323D01*
X1148034Y679265D01*
X1147938Y679210D01*
X1147839Y679158D01*
X1147739Y679111D01*
X1147638Y679066D01*
X1147535Y679026D01*
X1147430Y678989D01*
X1147324Y678956D01*
X1147218Y678926D01*
X1147110Y678901D01*
X1147001Y678879D01*
X1146892Y678862D01*
X1146782Y678848D01*
X1146671Y678838D01*
X1146561Y678832D01*
X1146450Y678830D01*
X1146450Y678829D02*
X1143346Y678829D01*
X1147071Y678829D02*
X1149555Y673862D01*
X1155093Y673862D02*
X1160060Y673862D01*
X1155093Y673862D02*
X1155093Y685038D01*
X1160060Y685038D01*
X1158819Y680071D02*
X1155093Y680071D01*
X1164999Y673862D02*
X1169966Y673862D01*
X1164999Y673862D02*
X1164999Y685038D01*
X1169966Y685038D01*
X1168724Y680071D02*
X1164999Y680071D01*
X1174877Y685038D02*
X1174877Y673862D01*
X1181086Y673862D02*
X1174877Y685038D01*
X1181086Y685038D02*
X1181086Y673862D01*
X1131062Y621538D02*
X1131062Y610362D01*
X1131062Y621538D02*
X1134166Y621538D01*
X1134277Y621536D01*
X1134387Y621530D01*
X1134498Y621520D01*
X1134608Y621506D01*
X1134717Y621489D01*
X1134826Y621467D01*
X1134934Y621442D01*
X1135040Y621412D01*
X1135146Y621379D01*
X1135251Y621342D01*
X1135354Y621302D01*
X1135455Y621257D01*
X1135555Y621210D01*
X1135654Y621158D01*
X1135750Y621103D01*
X1135844Y621045D01*
X1135936Y620984D01*
X1136026Y620919D01*
X1136114Y620851D01*
X1136199Y620780D01*
X1136281Y620706D01*
X1136361Y620629D01*
X1136438Y620549D01*
X1136512Y620467D01*
X1136583Y620382D01*
X1136651Y620294D01*
X1136716Y620204D01*
X1136777Y620112D01*
X1136835Y620018D01*
X1136890Y619922D01*
X1136942Y619823D01*
X1136989Y619723D01*
X1137034Y619622D01*
X1137074Y619519D01*
X1137111Y619414D01*
X1137144Y619308D01*
X1137174Y619202D01*
X1137199Y619094D01*
X1137221Y618985D01*
X1137238Y618876D01*
X1137252Y618766D01*
X1137262Y618655D01*
X1137268Y618545D01*
X1137270Y618434D01*
X1137268Y618323D01*
X1137262Y618213D01*
X1137252Y618102D01*
X1137238Y617992D01*
X1137221Y617883D01*
X1137199Y617774D01*
X1137174Y617666D01*
X1137144Y617560D01*
X1137111Y617454D01*
X1137074Y617349D01*
X1137034Y617246D01*
X1136989Y617145D01*
X1136942Y617045D01*
X1136890Y616946D01*
X1136835Y616850D01*
X1136777Y616756D01*
X1136716Y616664D01*
X1136651Y616574D01*
X1136583Y616486D01*
X1136512Y616401D01*
X1136438Y616319D01*
X1136361Y616239D01*
X1136281Y616162D01*
X1136199Y616088D01*
X1136114Y616017D01*
X1136026Y615949D01*
X1135936Y615884D01*
X1135844Y615823D01*
X1135750Y615765D01*
X1135654Y615710D01*
X1135555Y615658D01*
X1135455Y615611D01*
X1135354Y615566D01*
X1135251Y615526D01*
X1135146Y615489D01*
X1135040Y615456D01*
X1134934Y615426D01*
X1134826Y615401D01*
X1134717Y615379D01*
X1134608Y615362D01*
X1134498Y615348D01*
X1134387Y615338D01*
X1134277Y615332D01*
X1134166Y615330D01*
X1134166Y615329D02*
X1131062Y615329D01*
X1134787Y615329D02*
X1137271Y610362D01*
X1142809Y610362D02*
X1147776Y610362D01*
X1142809Y610362D02*
X1142809Y621538D01*
X1147776Y621538D01*
X1146535Y616571D02*
X1142809Y616571D01*
X1152687Y621538D02*
X1152687Y610362D01*
X1152687Y621538D02*
X1155791Y621538D01*
X1155902Y621536D01*
X1156012Y621530D01*
X1156123Y621520D01*
X1156233Y621506D01*
X1156342Y621489D01*
X1156451Y621467D01*
X1156559Y621442D01*
X1156665Y621412D01*
X1156771Y621379D01*
X1156876Y621342D01*
X1156979Y621302D01*
X1157080Y621257D01*
X1157180Y621210D01*
X1157279Y621158D01*
X1157375Y621103D01*
X1157469Y621045D01*
X1157561Y620984D01*
X1157651Y620919D01*
X1157739Y620851D01*
X1157824Y620780D01*
X1157906Y620706D01*
X1157986Y620629D01*
X1158063Y620549D01*
X1158137Y620467D01*
X1158208Y620382D01*
X1158276Y620294D01*
X1158341Y620204D01*
X1158402Y620112D01*
X1158460Y620018D01*
X1158515Y619922D01*
X1158567Y619823D01*
X1158614Y619723D01*
X1158659Y619622D01*
X1158699Y619519D01*
X1158736Y619414D01*
X1158769Y619308D01*
X1158799Y619202D01*
X1158824Y619094D01*
X1158846Y618985D01*
X1158863Y618876D01*
X1158877Y618766D01*
X1158887Y618655D01*
X1158893Y618545D01*
X1158895Y618434D01*
X1158896Y618434D02*
X1158896Y613466D01*
X1158895Y613466D02*
X1158893Y613355D01*
X1158887Y613245D01*
X1158877Y613134D01*
X1158863Y613024D01*
X1158846Y612915D01*
X1158824Y612806D01*
X1158799Y612698D01*
X1158769Y612592D01*
X1158736Y612486D01*
X1158699Y612381D01*
X1158659Y612278D01*
X1158614Y612177D01*
X1158567Y612077D01*
X1158515Y611978D01*
X1158460Y611882D01*
X1158402Y611788D01*
X1158341Y611696D01*
X1158276Y611606D01*
X1158208Y611518D01*
X1158137Y611433D01*
X1158063Y611351D01*
X1157986Y611271D01*
X1157906Y611194D01*
X1157824Y611120D01*
X1157739Y611049D01*
X1157651Y610981D01*
X1157561Y610916D01*
X1157469Y610855D01*
X1157375Y610797D01*
X1157279Y610742D01*
X1157180Y610690D01*
X1157080Y610643D01*
X1156979Y610598D01*
X1156876Y610558D01*
X1156771Y610521D01*
X1156665Y610488D01*
X1156559Y610458D01*
X1156451Y610433D01*
X1156342Y610411D01*
X1156233Y610394D01*
X1156123Y610380D01*
X1156012Y610370D01*
X1155902Y610364D01*
X1155791Y610362D01*
X1152687Y610362D01*
X1159566Y494538D02*
X1159566Y483362D01*
X1156462Y494538D02*
X1162671Y494538D01*
X1167370Y490813D02*
X1167370Y485225D01*
X1167372Y485141D01*
X1167377Y485058D01*
X1167387Y484975D01*
X1167400Y484892D01*
X1167417Y484810D01*
X1167437Y484729D01*
X1167461Y484649D01*
X1167489Y484570D01*
X1167520Y484493D01*
X1167554Y484417D01*
X1167592Y484342D01*
X1167634Y484269D01*
X1167678Y484199D01*
X1167726Y484130D01*
X1167776Y484063D01*
X1167830Y483999D01*
X1167886Y483938D01*
X1167946Y483878D01*
X1168007Y483822D01*
X1168071Y483768D01*
X1168138Y483718D01*
X1168207Y483670D01*
X1168277Y483626D01*
X1168350Y483584D01*
X1168425Y483546D01*
X1168501Y483512D01*
X1168578Y483481D01*
X1168657Y483453D01*
X1168737Y483429D01*
X1168818Y483409D01*
X1168900Y483392D01*
X1168983Y483379D01*
X1169066Y483369D01*
X1169149Y483364D01*
X1169233Y483362D01*
X1172337Y483362D01*
X1172337Y490813D01*
X1178121Y490813D02*
X1178121Y483362D01*
X1178121Y490813D02*
X1181846Y490813D01*
X1181846Y489571D01*
X1186039Y490813D02*
X1186039Y483362D01*
X1186039Y490813D02*
X1189143Y490813D01*
X1189227Y490811D01*
X1189310Y490806D01*
X1189393Y490796D01*
X1189476Y490783D01*
X1189558Y490766D01*
X1189639Y490746D01*
X1189719Y490722D01*
X1189798Y490694D01*
X1189875Y490663D01*
X1189951Y490629D01*
X1190026Y490591D01*
X1190099Y490549D01*
X1190169Y490505D01*
X1190238Y490457D01*
X1190305Y490407D01*
X1190369Y490353D01*
X1190430Y490297D01*
X1190490Y490237D01*
X1190546Y490176D01*
X1190600Y490112D01*
X1190650Y490045D01*
X1190698Y489976D01*
X1190742Y489906D01*
X1190784Y489833D01*
X1190822Y489758D01*
X1190856Y489682D01*
X1190887Y489605D01*
X1190915Y489526D01*
X1190939Y489446D01*
X1190959Y489365D01*
X1190976Y489283D01*
X1190989Y489200D01*
X1190999Y489117D01*
X1191004Y489034D01*
X1191006Y488950D01*
X1191006Y483362D01*
X1202563Y486466D02*
X1202563Y491434D01*
X1202565Y491545D01*
X1202571Y491655D01*
X1202581Y491766D01*
X1202595Y491876D01*
X1202612Y491985D01*
X1202634Y492094D01*
X1202659Y492202D01*
X1202689Y492308D01*
X1202722Y492414D01*
X1202759Y492519D01*
X1202799Y492622D01*
X1202844Y492723D01*
X1202891Y492823D01*
X1202943Y492922D01*
X1202998Y493018D01*
X1203056Y493112D01*
X1203117Y493204D01*
X1203182Y493294D01*
X1203250Y493382D01*
X1203321Y493467D01*
X1203395Y493549D01*
X1203472Y493629D01*
X1203552Y493706D01*
X1203634Y493780D01*
X1203719Y493851D01*
X1203807Y493919D01*
X1203897Y493984D01*
X1203989Y494045D01*
X1204083Y494103D01*
X1204179Y494158D01*
X1204278Y494210D01*
X1204378Y494257D01*
X1204479Y494302D01*
X1204582Y494342D01*
X1204687Y494379D01*
X1204793Y494412D01*
X1204899Y494442D01*
X1205007Y494467D01*
X1205116Y494489D01*
X1205225Y494506D01*
X1205335Y494520D01*
X1205446Y494530D01*
X1205556Y494536D01*
X1205667Y494538D01*
X1205778Y494536D01*
X1205888Y494530D01*
X1205999Y494520D01*
X1206109Y494506D01*
X1206218Y494489D01*
X1206327Y494467D01*
X1206435Y494442D01*
X1206541Y494412D01*
X1206647Y494379D01*
X1206752Y494342D01*
X1206855Y494302D01*
X1206956Y494257D01*
X1207056Y494210D01*
X1207155Y494158D01*
X1207251Y494103D01*
X1207345Y494045D01*
X1207437Y493984D01*
X1207527Y493919D01*
X1207615Y493851D01*
X1207700Y493780D01*
X1207782Y493706D01*
X1207862Y493629D01*
X1207939Y493549D01*
X1208013Y493467D01*
X1208084Y493382D01*
X1208152Y493294D01*
X1208217Y493204D01*
X1208278Y493112D01*
X1208336Y493018D01*
X1208391Y492922D01*
X1208443Y492823D01*
X1208490Y492723D01*
X1208535Y492622D01*
X1208575Y492519D01*
X1208612Y492414D01*
X1208645Y492308D01*
X1208675Y492202D01*
X1208700Y492094D01*
X1208722Y491985D01*
X1208739Y491876D01*
X1208753Y491766D01*
X1208763Y491655D01*
X1208769Y491545D01*
X1208771Y491434D01*
X1208772Y491434D02*
X1208772Y486466D01*
X1208771Y486466D02*
X1208769Y486355D01*
X1208763Y486245D01*
X1208753Y486134D01*
X1208739Y486024D01*
X1208722Y485915D01*
X1208700Y485806D01*
X1208675Y485698D01*
X1208645Y485592D01*
X1208612Y485486D01*
X1208575Y485381D01*
X1208535Y485278D01*
X1208490Y485177D01*
X1208443Y485077D01*
X1208391Y484978D01*
X1208336Y484882D01*
X1208278Y484788D01*
X1208217Y484696D01*
X1208152Y484606D01*
X1208084Y484518D01*
X1208013Y484433D01*
X1207939Y484351D01*
X1207862Y484271D01*
X1207782Y484194D01*
X1207700Y484120D01*
X1207615Y484049D01*
X1207527Y483981D01*
X1207437Y483916D01*
X1207345Y483855D01*
X1207251Y483797D01*
X1207155Y483742D01*
X1207056Y483690D01*
X1206956Y483643D01*
X1206855Y483598D01*
X1206752Y483558D01*
X1206647Y483521D01*
X1206541Y483488D01*
X1206435Y483458D01*
X1206327Y483433D01*
X1206218Y483411D01*
X1206109Y483394D01*
X1205999Y483380D01*
X1205888Y483370D01*
X1205778Y483364D01*
X1205667Y483362D01*
X1205556Y483364D01*
X1205446Y483370D01*
X1205335Y483380D01*
X1205225Y483394D01*
X1205116Y483411D01*
X1205007Y483433D01*
X1204899Y483458D01*
X1204793Y483488D01*
X1204687Y483521D01*
X1204582Y483558D01*
X1204479Y483598D01*
X1204378Y483643D01*
X1204278Y483690D01*
X1204179Y483742D01*
X1204083Y483797D01*
X1203989Y483855D01*
X1203897Y483916D01*
X1203807Y483981D01*
X1203719Y484049D01*
X1203634Y484120D01*
X1203552Y484194D01*
X1203472Y484271D01*
X1203395Y484351D01*
X1203321Y484433D01*
X1203250Y484518D01*
X1203182Y484606D01*
X1203117Y484696D01*
X1203056Y484788D01*
X1202998Y484882D01*
X1202943Y484978D01*
X1202891Y485077D01*
X1202844Y485177D01*
X1202799Y485278D01*
X1202759Y485381D01*
X1202722Y485486D01*
X1202689Y485592D01*
X1202659Y485698D01*
X1202634Y485806D01*
X1202612Y485915D01*
X1202595Y486024D01*
X1202581Y486134D01*
X1202571Y486245D01*
X1202565Y486355D01*
X1202563Y486466D01*
X1214233Y483362D02*
X1214233Y490813D01*
X1217337Y490813D01*
X1217421Y490811D01*
X1217504Y490806D01*
X1217587Y490796D01*
X1217670Y490783D01*
X1217752Y490766D01*
X1217833Y490746D01*
X1217913Y490722D01*
X1217992Y490694D01*
X1218069Y490663D01*
X1218145Y490629D01*
X1218220Y490591D01*
X1218293Y490549D01*
X1218363Y490505D01*
X1218432Y490457D01*
X1218499Y490407D01*
X1218563Y490353D01*
X1218624Y490297D01*
X1218684Y490237D01*
X1218740Y490176D01*
X1218794Y490112D01*
X1218844Y490045D01*
X1218892Y489976D01*
X1218936Y489906D01*
X1218978Y489833D01*
X1219016Y489758D01*
X1219050Y489682D01*
X1219081Y489605D01*
X1219109Y489526D01*
X1219133Y489446D01*
X1219153Y489365D01*
X1219170Y489283D01*
X1219183Y489200D01*
X1219193Y489117D01*
X1219198Y489034D01*
X1219200Y488950D01*
X1219200Y483362D01*
X1161429Y267462D02*
X1158946Y267462D01*
X1158848Y267464D01*
X1158751Y267470D01*
X1158654Y267479D01*
X1158557Y267493D01*
X1158461Y267510D01*
X1158366Y267531D01*
X1158272Y267555D01*
X1158178Y267584D01*
X1158086Y267616D01*
X1157995Y267651D01*
X1157906Y267690D01*
X1157818Y267733D01*
X1157732Y267779D01*
X1157648Y267828D01*
X1157566Y267881D01*
X1157486Y267936D01*
X1157408Y267995D01*
X1157333Y268057D01*
X1157260Y268122D01*
X1157190Y268190D01*
X1157122Y268260D01*
X1157057Y268333D01*
X1156995Y268408D01*
X1156936Y268486D01*
X1156881Y268566D01*
X1156828Y268648D01*
X1156779Y268732D01*
X1156733Y268818D01*
X1156690Y268906D01*
X1156651Y268995D01*
X1156616Y269086D01*
X1156584Y269178D01*
X1156555Y269272D01*
X1156531Y269366D01*
X1156510Y269461D01*
X1156493Y269557D01*
X1156479Y269654D01*
X1156470Y269751D01*
X1156464Y269848D01*
X1156462Y269946D01*
X1156462Y276154D01*
X1156464Y276252D01*
X1156470Y276349D01*
X1156479Y276446D01*
X1156493Y276543D01*
X1156510Y276639D01*
X1156531Y276734D01*
X1156555Y276828D01*
X1156584Y276922D01*
X1156616Y277014D01*
X1156651Y277105D01*
X1156690Y277194D01*
X1156733Y277282D01*
X1156779Y277368D01*
X1156828Y277452D01*
X1156881Y277534D01*
X1156936Y277614D01*
X1156995Y277692D01*
X1157057Y277767D01*
X1157122Y277840D01*
X1157190Y277910D01*
X1157260Y277978D01*
X1157333Y278043D01*
X1157408Y278105D01*
X1157486Y278164D01*
X1157566Y278219D01*
X1157648Y278272D01*
X1157732Y278321D01*
X1157818Y278367D01*
X1157906Y278410D01*
X1157995Y278449D01*
X1158086Y278484D01*
X1158178Y278516D01*
X1158272Y278545D01*
X1158366Y278569D01*
X1158461Y278590D01*
X1158557Y278607D01*
X1158654Y278621D01*
X1158751Y278630D01*
X1158848Y278636D01*
X1158946Y278638D01*
X1161429Y278638D01*
X1166268Y278638D02*
X1166268Y267462D01*
X1166268Y274913D02*
X1169373Y274913D01*
X1169457Y274911D01*
X1169540Y274906D01*
X1169623Y274896D01*
X1169706Y274883D01*
X1169788Y274866D01*
X1169869Y274846D01*
X1169949Y274822D01*
X1170028Y274794D01*
X1170105Y274763D01*
X1170181Y274729D01*
X1170256Y274691D01*
X1170329Y274649D01*
X1170399Y274605D01*
X1170468Y274557D01*
X1170535Y274507D01*
X1170599Y274453D01*
X1170660Y274397D01*
X1170720Y274337D01*
X1170776Y274276D01*
X1170830Y274212D01*
X1170880Y274145D01*
X1170928Y274076D01*
X1170972Y274006D01*
X1171014Y273933D01*
X1171052Y273858D01*
X1171086Y273782D01*
X1171117Y273705D01*
X1171145Y273626D01*
X1171169Y273546D01*
X1171189Y273465D01*
X1171206Y273383D01*
X1171219Y273300D01*
X1171229Y273217D01*
X1171234Y273134D01*
X1171236Y273050D01*
X1171235Y273050D02*
X1171235Y267462D01*
X1178655Y271808D02*
X1181449Y271808D01*
X1178655Y271808D02*
X1178563Y271806D01*
X1178471Y271800D01*
X1178379Y271790D01*
X1178288Y271777D01*
X1178197Y271759D01*
X1178107Y271738D01*
X1178019Y271713D01*
X1177931Y271684D01*
X1177845Y271651D01*
X1177760Y271615D01*
X1177677Y271575D01*
X1177595Y271532D01*
X1177516Y271485D01*
X1177438Y271435D01*
X1177363Y271382D01*
X1177290Y271326D01*
X1177219Y271266D01*
X1177151Y271204D01*
X1177086Y271139D01*
X1177024Y271071D01*
X1176964Y271000D01*
X1176908Y270927D01*
X1176855Y270852D01*
X1176805Y270774D01*
X1176758Y270695D01*
X1176715Y270613D01*
X1176675Y270530D01*
X1176639Y270445D01*
X1176606Y270359D01*
X1176577Y270271D01*
X1176552Y270183D01*
X1176531Y270093D01*
X1176513Y270002D01*
X1176500Y269911D01*
X1176490Y269819D01*
X1176484Y269727D01*
X1176482Y269635D01*
X1176484Y269543D01*
X1176490Y269451D01*
X1176500Y269359D01*
X1176513Y269268D01*
X1176531Y269177D01*
X1176552Y269087D01*
X1176577Y268999D01*
X1176606Y268911D01*
X1176639Y268825D01*
X1176675Y268740D01*
X1176715Y268657D01*
X1176758Y268575D01*
X1176805Y268496D01*
X1176855Y268418D01*
X1176908Y268343D01*
X1176964Y268270D01*
X1177024Y268199D01*
X1177086Y268131D01*
X1177151Y268066D01*
X1177219Y268004D01*
X1177290Y267944D01*
X1177363Y267888D01*
X1177438Y267835D01*
X1177516Y267785D01*
X1177595Y267738D01*
X1177677Y267695D01*
X1177760Y267655D01*
X1177845Y267619D01*
X1177931Y267586D01*
X1178019Y267557D01*
X1178107Y267532D01*
X1178197Y267511D01*
X1178288Y267493D01*
X1178379Y267480D01*
X1178471Y267470D01*
X1178563Y267464D01*
X1178655Y267462D01*
X1181449Y267462D01*
X1181449Y273050D01*
X1181447Y273134D01*
X1181442Y273217D01*
X1181432Y273300D01*
X1181419Y273383D01*
X1181402Y273465D01*
X1181382Y273546D01*
X1181358Y273626D01*
X1181330Y273705D01*
X1181299Y273782D01*
X1181265Y273858D01*
X1181227Y273933D01*
X1181185Y274006D01*
X1181141Y274076D01*
X1181093Y274145D01*
X1181043Y274212D01*
X1180989Y274276D01*
X1180933Y274337D01*
X1180873Y274397D01*
X1180812Y274453D01*
X1180748Y274507D01*
X1180681Y274557D01*
X1180612Y274605D01*
X1180542Y274649D01*
X1180469Y274691D01*
X1180394Y274729D01*
X1180318Y274763D01*
X1180241Y274794D01*
X1180162Y274822D01*
X1180082Y274846D01*
X1180001Y274866D01*
X1179919Y274883D01*
X1179836Y274896D01*
X1179753Y274906D01*
X1179670Y274911D01*
X1179586Y274913D01*
X1177103Y274913D01*
X1187223Y274913D02*
X1187223Y267462D01*
X1187223Y274913D02*
X1190328Y274913D01*
X1190412Y274911D01*
X1190495Y274906D01*
X1190578Y274896D01*
X1190661Y274883D01*
X1190743Y274866D01*
X1190824Y274846D01*
X1190904Y274822D01*
X1190983Y274794D01*
X1191060Y274763D01*
X1191136Y274729D01*
X1191211Y274691D01*
X1191284Y274649D01*
X1191354Y274605D01*
X1191423Y274557D01*
X1191490Y274507D01*
X1191554Y274453D01*
X1191615Y274397D01*
X1191675Y274337D01*
X1191731Y274276D01*
X1191785Y274212D01*
X1191835Y274145D01*
X1191883Y274076D01*
X1191927Y274006D01*
X1191969Y273933D01*
X1192007Y273858D01*
X1192041Y273782D01*
X1192072Y273705D01*
X1192100Y273626D01*
X1192124Y273546D01*
X1192144Y273465D01*
X1192161Y273383D01*
X1192174Y273300D01*
X1192184Y273217D01*
X1192189Y273134D01*
X1192191Y273050D01*
X1192190Y273050D02*
X1192190Y267462D01*
X1199299Y267462D02*
X1202404Y267462D01*
X1199299Y267462D02*
X1199215Y267464D01*
X1199132Y267469D01*
X1199049Y267479D01*
X1198966Y267492D01*
X1198884Y267509D01*
X1198803Y267529D01*
X1198723Y267553D01*
X1198644Y267581D01*
X1198567Y267612D01*
X1198491Y267646D01*
X1198416Y267684D01*
X1198343Y267726D01*
X1198273Y267770D01*
X1198204Y267818D01*
X1198137Y267868D01*
X1198073Y267922D01*
X1198012Y267978D01*
X1197952Y268038D01*
X1197896Y268099D01*
X1197842Y268163D01*
X1197792Y268230D01*
X1197744Y268299D01*
X1197700Y268369D01*
X1197658Y268442D01*
X1197620Y268517D01*
X1197586Y268593D01*
X1197555Y268670D01*
X1197527Y268749D01*
X1197503Y268829D01*
X1197483Y268910D01*
X1197466Y268992D01*
X1197453Y269075D01*
X1197443Y269158D01*
X1197438Y269241D01*
X1197436Y269325D01*
X1197437Y269325D02*
X1197437Y273050D01*
X1197436Y273050D02*
X1197438Y273134D01*
X1197444Y273217D01*
X1197453Y273300D01*
X1197466Y273383D01*
X1197483Y273465D01*
X1197503Y273546D01*
X1197527Y273626D01*
X1197555Y273705D01*
X1197586Y273782D01*
X1197620Y273858D01*
X1197658Y273933D01*
X1197700Y274006D01*
X1197744Y274076D01*
X1197792Y274145D01*
X1197842Y274212D01*
X1197896Y274276D01*
X1197952Y274337D01*
X1198012Y274397D01*
X1198073Y274453D01*
X1198137Y274507D01*
X1198204Y274557D01*
X1198273Y274605D01*
X1198343Y274649D01*
X1198416Y274691D01*
X1198491Y274729D01*
X1198567Y274763D01*
X1198644Y274794D01*
X1198723Y274822D01*
X1198803Y274846D01*
X1198884Y274866D01*
X1198966Y274883D01*
X1199049Y274896D01*
X1199132Y274906D01*
X1199215Y274911D01*
X1199299Y274913D01*
X1202404Y274913D01*
X1202404Y265599D01*
X1202402Y265513D01*
X1202396Y265427D01*
X1202386Y265342D01*
X1202372Y265257D01*
X1202355Y265172D01*
X1202333Y265089D01*
X1202307Y265007D01*
X1202278Y264926D01*
X1202245Y264847D01*
X1202209Y264769D01*
X1202169Y264692D01*
X1202125Y264618D01*
X1202078Y264546D01*
X1202028Y264476D01*
X1201974Y264409D01*
X1201918Y264344D01*
X1201858Y264282D01*
X1201796Y264222D01*
X1201731Y264166D01*
X1201664Y264112D01*
X1201594Y264062D01*
X1201522Y264015D01*
X1201448Y263971D01*
X1201371Y263931D01*
X1201294Y263895D01*
X1201214Y263862D01*
X1201133Y263833D01*
X1201051Y263807D01*
X1200968Y263785D01*
X1200883Y263768D01*
X1200798Y263754D01*
X1200713Y263744D01*
X1200627Y263738D01*
X1200541Y263736D01*
X1200541Y263737D02*
X1198058Y263737D01*
X1209660Y267462D02*
X1212764Y267462D01*
X1209660Y267462D02*
X1209576Y267464D01*
X1209493Y267469D01*
X1209410Y267479D01*
X1209327Y267492D01*
X1209245Y267509D01*
X1209164Y267529D01*
X1209084Y267553D01*
X1209005Y267581D01*
X1208928Y267612D01*
X1208852Y267646D01*
X1208777Y267684D01*
X1208704Y267726D01*
X1208634Y267770D01*
X1208565Y267818D01*
X1208498Y267868D01*
X1208434Y267922D01*
X1208373Y267978D01*
X1208313Y268038D01*
X1208257Y268099D01*
X1208203Y268163D01*
X1208153Y268230D01*
X1208105Y268299D01*
X1208061Y268369D01*
X1208019Y268442D01*
X1207981Y268517D01*
X1207947Y268593D01*
X1207916Y268670D01*
X1207888Y268749D01*
X1207864Y268829D01*
X1207844Y268910D01*
X1207827Y268992D01*
X1207814Y269075D01*
X1207804Y269158D01*
X1207799Y269241D01*
X1207797Y269325D01*
X1207797Y272429D01*
X1207799Y272528D01*
X1207805Y272626D01*
X1207815Y272725D01*
X1207828Y272822D01*
X1207846Y272920D01*
X1207867Y273016D01*
X1207893Y273112D01*
X1207922Y273206D01*
X1207954Y273299D01*
X1207991Y273391D01*
X1208031Y273481D01*
X1208075Y273570D01*
X1208122Y273657D01*
X1208172Y273742D01*
X1208226Y273824D01*
X1208283Y273905D01*
X1208343Y273983D01*
X1208407Y274059D01*
X1208473Y274132D01*
X1208542Y274203D01*
X1208614Y274271D01*
X1208689Y274335D01*
X1208766Y274397D01*
X1208845Y274456D01*
X1208927Y274511D01*
X1209011Y274564D01*
X1209096Y274612D01*
X1209184Y274658D01*
X1209274Y274700D01*
X1209365Y274738D01*
X1209457Y274772D01*
X1209551Y274803D01*
X1209646Y274830D01*
X1209742Y274854D01*
X1209839Y274873D01*
X1209936Y274889D01*
X1210034Y274901D01*
X1210133Y274909D01*
X1210232Y274913D01*
X1210330Y274913D01*
X1210429Y274909D01*
X1210528Y274901D01*
X1210626Y274889D01*
X1210723Y274873D01*
X1210820Y274854D01*
X1210916Y274830D01*
X1211011Y274803D01*
X1211105Y274772D01*
X1211197Y274738D01*
X1211288Y274700D01*
X1211378Y274658D01*
X1211466Y274612D01*
X1211551Y274564D01*
X1211635Y274511D01*
X1211717Y274456D01*
X1211796Y274397D01*
X1211873Y274335D01*
X1211948Y274271D01*
X1212020Y274203D01*
X1212089Y274132D01*
X1212155Y274059D01*
X1212219Y273983D01*
X1212279Y273905D01*
X1212336Y273824D01*
X1212390Y273742D01*
X1212440Y273657D01*
X1212487Y273570D01*
X1212531Y273481D01*
X1212571Y273391D01*
X1212608Y273299D01*
X1212640Y273206D01*
X1212669Y273112D01*
X1212695Y273016D01*
X1212716Y272920D01*
X1212734Y272822D01*
X1212747Y272725D01*
X1212757Y272626D01*
X1212763Y272528D01*
X1212765Y272429D01*
X1212764Y272429D02*
X1212764Y271187D01*
X1207797Y271187D01*
X1161429Y254762D02*
X1158946Y254762D01*
X1158848Y254764D01*
X1158751Y254770D01*
X1158654Y254779D01*
X1158557Y254793D01*
X1158461Y254810D01*
X1158366Y254831D01*
X1158272Y254855D01*
X1158178Y254884D01*
X1158086Y254916D01*
X1157995Y254951D01*
X1157906Y254990D01*
X1157818Y255033D01*
X1157732Y255079D01*
X1157648Y255128D01*
X1157566Y255181D01*
X1157486Y255236D01*
X1157408Y255295D01*
X1157333Y255357D01*
X1157260Y255422D01*
X1157190Y255490D01*
X1157122Y255560D01*
X1157057Y255633D01*
X1156995Y255708D01*
X1156936Y255786D01*
X1156881Y255866D01*
X1156828Y255948D01*
X1156779Y256032D01*
X1156733Y256118D01*
X1156690Y256206D01*
X1156651Y256295D01*
X1156616Y256386D01*
X1156584Y256478D01*
X1156555Y256572D01*
X1156531Y256666D01*
X1156510Y256761D01*
X1156493Y256857D01*
X1156479Y256954D01*
X1156470Y257051D01*
X1156464Y257148D01*
X1156462Y257246D01*
X1156462Y263454D01*
X1156464Y263552D01*
X1156470Y263649D01*
X1156479Y263746D01*
X1156493Y263843D01*
X1156510Y263939D01*
X1156531Y264034D01*
X1156555Y264128D01*
X1156584Y264222D01*
X1156616Y264314D01*
X1156651Y264405D01*
X1156690Y264494D01*
X1156733Y264582D01*
X1156779Y264668D01*
X1156828Y264752D01*
X1156881Y264834D01*
X1156936Y264914D01*
X1156995Y264992D01*
X1157057Y265067D01*
X1157122Y265140D01*
X1157190Y265210D01*
X1157260Y265278D01*
X1157333Y265343D01*
X1157408Y265405D01*
X1157486Y265464D01*
X1157566Y265519D01*
X1157648Y265572D01*
X1157732Y265621D01*
X1157818Y265667D01*
X1157906Y265710D01*
X1157995Y265749D01*
X1158086Y265784D01*
X1158178Y265816D01*
X1158272Y265845D01*
X1158366Y265869D01*
X1158461Y265890D01*
X1158557Y265907D01*
X1158654Y265921D01*
X1158751Y265930D01*
X1158848Y265936D01*
X1158946Y265938D01*
X1161429Y265938D01*
X1165887Y259729D02*
X1165887Y257246D01*
X1165887Y259729D02*
X1165889Y259828D01*
X1165895Y259926D01*
X1165905Y260025D01*
X1165918Y260122D01*
X1165936Y260220D01*
X1165957Y260316D01*
X1165983Y260412D01*
X1166012Y260506D01*
X1166044Y260599D01*
X1166081Y260691D01*
X1166121Y260781D01*
X1166165Y260870D01*
X1166212Y260957D01*
X1166262Y261042D01*
X1166316Y261124D01*
X1166373Y261205D01*
X1166433Y261283D01*
X1166497Y261359D01*
X1166563Y261432D01*
X1166632Y261503D01*
X1166704Y261571D01*
X1166779Y261635D01*
X1166856Y261697D01*
X1166935Y261756D01*
X1167017Y261811D01*
X1167101Y261864D01*
X1167186Y261912D01*
X1167274Y261958D01*
X1167364Y262000D01*
X1167455Y262038D01*
X1167547Y262072D01*
X1167641Y262103D01*
X1167736Y262130D01*
X1167832Y262154D01*
X1167929Y262173D01*
X1168026Y262189D01*
X1168124Y262201D01*
X1168223Y262209D01*
X1168322Y262213D01*
X1168420Y262213D01*
X1168519Y262209D01*
X1168618Y262201D01*
X1168716Y262189D01*
X1168813Y262173D01*
X1168910Y262154D01*
X1169006Y262130D01*
X1169101Y262103D01*
X1169195Y262072D01*
X1169287Y262038D01*
X1169378Y262000D01*
X1169468Y261958D01*
X1169556Y261912D01*
X1169641Y261864D01*
X1169725Y261811D01*
X1169807Y261756D01*
X1169886Y261697D01*
X1169963Y261635D01*
X1170038Y261571D01*
X1170110Y261503D01*
X1170179Y261432D01*
X1170245Y261359D01*
X1170309Y261283D01*
X1170369Y261205D01*
X1170426Y261124D01*
X1170480Y261042D01*
X1170530Y260957D01*
X1170577Y260870D01*
X1170621Y260781D01*
X1170661Y260691D01*
X1170698Y260599D01*
X1170730Y260506D01*
X1170759Y260412D01*
X1170785Y260316D01*
X1170806Y260220D01*
X1170824Y260122D01*
X1170837Y260025D01*
X1170847Y259926D01*
X1170853Y259828D01*
X1170855Y259729D01*
X1170854Y259729D02*
X1170854Y257246D01*
X1170855Y257246D02*
X1170853Y257147D01*
X1170847Y257049D01*
X1170837Y256950D01*
X1170824Y256853D01*
X1170806Y256755D01*
X1170785Y256659D01*
X1170759Y256563D01*
X1170730Y256469D01*
X1170698Y256376D01*
X1170661Y256284D01*
X1170621Y256194D01*
X1170577Y256105D01*
X1170530Y256018D01*
X1170480Y255933D01*
X1170426Y255851D01*
X1170369Y255770D01*
X1170309Y255692D01*
X1170245Y255616D01*
X1170179Y255543D01*
X1170110Y255472D01*
X1170038Y255404D01*
X1169963Y255340D01*
X1169886Y255278D01*
X1169807Y255219D01*
X1169725Y255164D01*
X1169641Y255111D01*
X1169556Y255063D01*
X1169468Y255017D01*
X1169378Y254975D01*
X1169287Y254937D01*
X1169195Y254903D01*
X1169101Y254872D01*
X1169006Y254845D01*
X1168910Y254821D01*
X1168813Y254802D01*
X1168716Y254786D01*
X1168618Y254774D01*
X1168519Y254766D01*
X1168420Y254762D01*
X1168322Y254762D01*
X1168223Y254766D01*
X1168124Y254774D01*
X1168026Y254786D01*
X1167929Y254802D01*
X1167832Y254821D01*
X1167736Y254845D01*
X1167641Y254872D01*
X1167547Y254903D01*
X1167455Y254937D01*
X1167364Y254975D01*
X1167274Y255017D01*
X1167186Y255063D01*
X1167101Y255111D01*
X1167017Y255164D01*
X1166935Y255219D01*
X1166856Y255278D01*
X1166779Y255340D01*
X1166704Y255404D01*
X1166632Y255472D01*
X1166563Y255543D01*
X1166497Y255616D01*
X1166433Y255692D01*
X1166373Y255770D01*
X1166316Y255851D01*
X1166262Y255933D01*
X1166212Y256018D01*
X1166165Y256105D01*
X1166121Y256194D01*
X1166081Y256284D01*
X1166044Y256376D01*
X1166012Y256469D01*
X1165983Y256563D01*
X1165957Y256659D01*
X1165936Y256755D01*
X1165918Y256853D01*
X1165905Y256950D01*
X1165895Y257049D01*
X1165889Y257147D01*
X1165887Y257246D01*
X1175885Y256625D02*
X1175885Y265938D01*
X1175885Y256625D02*
X1175887Y256541D01*
X1175892Y256458D01*
X1175902Y256375D01*
X1175915Y256292D01*
X1175932Y256210D01*
X1175952Y256129D01*
X1175976Y256049D01*
X1176004Y255970D01*
X1176035Y255893D01*
X1176069Y255817D01*
X1176107Y255742D01*
X1176149Y255669D01*
X1176193Y255599D01*
X1176241Y255530D01*
X1176291Y255463D01*
X1176345Y255399D01*
X1176401Y255338D01*
X1176461Y255278D01*
X1176522Y255222D01*
X1176586Y255168D01*
X1176653Y255118D01*
X1176722Y255070D01*
X1176792Y255026D01*
X1176865Y254984D01*
X1176940Y254946D01*
X1177016Y254912D01*
X1177093Y254881D01*
X1177172Y254853D01*
X1177252Y254829D01*
X1177333Y254809D01*
X1177415Y254792D01*
X1177498Y254779D01*
X1177581Y254769D01*
X1177664Y254764D01*
X1177748Y254762D01*
X1181889Y257246D02*
X1181889Y259729D01*
X1181891Y259828D01*
X1181897Y259926D01*
X1181907Y260025D01*
X1181920Y260122D01*
X1181938Y260220D01*
X1181959Y260316D01*
X1181985Y260412D01*
X1182014Y260506D01*
X1182046Y260599D01*
X1182083Y260691D01*
X1182123Y260781D01*
X1182167Y260870D01*
X1182214Y260957D01*
X1182264Y261042D01*
X1182318Y261124D01*
X1182375Y261205D01*
X1182435Y261283D01*
X1182499Y261359D01*
X1182565Y261432D01*
X1182634Y261503D01*
X1182706Y261571D01*
X1182781Y261635D01*
X1182858Y261697D01*
X1182937Y261756D01*
X1183019Y261811D01*
X1183103Y261864D01*
X1183188Y261912D01*
X1183276Y261958D01*
X1183366Y262000D01*
X1183457Y262038D01*
X1183549Y262072D01*
X1183643Y262103D01*
X1183738Y262130D01*
X1183834Y262154D01*
X1183931Y262173D01*
X1184028Y262189D01*
X1184126Y262201D01*
X1184225Y262209D01*
X1184324Y262213D01*
X1184422Y262213D01*
X1184521Y262209D01*
X1184620Y262201D01*
X1184718Y262189D01*
X1184815Y262173D01*
X1184912Y262154D01*
X1185008Y262130D01*
X1185103Y262103D01*
X1185197Y262072D01*
X1185289Y262038D01*
X1185380Y262000D01*
X1185470Y261958D01*
X1185558Y261912D01*
X1185643Y261864D01*
X1185727Y261811D01*
X1185809Y261756D01*
X1185888Y261697D01*
X1185965Y261635D01*
X1186040Y261571D01*
X1186112Y261503D01*
X1186181Y261432D01*
X1186247Y261359D01*
X1186311Y261283D01*
X1186371Y261205D01*
X1186428Y261124D01*
X1186482Y261042D01*
X1186532Y260957D01*
X1186579Y260870D01*
X1186623Y260781D01*
X1186663Y260691D01*
X1186700Y260599D01*
X1186732Y260506D01*
X1186761Y260412D01*
X1186787Y260316D01*
X1186808Y260220D01*
X1186826Y260122D01*
X1186839Y260025D01*
X1186849Y259926D01*
X1186855Y259828D01*
X1186857Y259729D01*
X1186856Y259729D02*
X1186856Y257246D01*
X1186857Y257246D02*
X1186855Y257147D01*
X1186849Y257049D01*
X1186839Y256950D01*
X1186826Y256853D01*
X1186808Y256755D01*
X1186787Y256659D01*
X1186761Y256563D01*
X1186732Y256469D01*
X1186700Y256376D01*
X1186663Y256284D01*
X1186623Y256194D01*
X1186579Y256105D01*
X1186532Y256018D01*
X1186482Y255933D01*
X1186428Y255851D01*
X1186371Y255770D01*
X1186311Y255692D01*
X1186247Y255616D01*
X1186181Y255543D01*
X1186112Y255472D01*
X1186040Y255404D01*
X1185965Y255340D01*
X1185888Y255278D01*
X1185809Y255219D01*
X1185727Y255164D01*
X1185643Y255111D01*
X1185558Y255063D01*
X1185470Y255017D01*
X1185380Y254975D01*
X1185289Y254937D01*
X1185197Y254903D01*
X1185103Y254872D01*
X1185008Y254845D01*
X1184912Y254821D01*
X1184815Y254802D01*
X1184718Y254786D01*
X1184620Y254774D01*
X1184521Y254766D01*
X1184422Y254762D01*
X1184324Y254762D01*
X1184225Y254766D01*
X1184126Y254774D01*
X1184028Y254786D01*
X1183931Y254802D01*
X1183834Y254821D01*
X1183738Y254845D01*
X1183643Y254872D01*
X1183549Y254903D01*
X1183457Y254937D01*
X1183366Y254975D01*
X1183276Y255017D01*
X1183188Y255063D01*
X1183103Y255111D01*
X1183019Y255164D01*
X1182937Y255219D01*
X1182858Y255278D01*
X1182781Y255340D01*
X1182706Y255404D01*
X1182634Y255472D01*
X1182565Y255543D01*
X1182499Y255616D01*
X1182435Y255692D01*
X1182375Y255770D01*
X1182318Y255851D01*
X1182264Y255933D01*
X1182214Y256018D01*
X1182167Y256105D01*
X1182123Y256194D01*
X1182083Y256284D01*
X1182046Y256376D01*
X1182014Y256469D01*
X1181985Y256563D01*
X1181959Y256659D01*
X1181938Y256755D01*
X1181920Y256853D01*
X1181907Y256950D01*
X1181897Y257049D01*
X1181891Y257147D01*
X1181889Y257246D01*
X1192259Y254762D02*
X1192259Y262213D01*
X1195985Y262213D01*
X1195985Y260971D01*
D11*
X965200Y477520D02*
X965200Y487680D01*
D10*
X953262Y496062D02*
X953262Y507238D01*
X956366Y507238D01*
X956477Y507236D01*
X956587Y507230D01*
X956698Y507220D01*
X956808Y507206D01*
X956917Y507189D01*
X957026Y507167D01*
X957134Y507142D01*
X957240Y507112D01*
X957346Y507079D01*
X957451Y507042D01*
X957554Y507002D01*
X957655Y506957D01*
X957755Y506910D01*
X957854Y506858D01*
X957950Y506803D01*
X958044Y506745D01*
X958136Y506684D01*
X958226Y506619D01*
X958314Y506551D01*
X958399Y506480D01*
X958481Y506406D01*
X958561Y506329D01*
X958638Y506249D01*
X958712Y506167D01*
X958783Y506082D01*
X958851Y505994D01*
X958916Y505904D01*
X958977Y505812D01*
X959035Y505718D01*
X959090Y505622D01*
X959142Y505523D01*
X959189Y505423D01*
X959234Y505322D01*
X959274Y505219D01*
X959311Y505114D01*
X959344Y505008D01*
X959374Y504902D01*
X959399Y504794D01*
X959421Y504685D01*
X959438Y504576D01*
X959452Y504466D01*
X959462Y504355D01*
X959468Y504245D01*
X959470Y504134D01*
X959468Y504023D01*
X959462Y503913D01*
X959452Y503802D01*
X959438Y503692D01*
X959421Y503583D01*
X959399Y503474D01*
X959374Y503366D01*
X959344Y503260D01*
X959311Y503154D01*
X959274Y503049D01*
X959234Y502946D01*
X959189Y502845D01*
X959142Y502745D01*
X959090Y502646D01*
X959035Y502550D01*
X958977Y502456D01*
X958916Y502364D01*
X958851Y502274D01*
X958783Y502186D01*
X958712Y502101D01*
X958638Y502019D01*
X958561Y501939D01*
X958481Y501862D01*
X958399Y501788D01*
X958314Y501717D01*
X958226Y501649D01*
X958136Y501584D01*
X958044Y501523D01*
X957950Y501465D01*
X957854Y501410D01*
X957755Y501358D01*
X957655Y501311D01*
X957554Y501266D01*
X957451Y501226D01*
X957346Y501189D01*
X957240Y501156D01*
X957134Y501126D01*
X957026Y501101D01*
X956917Y501079D01*
X956808Y501062D01*
X956698Y501048D01*
X956587Y501038D01*
X956477Y501032D01*
X956366Y501030D01*
X956366Y501029D02*
X953262Y501029D01*
X956987Y501029D02*
X959471Y496062D01*
X964600Y496062D02*
X967704Y496062D01*
X967815Y496064D01*
X967925Y496070D01*
X968036Y496080D01*
X968146Y496094D01*
X968255Y496111D01*
X968364Y496133D01*
X968472Y496158D01*
X968578Y496188D01*
X968684Y496221D01*
X968789Y496258D01*
X968892Y496298D01*
X968993Y496343D01*
X969093Y496390D01*
X969192Y496442D01*
X969288Y496497D01*
X969382Y496555D01*
X969474Y496616D01*
X969564Y496681D01*
X969652Y496749D01*
X969737Y496820D01*
X969819Y496894D01*
X969899Y496971D01*
X969976Y497051D01*
X970050Y497133D01*
X970121Y497218D01*
X970189Y497306D01*
X970254Y497396D01*
X970315Y497488D01*
X970373Y497582D01*
X970428Y497678D01*
X970480Y497777D01*
X970527Y497877D01*
X970572Y497978D01*
X970612Y498081D01*
X970649Y498186D01*
X970682Y498292D01*
X970712Y498398D01*
X970737Y498506D01*
X970759Y498615D01*
X970776Y498724D01*
X970790Y498834D01*
X970800Y498945D01*
X970806Y499055D01*
X970808Y499166D01*
X970806Y499277D01*
X970800Y499387D01*
X970790Y499498D01*
X970776Y499608D01*
X970759Y499717D01*
X970737Y499826D01*
X970712Y499934D01*
X970682Y500040D01*
X970649Y500146D01*
X970612Y500251D01*
X970572Y500354D01*
X970527Y500455D01*
X970480Y500555D01*
X970428Y500654D01*
X970373Y500750D01*
X970315Y500844D01*
X970254Y500936D01*
X970189Y501026D01*
X970121Y501114D01*
X970050Y501199D01*
X969976Y501281D01*
X969899Y501361D01*
X969819Y501438D01*
X969737Y501512D01*
X969652Y501583D01*
X969564Y501651D01*
X969474Y501716D01*
X969382Y501777D01*
X969288Y501835D01*
X969192Y501890D01*
X969093Y501942D01*
X968993Y501989D01*
X968892Y502034D01*
X968789Y502074D01*
X968684Y502111D01*
X968578Y502144D01*
X968472Y502174D01*
X968364Y502199D01*
X968255Y502221D01*
X968146Y502238D01*
X968036Y502252D01*
X967925Y502262D01*
X967815Y502268D01*
X967704Y502270D01*
X968325Y507238D02*
X964600Y507238D01*
X968325Y507238D02*
X968424Y507236D01*
X968522Y507230D01*
X968621Y507220D01*
X968718Y507207D01*
X968816Y507189D01*
X968912Y507168D01*
X969008Y507142D01*
X969102Y507113D01*
X969195Y507081D01*
X969287Y507044D01*
X969377Y507004D01*
X969466Y506960D01*
X969553Y506913D01*
X969638Y506863D01*
X969720Y506809D01*
X969801Y506752D01*
X969879Y506692D01*
X969955Y506628D01*
X970028Y506562D01*
X970099Y506493D01*
X970167Y506421D01*
X970231Y506346D01*
X970293Y506269D01*
X970352Y506190D01*
X970407Y506108D01*
X970460Y506024D01*
X970508Y505939D01*
X970554Y505851D01*
X970596Y505761D01*
X970634Y505670D01*
X970668Y505578D01*
X970699Y505484D01*
X970726Y505389D01*
X970750Y505293D01*
X970769Y505196D01*
X970785Y505099D01*
X970797Y505001D01*
X970805Y504902D01*
X970809Y504803D01*
X970809Y504705D01*
X970805Y504606D01*
X970797Y504507D01*
X970785Y504409D01*
X970769Y504312D01*
X970750Y504215D01*
X970726Y504119D01*
X970699Y504024D01*
X970668Y503930D01*
X970634Y503838D01*
X970596Y503747D01*
X970554Y503657D01*
X970508Y503569D01*
X970460Y503484D01*
X970407Y503400D01*
X970352Y503318D01*
X970293Y503239D01*
X970231Y503162D01*
X970167Y503087D01*
X970099Y503015D01*
X970028Y502946D01*
X969955Y502880D01*
X969879Y502816D01*
X969801Y502756D01*
X969720Y502699D01*
X969638Y502645D01*
X969553Y502595D01*
X969466Y502548D01*
X969377Y502504D01*
X969287Y502464D01*
X969195Y502427D01*
X969102Y502395D01*
X969008Y502366D01*
X968912Y502340D01*
X968816Y502319D01*
X968718Y502301D01*
X968621Y502288D01*
X968522Y502278D01*
X968424Y502272D01*
X968325Y502270D01*
X968325Y502271D02*
X965842Y502271D01*
D11*
X965200Y271780D02*
X965200Y261620D01*
D10*
X953262Y280162D02*
X953262Y291338D01*
X956366Y291338D01*
X956477Y291336D01*
X956587Y291330D01*
X956698Y291320D01*
X956808Y291306D01*
X956917Y291289D01*
X957026Y291267D01*
X957134Y291242D01*
X957240Y291212D01*
X957346Y291179D01*
X957451Y291142D01*
X957554Y291102D01*
X957655Y291057D01*
X957755Y291010D01*
X957854Y290958D01*
X957950Y290903D01*
X958044Y290845D01*
X958136Y290784D01*
X958226Y290719D01*
X958314Y290651D01*
X958399Y290580D01*
X958481Y290506D01*
X958561Y290429D01*
X958638Y290349D01*
X958712Y290267D01*
X958783Y290182D01*
X958851Y290094D01*
X958916Y290004D01*
X958977Y289912D01*
X959035Y289818D01*
X959090Y289722D01*
X959142Y289623D01*
X959189Y289523D01*
X959234Y289422D01*
X959274Y289319D01*
X959311Y289214D01*
X959344Y289108D01*
X959374Y289002D01*
X959399Y288894D01*
X959421Y288785D01*
X959438Y288676D01*
X959452Y288566D01*
X959462Y288455D01*
X959468Y288345D01*
X959470Y288234D01*
X959468Y288123D01*
X959462Y288013D01*
X959452Y287902D01*
X959438Y287792D01*
X959421Y287683D01*
X959399Y287574D01*
X959374Y287466D01*
X959344Y287360D01*
X959311Y287254D01*
X959274Y287149D01*
X959234Y287046D01*
X959189Y286945D01*
X959142Y286845D01*
X959090Y286746D01*
X959035Y286650D01*
X958977Y286556D01*
X958916Y286464D01*
X958851Y286374D01*
X958783Y286286D01*
X958712Y286201D01*
X958638Y286119D01*
X958561Y286039D01*
X958481Y285962D01*
X958399Y285888D01*
X958314Y285817D01*
X958226Y285749D01*
X958136Y285684D01*
X958044Y285623D01*
X957950Y285565D01*
X957854Y285510D01*
X957755Y285458D01*
X957655Y285411D01*
X957554Y285366D01*
X957451Y285326D01*
X957346Y285289D01*
X957240Y285256D01*
X957134Y285226D01*
X957026Y285201D01*
X956917Y285179D01*
X956808Y285162D01*
X956698Y285148D01*
X956587Y285138D01*
X956477Y285132D01*
X956366Y285130D01*
X956366Y285129D02*
X953262Y285129D01*
X956987Y285129D02*
X959471Y280162D01*
X964600Y282646D02*
X967084Y291338D01*
X964600Y282646D02*
X970809Y282646D01*
X968946Y285129D02*
X968946Y280162D01*
D12*
X1044145Y266700D02*
X1044156Y267568D01*
X1044188Y268435D01*
X1044241Y269301D01*
X1044315Y270165D01*
X1044411Y271028D01*
X1044528Y271888D01*
X1044666Y272744D01*
X1044824Y273597D01*
X1045004Y274446D01*
X1045205Y275291D01*
X1045426Y276130D01*
X1045667Y276963D01*
X1045929Y277790D01*
X1046212Y278611D01*
X1046514Y279424D01*
X1046836Y280230D01*
X1047178Y281027D01*
X1047539Y281816D01*
X1047920Y282596D01*
X1048320Y283366D01*
X1048738Y284126D01*
X1049175Y284876D01*
X1049630Y285615D01*
X1050103Y286342D01*
X1050594Y287058D01*
X1051103Y287761D01*
X1051628Y288452D01*
X1052170Y289129D01*
X1052729Y289793D01*
X1053304Y290443D01*
X1053894Y291079D01*
X1054500Y291700D01*
X1055121Y292306D01*
X1055757Y292896D01*
X1056407Y293471D01*
X1057071Y294030D01*
X1057748Y294572D01*
X1058439Y295097D01*
X1059142Y295606D01*
X1059858Y296097D01*
X1060585Y296570D01*
X1061324Y297025D01*
X1062074Y297462D01*
X1062834Y297880D01*
X1063604Y298280D01*
X1064384Y298661D01*
X1065173Y299022D01*
X1065970Y299364D01*
X1066776Y299686D01*
X1067589Y299988D01*
X1068410Y300271D01*
X1069237Y300533D01*
X1070070Y300774D01*
X1070909Y300995D01*
X1071754Y301196D01*
X1072603Y301376D01*
X1073456Y301534D01*
X1074312Y301672D01*
X1075172Y301789D01*
X1076035Y301885D01*
X1076899Y301959D01*
X1077765Y302012D01*
X1078632Y302044D01*
X1079500Y302055D01*
X1080368Y302044D01*
X1081235Y302012D01*
X1082101Y301959D01*
X1082965Y301885D01*
X1083828Y301789D01*
X1084688Y301672D01*
X1085544Y301534D01*
X1086397Y301376D01*
X1087246Y301196D01*
X1088091Y300995D01*
X1088930Y300774D01*
X1089763Y300533D01*
X1090590Y300271D01*
X1091411Y299988D01*
X1092224Y299686D01*
X1093030Y299364D01*
X1093827Y299022D01*
X1094616Y298661D01*
X1095396Y298280D01*
X1096166Y297880D01*
X1096926Y297462D01*
X1097676Y297025D01*
X1098415Y296570D01*
X1099142Y296097D01*
X1099858Y295606D01*
X1100561Y295097D01*
X1101252Y294572D01*
X1101929Y294030D01*
X1102593Y293471D01*
X1103243Y292896D01*
X1103879Y292306D01*
X1104500Y291700D01*
X1105106Y291079D01*
X1105696Y290443D01*
X1106271Y289793D01*
X1106830Y289129D01*
X1107372Y288452D01*
X1107897Y287761D01*
X1108406Y287058D01*
X1108897Y286342D01*
X1109370Y285615D01*
X1109825Y284876D01*
X1110262Y284126D01*
X1110680Y283366D01*
X1111080Y282596D01*
X1111461Y281816D01*
X1111822Y281027D01*
X1112164Y280230D01*
X1112486Y279424D01*
X1112788Y278611D01*
X1113071Y277790D01*
X1113333Y276963D01*
X1113574Y276130D01*
X1113795Y275291D01*
X1113996Y274446D01*
X1114176Y273597D01*
X1114334Y272744D01*
X1114472Y271888D01*
X1114589Y271028D01*
X1114685Y270165D01*
X1114759Y269301D01*
X1114812Y268435D01*
X1114844Y267568D01*
X1114855Y266700D01*
X1114844Y265832D01*
X1114812Y264965D01*
X1114759Y264099D01*
X1114685Y263235D01*
X1114589Y262372D01*
X1114472Y261512D01*
X1114334Y260656D01*
X1114176Y259803D01*
X1113996Y258954D01*
X1113795Y258109D01*
X1113574Y257270D01*
X1113333Y256437D01*
X1113071Y255610D01*
X1112788Y254789D01*
X1112486Y253976D01*
X1112164Y253170D01*
X1111822Y252373D01*
X1111461Y251584D01*
X1111080Y250804D01*
X1110680Y250034D01*
X1110262Y249274D01*
X1109825Y248524D01*
X1109370Y247785D01*
X1108897Y247058D01*
X1108406Y246342D01*
X1107897Y245639D01*
X1107372Y244948D01*
X1106830Y244271D01*
X1106271Y243607D01*
X1105696Y242957D01*
X1105106Y242321D01*
X1104500Y241700D01*
X1103879Y241094D01*
X1103243Y240504D01*
X1102593Y239929D01*
X1101929Y239370D01*
X1101252Y238828D01*
X1100561Y238303D01*
X1099858Y237794D01*
X1099142Y237303D01*
X1098415Y236830D01*
X1097676Y236375D01*
X1096926Y235938D01*
X1096166Y235520D01*
X1095396Y235120D01*
X1094616Y234739D01*
X1093827Y234378D01*
X1093030Y234036D01*
X1092224Y233714D01*
X1091411Y233412D01*
X1090590Y233129D01*
X1089763Y232867D01*
X1088930Y232626D01*
X1088091Y232405D01*
X1087246Y232204D01*
X1086397Y232024D01*
X1085544Y231866D01*
X1084688Y231728D01*
X1083828Y231611D01*
X1082965Y231515D01*
X1082101Y231441D01*
X1081235Y231388D01*
X1080368Y231356D01*
X1079500Y231345D01*
X1078632Y231356D01*
X1077765Y231388D01*
X1076899Y231441D01*
X1076035Y231515D01*
X1075172Y231611D01*
X1074312Y231728D01*
X1073456Y231866D01*
X1072603Y232024D01*
X1071754Y232204D01*
X1070909Y232405D01*
X1070070Y232626D01*
X1069237Y232867D01*
X1068410Y233129D01*
X1067589Y233412D01*
X1066776Y233714D01*
X1065970Y234036D01*
X1065173Y234378D01*
X1064384Y234739D01*
X1063604Y235120D01*
X1062834Y235520D01*
X1062074Y235938D01*
X1061324Y236375D01*
X1060585Y236830D01*
X1059858Y237303D01*
X1059142Y237794D01*
X1058439Y238303D01*
X1057748Y238828D01*
X1057071Y239370D01*
X1056407Y239929D01*
X1055757Y240504D01*
X1055121Y241094D01*
X1054500Y241700D01*
X1053894Y242321D01*
X1053304Y242957D01*
X1052729Y243607D01*
X1052170Y244271D01*
X1051628Y244948D01*
X1051103Y245639D01*
X1050594Y246342D01*
X1050103Y247058D01*
X1049630Y247785D01*
X1049175Y248524D01*
X1048738Y249274D01*
X1048320Y250034D01*
X1047920Y250804D01*
X1047539Y251584D01*
X1047178Y252373D01*
X1046836Y253170D01*
X1046514Y253976D01*
X1046212Y254789D01*
X1045929Y255610D01*
X1045667Y256437D01*
X1045426Y257270D01*
X1045205Y258109D01*
X1045004Y258954D01*
X1044824Y259803D01*
X1044666Y260656D01*
X1044528Y261512D01*
X1044411Y262372D01*
X1044315Y263235D01*
X1044241Y264099D01*
X1044188Y264965D01*
X1044156Y265832D01*
X1044145Y266700D01*
X1129500Y206700D02*
X1129742Y206703D01*
X1129983Y206712D01*
X1130224Y206726D01*
X1130465Y206747D01*
X1130705Y206773D01*
X1130945Y206805D01*
X1131184Y206843D01*
X1131421Y206886D01*
X1131658Y206936D01*
X1131893Y206991D01*
X1132127Y207051D01*
X1132359Y207118D01*
X1132590Y207189D01*
X1132819Y207267D01*
X1133046Y207350D01*
X1133271Y207438D01*
X1133494Y207532D01*
X1133714Y207631D01*
X1133932Y207736D01*
X1134147Y207845D01*
X1134360Y207960D01*
X1134570Y208080D01*
X1134776Y208205D01*
X1134980Y208335D01*
X1135181Y208470D01*
X1135378Y208610D01*
X1135572Y208754D01*
X1135762Y208903D01*
X1135948Y209057D01*
X1136131Y209215D01*
X1136310Y209377D01*
X1136485Y209544D01*
X1136656Y209715D01*
X1136823Y209890D01*
X1136985Y210069D01*
X1137143Y210252D01*
X1137297Y210438D01*
X1137446Y210628D01*
X1137590Y210822D01*
X1137730Y211019D01*
X1137865Y211220D01*
X1137995Y211424D01*
X1138120Y211630D01*
X1138240Y211840D01*
X1138355Y212053D01*
X1138464Y212268D01*
X1138569Y212486D01*
X1138668Y212706D01*
X1138762Y212929D01*
X1138850Y213154D01*
X1138933Y213381D01*
X1139011Y213610D01*
X1139082Y213841D01*
X1139149Y214073D01*
X1139209Y214307D01*
X1139264Y214542D01*
X1139314Y214779D01*
X1139357Y215016D01*
X1139395Y215255D01*
X1139427Y215495D01*
X1139453Y215735D01*
X1139474Y215976D01*
X1139488Y216217D01*
X1139497Y216458D01*
X1139500Y216700D01*
X1129500Y206700D02*
X1029500Y206700D01*
X1029258Y206703D01*
X1029017Y206712D01*
X1028776Y206726D01*
X1028535Y206747D01*
X1028295Y206773D01*
X1028055Y206805D01*
X1027816Y206843D01*
X1027579Y206886D01*
X1027342Y206936D01*
X1027107Y206991D01*
X1026873Y207051D01*
X1026641Y207118D01*
X1026410Y207189D01*
X1026181Y207267D01*
X1025954Y207350D01*
X1025729Y207438D01*
X1025506Y207532D01*
X1025286Y207631D01*
X1025068Y207736D01*
X1024853Y207845D01*
X1024640Y207960D01*
X1024430Y208080D01*
X1024224Y208205D01*
X1024020Y208335D01*
X1023819Y208470D01*
X1023622Y208610D01*
X1023428Y208754D01*
X1023238Y208903D01*
X1023052Y209057D01*
X1022869Y209215D01*
X1022690Y209377D01*
X1022515Y209544D01*
X1022344Y209715D01*
X1022177Y209890D01*
X1022015Y210069D01*
X1021857Y210252D01*
X1021703Y210438D01*
X1021554Y210628D01*
X1021410Y210822D01*
X1021270Y211019D01*
X1021135Y211220D01*
X1021005Y211424D01*
X1020880Y211630D01*
X1020760Y211840D01*
X1020645Y212053D01*
X1020536Y212268D01*
X1020431Y212486D01*
X1020332Y212706D01*
X1020238Y212929D01*
X1020150Y213154D01*
X1020067Y213381D01*
X1019989Y213610D01*
X1019918Y213841D01*
X1019851Y214073D01*
X1019791Y214307D01*
X1019736Y214542D01*
X1019686Y214779D01*
X1019643Y215016D01*
X1019605Y215255D01*
X1019573Y215495D01*
X1019547Y215735D01*
X1019526Y215976D01*
X1019512Y216217D01*
X1019503Y216458D01*
X1019500Y216700D01*
X1019500Y316700D02*
X1019503Y316942D01*
X1019512Y317183D01*
X1019526Y317424D01*
X1019547Y317665D01*
X1019573Y317905D01*
X1019605Y318145D01*
X1019643Y318384D01*
X1019686Y318621D01*
X1019736Y318858D01*
X1019791Y319093D01*
X1019851Y319327D01*
X1019918Y319559D01*
X1019989Y319790D01*
X1020067Y320019D01*
X1020150Y320246D01*
X1020238Y320471D01*
X1020332Y320694D01*
X1020431Y320914D01*
X1020536Y321132D01*
X1020645Y321347D01*
X1020760Y321560D01*
X1020880Y321770D01*
X1021005Y321976D01*
X1021135Y322180D01*
X1021270Y322381D01*
X1021410Y322578D01*
X1021554Y322772D01*
X1021703Y322962D01*
X1021857Y323148D01*
X1022015Y323331D01*
X1022177Y323510D01*
X1022344Y323685D01*
X1022515Y323856D01*
X1022690Y324023D01*
X1022869Y324185D01*
X1023052Y324343D01*
X1023238Y324497D01*
X1023428Y324646D01*
X1023622Y324790D01*
X1023819Y324930D01*
X1024020Y325065D01*
X1024224Y325195D01*
X1024430Y325320D01*
X1024640Y325440D01*
X1024853Y325555D01*
X1025068Y325664D01*
X1025286Y325769D01*
X1025506Y325868D01*
X1025729Y325962D01*
X1025954Y326050D01*
X1026181Y326133D01*
X1026410Y326211D01*
X1026641Y326282D01*
X1026873Y326349D01*
X1027107Y326409D01*
X1027342Y326464D01*
X1027579Y326514D01*
X1027816Y326557D01*
X1028055Y326595D01*
X1028295Y326627D01*
X1028535Y326653D01*
X1028776Y326674D01*
X1029017Y326688D01*
X1029258Y326697D01*
X1029500Y326700D01*
X1129500Y326700D01*
X1129742Y326697D01*
X1129983Y326688D01*
X1130224Y326674D01*
X1130465Y326653D01*
X1130705Y326627D01*
X1130945Y326595D01*
X1131184Y326557D01*
X1131421Y326514D01*
X1131658Y326464D01*
X1131893Y326409D01*
X1132127Y326349D01*
X1132359Y326282D01*
X1132590Y326211D01*
X1132819Y326133D01*
X1133046Y326050D01*
X1133271Y325962D01*
X1133494Y325868D01*
X1133714Y325769D01*
X1133932Y325664D01*
X1134147Y325555D01*
X1134360Y325440D01*
X1134570Y325320D01*
X1134776Y325195D01*
X1134980Y325065D01*
X1135181Y324930D01*
X1135378Y324790D01*
X1135572Y324646D01*
X1135762Y324497D01*
X1135948Y324343D01*
X1136131Y324185D01*
X1136310Y324023D01*
X1136485Y323856D01*
X1136656Y323685D01*
X1136823Y323510D01*
X1136985Y323331D01*
X1137143Y323148D01*
X1137297Y322962D01*
X1137446Y322772D01*
X1137590Y322578D01*
X1137730Y322381D01*
X1137865Y322180D01*
X1137995Y321976D01*
X1138120Y321770D01*
X1138240Y321560D01*
X1138355Y321347D01*
X1138464Y321132D01*
X1138569Y320914D01*
X1138668Y320694D01*
X1138762Y320471D01*
X1138850Y320246D01*
X1138933Y320019D01*
X1139011Y319790D01*
X1139082Y319559D01*
X1139149Y319327D01*
X1139209Y319093D01*
X1139264Y318858D01*
X1139314Y318621D01*
X1139357Y318384D01*
X1139395Y318145D01*
X1139427Y317905D01*
X1139453Y317665D01*
X1139474Y317424D01*
X1139488Y317183D01*
X1139497Y316942D01*
X1139500Y316700D01*
X1099500Y286700D02*
X1059500Y286700D01*
X1099500Y286700D02*
X1099500Y246700D01*
X1059500Y246700D01*
X1059500Y286700D01*
X1019500Y304200D02*
X1019500Y316700D01*
X1019500Y279200D02*
X1019500Y254200D01*
X1019500Y229200D02*
X1019500Y216700D01*
X1139500Y304200D02*
X1139500Y316700D01*
X1139500Y279200D02*
X1139500Y254200D01*
X1139500Y229200D02*
X1139500Y216700D01*
D10*
X1033187Y330962D02*
X1033284Y330964D01*
X1033382Y330970D01*
X1033479Y330979D01*
X1033576Y330993D01*
X1033672Y331010D01*
X1033767Y331031D01*
X1033861Y331055D01*
X1033955Y331084D01*
X1034047Y331116D01*
X1034138Y331151D01*
X1034227Y331190D01*
X1034315Y331233D01*
X1034401Y331279D01*
X1034485Y331328D01*
X1034567Y331381D01*
X1034647Y331436D01*
X1034725Y331495D01*
X1034800Y331557D01*
X1034873Y331622D01*
X1034943Y331690D01*
X1035011Y331760D01*
X1035076Y331833D01*
X1035138Y331908D01*
X1035197Y331986D01*
X1035252Y332066D01*
X1035305Y332148D01*
X1035354Y332232D01*
X1035400Y332318D01*
X1035443Y332406D01*
X1035482Y332495D01*
X1035517Y332586D01*
X1035549Y332678D01*
X1035578Y332772D01*
X1035602Y332866D01*
X1035623Y332961D01*
X1035640Y333057D01*
X1035654Y333154D01*
X1035663Y333251D01*
X1035669Y333348D01*
X1035671Y333446D01*
X1033187Y330962D02*
X1033044Y330964D01*
X1032901Y330970D01*
X1032759Y330979D01*
X1032617Y330993D01*
X1032475Y331011D01*
X1032334Y331032D01*
X1032193Y331057D01*
X1032053Y331086D01*
X1031914Y331119D01*
X1031776Y331155D01*
X1031639Y331196D01*
X1031503Y331240D01*
X1031368Y331287D01*
X1031235Y331339D01*
X1031103Y331394D01*
X1030973Y331452D01*
X1030844Y331514D01*
X1030717Y331580D01*
X1030592Y331649D01*
X1030469Y331721D01*
X1030348Y331797D01*
X1030229Y331875D01*
X1030112Y331958D01*
X1029997Y332043D01*
X1029885Y332131D01*
X1029775Y332223D01*
X1029668Y332317D01*
X1029563Y332414D01*
X1029461Y332514D01*
X1029772Y339654D02*
X1029774Y339752D01*
X1029780Y339849D01*
X1029789Y339946D01*
X1029803Y340043D01*
X1029820Y340139D01*
X1029841Y340234D01*
X1029865Y340328D01*
X1029894Y340422D01*
X1029926Y340514D01*
X1029961Y340605D01*
X1030000Y340694D01*
X1030043Y340782D01*
X1030089Y340868D01*
X1030138Y340952D01*
X1030191Y341034D01*
X1030246Y341114D01*
X1030305Y341192D01*
X1030367Y341267D01*
X1030432Y341340D01*
X1030500Y341410D01*
X1030570Y341478D01*
X1030643Y341543D01*
X1030718Y341605D01*
X1030796Y341664D01*
X1030876Y341719D01*
X1030958Y341772D01*
X1031042Y341821D01*
X1031128Y341867D01*
X1031216Y341910D01*
X1031305Y341949D01*
X1031396Y341984D01*
X1031488Y342016D01*
X1031582Y342045D01*
X1031676Y342069D01*
X1031771Y342090D01*
X1031867Y342107D01*
X1031964Y342121D01*
X1032061Y342130D01*
X1032158Y342136D01*
X1032256Y342138D01*
X1032386Y342136D01*
X1032516Y342131D01*
X1032646Y342122D01*
X1032776Y342109D01*
X1032905Y342093D01*
X1033034Y342073D01*
X1033162Y342049D01*
X1033290Y342022D01*
X1033416Y341991D01*
X1033542Y341957D01*
X1033667Y341919D01*
X1033790Y341878D01*
X1033913Y341833D01*
X1034034Y341785D01*
X1034154Y341734D01*
X1034272Y341679D01*
X1034388Y341621D01*
X1034503Y341560D01*
X1034617Y341495D01*
X1034728Y341428D01*
X1034837Y341357D01*
X1034945Y341283D01*
X1035050Y341207D01*
X1031015Y337481D02*
X1030932Y337532D01*
X1030851Y337586D01*
X1030773Y337643D01*
X1030697Y337703D01*
X1030623Y337766D01*
X1030552Y337832D01*
X1030483Y337900D01*
X1030417Y337971D01*
X1030353Y338044D01*
X1030293Y338120D01*
X1030236Y338198D01*
X1030181Y338279D01*
X1030130Y338361D01*
X1030082Y338445D01*
X1030037Y338531D01*
X1029995Y338619D01*
X1029957Y338708D01*
X1029923Y338798D01*
X1029891Y338890D01*
X1029864Y338983D01*
X1029840Y339077D01*
X1029819Y339172D01*
X1029803Y339268D01*
X1029790Y339364D01*
X1029780Y339460D01*
X1029775Y339557D01*
X1029773Y339654D01*
X1034428Y335619D02*
X1034511Y335568D01*
X1034592Y335514D01*
X1034670Y335457D01*
X1034746Y335397D01*
X1034820Y335334D01*
X1034891Y335268D01*
X1034960Y335200D01*
X1035026Y335129D01*
X1035090Y335056D01*
X1035150Y334980D01*
X1035207Y334902D01*
X1035262Y334821D01*
X1035313Y334739D01*
X1035361Y334655D01*
X1035406Y334569D01*
X1035448Y334481D01*
X1035486Y334392D01*
X1035520Y334302D01*
X1035552Y334210D01*
X1035579Y334117D01*
X1035603Y334023D01*
X1035624Y333928D01*
X1035640Y333832D01*
X1035653Y333736D01*
X1035663Y333640D01*
X1035668Y333543D01*
X1035670Y333446D01*
X1034429Y335619D02*
X1031014Y337481D01*
X1040172Y342138D02*
X1042656Y330962D01*
X1045139Y338413D01*
X1047623Y330962D01*
X1050107Y342138D01*
X1054989Y339654D02*
X1058093Y342138D01*
X1058093Y330962D01*
X1054989Y330962D02*
X1061198Y330962D01*
D12*
X1044145Y482600D02*
X1044156Y483468D01*
X1044188Y484335D01*
X1044241Y485201D01*
X1044315Y486065D01*
X1044411Y486928D01*
X1044528Y487788D01*
X1044666Y488644D01*
X1044824Y489497D01*
X1045004Y490346D01*
X1045205Y491191D01*
X1045426Y492030D01*
X1045667Y492863D01*
X1045929Y493690D01*
X1046212Y494511D01*
X1046514Y495324D01*
X1046836Y496130D01*
X1047178Y496927D01*
X1047539Y497716D01*
X1047920Y498496D01*
X1048320Y499266D01*
X1048738Y500026D01*
X1049175Y500776D01*
X1049630Y501515D01*
X1050103Y502242D01*
X1050594Y502958D01*
X1051103Y503661D01*
X1051628Y504352D01*
X1052170Y505029D01*
X1052729Y505693D01*
X1053304Y506343D01*
X1053894Y506979D01*
X1054500Y507600D01*
X1055121Y508206D01*
X1055757Y508796D01*
X1056407Y509371D01*
X1057071Y509930D01*
X1057748Y510472D01*
X1058439Y510997D01*
X1059142Y511506D01*
X1059858Y511997D01*
X1060585Y512470D01*
X1061324Y512925D01*
X1062074Y513362D01*
X1062834Y513780D01*
X1063604Y514180D01*
X1064384Y514561D01*
X1065173Y514922D01*
X1065970Y515264D01*
X1066776Y515586D01*
X1067589Y515888D01*
X1068410Y516171D01*
X1069237Y516433D01*
X1070070Y516674D01*
X1070909Y516895D01*
X1071754Y517096D01*
X1072603Y517276D01*
X1073456Y517434D01*
X1074312Y517572D01*
X1075172Y517689D01*
X1076035Y517785D01*
X1076899Y517859D01*
X1077765Y517912D01*
X1078632Y517944D01*
X1079500Y517955D01*
X1080368Y517944D01*
X1081235Y517912D01*
X1082101Y517859D01*
X1082965Y517785D01*
X1083828Y517689D01*
X1084688Y517572D01*
X1085544Y517434D01*
X1086397Y517276D01*
X1087246Y517096D01*
X1088091Y516895D01*
X1088930Y516674D01*
X1089763Y516433D01*
X1090590Y516171D01*
X1091411Y515888D01*
X1092224Y515586D01*
X1093030Y515264D01*
X1093827Y514922D01*
X1094616Y514561D01*
X1095396Y514180D01*
X1096166Y513780D01*
X1096926Y513362D01*
X1097676Y512925D01*
X1098415Y512470D01*
X1099142Y511997D01*
X1099858Y511506D01*
X1100561Y510997D01*
X1101252Y510472D01*
X1101929Y509930D01*
X1102593Y509371D01*
X1103243Y508796D01*
X1103879Y508206D01*
X1104500Y507600D01*
X1105106Y506979D01*
X1105696Y506343D01*
X1106271Y505693D01*
X1106830Y505029D01*
X1107372Y504352D01*
X1107897Y503661D01*
X1108406Y502958D01*
X1108897Y502242D01*
X1109370Y501515D01*
X1109825Y500776D01*
X1110262Y500026D01*
X1110680Y499266D01*
X1111080Y498496D01*
X1111461Y497716D01*
X1111822Y496927D01*
X1112164Y496130D01*
X1112486Y495324D01*
X1112788Y494511D01*
X1113071Y493690D01*
X1113333Y492863D01*
X1113574Y492030D01*
X1113795Y491191D01*
X1113996Y490346D01*
X1114176Y489497D01*
X1114334Y488644D01*
X1114472Y487788D01*
X1114589Y486928D01*
X1114685Y486065D01*
X1114759Y485201D01*
X1114812Y484335D01*
X1114844Y483468D01*
X1114855Y482600D01*
X1114844Y481732D01*
X1114812Y480865D01*
X1114759Y479999D01*
X1114685Y479135D01*
X1114589Y478272D01*
X1114472Y477412D01*
X1114334Y476556D01*
X1114176Y475703D01*
X1113996Y474854D01*
X1113795Y474009D01*
X1113574Y473170D01*
X1113333Y472337D01*
X1113071Y471510D01*
X1112788Y470689D01*
X1112486Y469876D01*
X1112164Y469070D01*
X1111822Y468273D01*
X1111461Y467484D01*
X1111080Y466704D01*
X1110680Y465934D01*
X1110262Y465174D01*
X1109825Y464424D01*
X1109370Y463685D01*
X1108897Y462958D01*
X1108406Y462242D01*
X1107897Y461539D01*
X1107372Y460848D01*
X1106830Y460171D01*
X1106271Y459507D01*
X1105696Y458857D01*
X1105106Y458221D01*
X1104500Y457600D01*
X1103879Y456994D01*
X1103243Y456404D01*
X1102593Y455829D01*
X1101929Y455270D01*
X1101252Y454728D01*
X1100561Y454203D01*
X1099858Y453694D01*
X1099142Y453203D01*
X1098415Y452730D01*
X1097676Y452275D01*
X1096926Y451838D01*
X1096166Y451420D01*
X1095396Y451020D01*
X1094616Y450639D01*
X1093827Y450278D01*
X1093030Y449936D01*
X1092224Y449614D01*
X1091411Y449312D01*
X1090590Y449029D01*
X1089763Y448767D01*
X1088930Y448526D01*
X1088091Y448305D01*
X1087246Y448104D01*
X1086397Y447924D01*
X1085544Y447766D01*
X1084688Y447628D01*
X1083828Y447511D01*
X1082965Y447415D01*
X1082101Y447341D01*
X1081235Y447288D01*
X1080368Y447256D01*
X1079500Y447245D01*
X1078632Y447256D01*
X1077765Y447288D01*
X1076899Y447341D01*
X1076035Y447415D01*
X1075172Y447511D01*
X1074312Y447628D01*
X1073456Y447766D01*
X1072603Y447924D01*
X1071754Y448104D01*
X1070909Y448305D01*
X1070070Y448526D01*
X1069237Y448767D01*
X1068410Y449029D01*
X1067589Y449312D01*
X1066776Y449614D01*
X1065970Y449936D01*
X1065173Y450278D01*
X1064384Y450639D01*
X1063604Y451020D01*
X1062834Y451420D01*
X1062074Y451838D01*
X1061324Y452275D01*
X1060585Y452730D01*
X1059858Y453203D01*
X1059142Y453694D01*
X1058439Y454203D01*
X1057748Y454728D01*
X1057071Y455270D01*
X1056407Y455829D01*
X1055757Y456404D01*
X1055121Y456994D01*
X1054500Y457600D01*
X1053894Y458221D01*
X1053304Y458857D01*
X1052729Y459507D01*
X1052170Y460171D01*
X1051628Y460848D01*
X1051103Y461539D01*
X1050594Y462242D01*
X1050103Y462958D01*
X1049630Y463685D01*
X1049175Y464424D01*
X1048738Y465174D01*
X1048320Y465934D01*
X1047920Y466704D01*
X1047539Y467484D01*
X1047178Y468273D01*
X1046836Y469070D01*
X1046514Y469876D01*
X1046212Y470689D01*
X1045929Y471510D01*
X1045667Y472337D01*
X1045426Y473170D01*
X1045205Y474009D01*
X1045004Y474854D01*
X1044824Y475703D01*
X1044666Y476556D01*
X1044528Y477412D01*
X1044411Y478272D01*
X1044315Y479135D01*
X1044241Y479999D01*
X1044188Y480865D01*
X1044156Y481732D01*
X1044145Y482600D01*
X1129500Y422600D02*
X1129742Y422603D01*
X1129983Y422612D01*
X1130224Y422626D01*
X1130465Y422647D01*
X1130705Y422673D01*
X1130945Y422705D01*
X1131184Y422743D01*
X1131421Y422786D01*
X1131658Y422836D01*
X1131893Y422891D01*
X1132127Y422951D01*
X1132359Y423018D01*
X1132590Y423089D01*
X1132819Y423167D01*
X1133046Y423250D01*
X1133271Y423338D01*
X1133494Y423432D01*
X1133714Y423531D01*
X1133932Y423636D01*
X1134147Y423745D01*
X1134360Y423860D01*
X1134570Y423980D01*
X1134776Y424105D01*
X1134980Y424235D01*
X1135181Y424370D01*
X1135378Y424510D01*
X1135572Y424654D01*
X1135762Y424803D01*
X1135948Y424957D01*
X1136131Y425115D01*
X1136310Y425277D01*
X1136485Y425444D01*
X1136656Y425615D01*
X1136823Y425790D01*
X1136985Y425969D01*
X1137143Y426152D01*
X1137297Y426338D01*
X1137446Y426528D01*
X1137590Y426722D01*
X1137730Y426919D01*
X1137865Y427120D01*
X1137995Y427324D01*
X1138120Y427530D01*
X1138240Y427740D01*
X1138355Y427953D01*
X1138464Y428168D01*
X1138569Y428386D01*
X1138668Y428606D01*
X1138762Y428829D01*
X1138850Y429054D01*
X1138933Y429281D01*
X1139011Y429510D01*
X1139082Y429741D01*
X1139149Y429973D01*
X1139209Y430207D01*
X1139264Y430442D01*
X1139314Y430679D01*
X1139357Y430916D01*
X1139395Y431155D01*
X1139427Y431395D01*
X1139453Y431635D01*
X1139474Y431876D01*
X1139488Y432117D01*
X1139497Y432358D01*
X1139500Y432600D01*
X1129500Y422600D02*
X1029500Y422600D01*
X1029258Y422603D01*
X1029017Y422612D01*
X1028776Y422626D01*
X1028535Y422647D01*
X1028295Y422673D01*
X1028055Y422705D01*
X1027816Y422743D01*
X1027579Y422786D01*
X1027342Y422836D01*
X1027107Y422891D01*
X1026873Y422951D01*
X1026641Y423018D01*
X1026410Y423089D01*
X1026181Y423167D01*
X1025954Y423250D01*
X1025729Y423338D01*
X1025506Y423432D01*
X1025286Y423531D01*
X1025068Y423636D01*
X1024853Y423745D01*
X1024640Y423860D01*
X1024430Y423980D01*
X1024224Y424105D01*
X1024020Y424235D01*
X1023819Y424370D01*
X1023622Y424510D01*
X1023428Y424654D01*
X1023238Y424803D01*
X1023052Y424957D01*
X1022869Y425115D01*
X1022690Y425277D01*
X1022515Y425444D01*
X1022344Y425615D01*
X1022177Y425790D01*
X1022015Y425969D01*
X1021857Y426152D01*
X1021703Y426338D01*
X1021554Y426528D01*
X1021410Y426722D01*
X1021270Y426919D01*
X1021135Y427120D01*
X1021005Y427324D01*
X1020880Y427530D01*
X1020760Y427740D01*
X1020645Y427953D01*
X1020536Y428168D01*
X1020431Y428386D01*
X1020332Y428606D01*
X1020238Y428829D01*
X1020150Y429054D01*
X1020067Y429281D01*
X1019989Y429510D01*
X1019918Y429741D01*
X1019851Y429973D01*
X1019791Y430207D01*
X1019736Y430442D01*
X1019686Y430679D01*
X1019643Y430916D01*
X1019605Y431155D01*
X1019573Y431395D01*
X1019547Y431635D01*
X1019526Y431876D01*
X1019512Y432117D01*
X1019503Y432358D01*
X1019500Y432600D01*
X1019500Y532600D02*
X1019503Y532842D01*
X1019512Y533083D01*
X1019526Y533324D01*
X1019547Y533565D01*
X1019573Y533805D01*
X1019605Y534045D01*
X1019643Y534284D01*
X1019686Y534521D01*
X1019736Y534758D01*
X1019791Y534993D01*
X1019851Y535227D01*
X1019918Y535459D01*
X1019989Y535690D01*
X1020067Y535919D01*
X1020150Y536146D01*
X1020238Y536371D01*
X1020332Y536594D01*
X1020431Y536814D01*
X1020536Y537032D01*
X1020645Y537247D01*
X1020760Y537460D01*
X1020880Y537670D01*
X1021005Y537876D01*
X1021135Y538080D01*
X1021270Y538281D01*
X1021410Y538478D01*
X1021554Y538672D01*
X1021703Y538862D01*
X1021857Y539048D01*
X1022015Y539231D01*
X1022177Y539410D01*
X1022344Y539585D01*
X1022515Y539756D01*
X1022690Y539923D01*
X1022869Y540085D01*
X1023052Y540243D01*
X1023238Y540397D01*
X1023428Y540546D01*
X1023622Y540690D01*
X1023819Y540830D01*
X1024020Y540965D01*
X1024224Y541095D01*
X1024430Y541220D01*
X1024640Y541340D01*
X1024853Y541455D01*
X1025068Y541564D01*
X1025286Y541669D01*
X1025506Y541768D01*
X1025729Y541862D01*
X1025954Y541950D01*
X1026181Y542033D01*
X1026410Y542111D01*
X1026641Y542182D01*
X1026873Y542249D01*
X1027107Y542309D01*
X1027342Y542364D01*
X1027579Y542414D01*
X1027816Y542457D01*
X1028055Y542495D01*
X1028295Y542527D01*
X1028535Y542553D01*
X1028776Y542574D01*
X1029017Y542588D01*
X1029258Y542597D01*
X1029500Y542600D01*
X1129500Y542600D01*
X1129742Y542597D01*
X1129983Y542588D01*
X1130224Y542574D01*
X1130465Y542553D01*
X1130705Y542527D01*
X1130945Y542495D01*
X1131184Y542457D01*
X1131421Y542414D01*
X1131658Y542364D01*
X1131893Y542309D01*
X1132127Y542249D01*
X1132359Y542182D01*
X1132590Y542111D01*
X1132819Y542033D01*
X1133046Y541950D01*
X1133271Y541862D01*
X1133494Y541768D01*
X1133714Y541669D01*
X1133932Y541564D01*
X1134147Y541455D01*
X1134360Y541340D01*
X1134570Y541220D01*
X1134776Y541095D01*
X1134980Y540965D01*
X1135181Y540830D01*
X1135378Y540690D01*
X1135572Y540546D01*
X1135762Y540397D01*
X1135948Y540243D01*
X1136131Y540085D01*
X1136310Y539923D01*
X1136485Y539756D01*
X1136656Y539585D01*
X1136823Y539410D01*
X1136985Y539231D01*
X1137143Y539048D01*
X1137297Y538862D01*
X1137446Y538672D01*
X1137590Y538478D01*
X1137730Y538281D01*
X1137865Y538080D01*
X1137995Y537876D01*
X1138120Y537670D01*
X1138240Y537460D01*
X1138355Y537247D01*
X1138464Y537032D01*
X1138569Y536814D01*
X1138668Y536594D01*
X1138762Y536371D01*
X1138850Y536146D01*
X1138933Y535919D01*
X1139011Y535690D01*
X1139082Y535459D01*
X1139149Y535227D01*
X1139209Y534993D01*
X1139264Y534758D01*
X1139314Y534521D01*
X1139357Y534284D01*
X1139395Y534045D01*
X1139427Y533805D01*
X1139453Y533565D01*
X1139474Y533324D01*
X1139488Y533083D01*
X1139497Y532842D01*
X1139500Y532600D01*
X1099500Y502600D02*
X1059500Y502600D01*
X1099500Y502600D02*
X1099500Y462600D01*
X1059500Y462600D01*
X1059500Y502600D01*
X1019500Y520100D02*
X1019500Y532600D01*
X1019500Y495100D02*
X1019500Y470100D01*
X1019500Y445100D02*
X1019500Y432600D01*
X1139500Y520100D02*
X1139500Y532600D01*
X1139500Y495100D02*
X1139500Y470100D01*
X1139500Y445100D02*
X1139500Y432600D01*
D10*
X1033187Y546862D02*
X1033284Y546864D01*
X1033382Y546870D01*
X1033479Y546879D01*
X1033576Y546893D01*
X1033672Y546910D01*
X1033767Y546931D01*
X1033861Y546955D01*
X1033955Y546984D01*
X1034047Y547016D01*
X1034138Y547051D01*
X1034227Y547090D01*
X1034315Y547133D01*
X1034401Y547179D01*
X1034485Y547228D01*
X1034567Y547281D01*
X1034647Y547336D01*
X1034725Y547395D01*
X1034800Y547457D01*
X1034873Y547522D01*
X1034943Y547590D01*
X1035011Y547660D01*
X1035076Y547733D01*
X1035138Y547808D01*
X1035197Y547886D01*
X1035252Y547966D01*
X1035305Y548048D01*
X1035354Y548132D01*
X1035400Y548218D01*
X1035443Y548306D01*
X1035482Y548395D01*
X1035517Y548486D01*
X1035549Y548578D01*
X1035578Y548672D01*
X1035602Y548766D01*
X1035623Y548861D01*
X1035640Y548957D01*
X1035654Y549054D01*
X1035663Y549151D01*
X1035669Y549248D01*
X1035671Y549346D01*
X1033187Y546862D02*
X1033044Y546864D01*
X1032901Y546870D01*
X1032759Y546879D01*
X1032617Y546893D01*
X1032475Y546911D01*
X1032334Y546932D01*
X1032193Y546957D01*
X1032053Y546986D01*
X1031914Y547019D01*
X1031776Y547055D01*
X1031639Y547096D01*
X1031503Y547140D01*
X1031368Y547187D01*
X1031235Y547239D01*
X1031103Y547294D01*
X1030973Y547352D01*
X1030844Y547414D01*
X1030717Y547480D01*
X1030592Y547549D01*
X1030469Y547621D01*
X1030348Y547697D01*
X1030229Y547775D01*
X1030112Y547858D01*
X1029997Y547943D01*
X1029885Y548031D01*
X1029775Y548123D01*
X1029668Y548217D01*
X1029563Y548314D01*
X1029461Y548414D01*
X1029772Y555554D02*
X1029774Y555652D01*
X1029780Y555749D01*
X1029789Y555846D01*
X1029803Y555943D01*
X1029820Y556039D01*
X1029841Y556134D01*
X1029865Y556228D01*
X1029894Y556322D01*
X1029926Y556414D01*
X1029961Y556505D01*
X1030000Y556594D01*
X1030043Y556682D01*
X1030089Y556768D01*
X1030138Y556852D01*
X1030191Y556934D01*
X1030246Y557014D01*
X1030305Y557092D01*
X1030367Y557167D01*
X1030432Y557240D01*
X1030500Y557310D01*
X1030570Y557378D01*
X1030643Y557443D01*
X1030718Y557505D01*
X1030796Y557564D01*
X1030876Y557619D01*
X1030958Y557672D01*
X1031042Y557721D01*
X1031128Y557767D01*
X1031216Y557810D01*
X1031305Y557849D01*
X1031396Y557884D01*
X1031488Y557916D01*
X1031582Y557945D01*
X1031676Y557969D01*
X1031771Y557990D01*
X1031867Y558007D01*
X1031964Y558021D01*
X1032061Y558030D01*
X1032158Y558036D01*
X1032256Y558038D01*
X1032386Y558036D01*
X1032516Y558031D01*
X1032646Y558022D01*
X1032776Y558009D01*
X1032905Y557993D01*
X1033034Y557973D01*
X1033162Y557949D01*
X1033290Y557922D01*
X1033416Y557891D01*
X1033542Y557857D01*
X1033667Y557819D01*
X1033790Y557778D01*
X1033913Y557733D01*
X1034034Y557685D01*
X1034154Y557634D01*
X1034272Y557579D01*
X1034388Y557521D01*
X1034503Y557460D01*
X1034617Y557395D01*
X1034728Y557328D01*
X1034837Y557257D01*
X1034945Y557183D01*
X1035050Y557107D01*
X1031015Y553381D02*
X1030932Y553432D01*
X1030851Y553486D01*
X1030773Y553543D01*
X1030697Y553603D01*
X1030623Y553666D01*
X1030552Y553732D01*
X1030483Y553800D01*
X1030417Y553871D01*
X1030353Y553944D01*
X1030293Y554020D01*
X1030236Y554098D01*
X1030181Y554179D01*
X1030130Y554261D01*
X1030082Y554345D01*
X1030037Y554431D01*
X1029995Y554519D01*
X1029957Y554608D01*
X1029923Y554698D01*
X1029891Y554790D01*
X1029864Y554883D01*
X1029840Y554977D01*
X1029819Y555072D01*
X1029803Y555168D01*
X1029790Y555264D01*
X1029780Y555360D01*
X1029775Y555457D01*
X1029773Y555554D01*
X1034428Y551519D02*
X1034511Y551468D01*
X1034592Y551414D01*
X1034670Y551357D01*
X1034746Y551297D01*
X1034820Y551234D01*
X1034891Y551168D01*
X1034960Y551100D01*
X1035026Y551029D01*
X1035090Y550956D01*
X1035150Y550880D01*
X1035207Y550802D01*
X1035262Y550721D01*
X1035313Y550639D01*
X1035361Y550555D01*
X1035406Y550469D01*
X1035448Y550381D01*
X1035486Y550292D01*
X1035520Y550202D01*
X1035552Y550110D01*
X1035579Y550017D01*
X1035603Y549923D01*
X1035624Y549828D01*
X1035640Y549732D01*
X1035653Y549636D01*
X1035663Y549540D01*
X1035668Y549443D01*
X1035670Y549346D01*
X1034429Y551519D02*
X1031014Y553381D01*
X1040172Y558038D02*
X1042656Y546862D01*
X1045139Y554313D01*
X1047623Y546862D01*
X1050107Y558038D01*
X1058404Y558038D02*
X1058508Y558036D01*
X1058613Y558030D01*
X1058717Y558020D01*
X1058820Y558007D01*
X1058923Y557989D01*
X1059026Y557968D01*
X1059127Y557943D01*
X1059228Y557914D01*
X1059327Y557881D01*
X1059425Y557845D01*
X1059521Y557805D01*
X1059616Y557761D01*
X1059710Y557714D01*
X1059801Y557664D01*
X1059890Y557610D01*
X1059978Y557553D01*
X1060063Y557492D01*
X1060146Y557428D01*
X1060226Y557362D01*
X1060304Y557292D01*
X1060380Y557220D01*
X1060452Y557144D01*
X1060522Y557066D01*
X1060588Y556986D01*
X1060652Y556903D01*
X1060713Y556818D01*
X1060770Y556730D01*
X1060824Y556641D01*
X1060874Y556550D01*
X1060921Y556456D01*
X1060965Y556361D01*
X1061005Y556265D01*
X1061041Y556167D01*
X1061074Y556068D01*
X1061103Y555967D01*
X1061128Y555866D01*
X1061149Y555763D01*
X1061167Y555660D01*
X1061180Y555557D01*
X1061190Y555453D01*
X1061196Y555348D01*
X1061198Y555244D01*
X1058404Y558039D02*
X1058285Y558037D01*
X1058167Y558031D01*
X1058048Y558021D01*
X1057930Y558008D01*
X1057813Y557990D01*
X1057696Y557968D01*
X1057580Y557943D01*
X1057465Y557914D01*
X1057350Y557881D01*
X1057237Y557844D01*
X1057126Y557804D01*
X1057015Y557760D01*
X1056907Y557712D01*
X1056800Y557661D01*
X1056694Y557606D01*
X1056591Y557547D01*
X1056489Y557486D01*
X1056390Y557421D01*
X1056292Y557352D01*
X1056198Y557281D01*
X1056105Y557206D01*
X1056015Y557129D01*
X1055928Y557048D01*
X1055843Y556965D01*
X1055761Y556879D01*
X1055682Y556790D01*
X1055606Y556699D01*
X1055533Y556605D01*
X1055464Y556509D01*
X1055397Y556410D01*
X1055334Y556310D01*
X1055274Y556207D01*
X1055217Y556103D01*
X1055165Y555996D01*
X1055115Y555888D01*
X1055069Y555779D01*
X1055027Y555667D01*
X1054989Y555555D01*
X1060267Y553071D02*
X1060342Y553145D01*
X1060414Y553222D01*
X1060484Y553301D01*
X1060551Y553383D01*
X1060615Y553467D01*
X1060676Y553553D01*
X1060734Y553641D01*
X1060789Y553732D01*
X1060841Y553824D01*
X1060889Y553918D01*
X1060934Y554013D01*
X1060976Y554111D01*
X1061014Y554209D01*
X1061049Y554309D01*
X1061080Y554410D01*
X1061107Y554512D01*
X1061131Y554615D01*
X1061152Y554718D01*
X1061168Y554823D01*
X1061181Y554928D01*
X1061191Y555033D01*
X1061196Y555138D01*
X1061198Y555244D01*
X1060267Y553071D02*
X1054989Y546862D01*
X1061198Y546862D01*
D11*
X732000Y197000D02*
X732009Y197736D01*
X732036Y198472D01*
X732081Y199207D01*
X732144Y199941D01*
X732226Y200672D01*
X732325Y201402D01*
X732442Y202129D01*
X732576Y202853D01*
X732729Y203573D01*
X732899Y204289D01*
X733087Y205001D01*
X733292Y205709D01*
X733514Y206410D01*
X733754Y207107D01*
X734010Y207797D01*
X734284Y208481D01*
X734574Y209157D01*
X734880Y209827D01*
X735203Y210488D01*
X735542Y211142D01*
X735897Y211787D01*
X736268Y212423D01*
X736654Y213050D01*
X737056Y213667D01*
X737472Y214274D01*
X737904Y214871D01*
X738350Y215457D01*
X738810Y216032D01*
X739284Y216595D01*
X739771Y217147D01*
X740273Y217686D01*
X740787Y218213D01*
X741314Y218727D01*
X741853Y219229D01*
X742405Y219716D01*
X742968Y220190D01*
X743543Y220650D01*
X744129Y221096D01*
X744726Y221528D01*
X745333Y221944D01*
X745950Y222346D01*
X746577Y222732D01*
X747213Y223103D01*
X747858Y223458D01*
X748512Y223797D01*
X749173Y224120D01*
X749843Y224426D01*
X750519Y224716D01*
X751203Y224990D01*
X751893Y225246D01*
X752590Y225486D01*
X753291Y225708D01*
X753999Y225913D01*
X754711Y226101D01*
X755427Y226271D01*
X756147Y226424D01*
X756871Y226558D01*
X757598Y226675D01*
X758328Y226774D01*
X759059Y226856D01*
X759793Y226919D01*
X760528Y226964D01*
X761264Y226991D01*
X762000Y227000D01*
X762736Y226991D01*
X763472Y226964D01*
X764207Y226919D01*
X764941Y226856D01*
X765672Y226774D01*
X766402Y226675D01*
X767129Y226558D01*
X767853Y226424D01*
X768573Y226271D01*
X769289Y226101D01*
X770001Y225913D01*
X770709Y225708D01*
X771410Y225486D01*
X772107Y225246D01*
X772797Y224990D01*
X773481Y224716D01*
X774157Y224426D01*
X774827Y224120D01*
X775488Y223797D01*
X776142Y223458D01*
X776787Y223103D01*
X777423Y222732D01*
X778050Y222346D01*
X778667Y221944D01*
X779274Y221528D01*
X779871Y221096D01*
X780457Y220650D01*
X781032Y220190D01*
X781595Y219716D01*
X782147Y219229D01*
X782686Y218727D01*
X783213Y218213D01*
X783727Y217686D01*
X784229Y217147D01*
X784716Y216595D01*
X785190Y216032D01*
X785650Y215457D01*
X786096Y214871D01*
X786528Y214274D01*
X786944Y213667D01*
X787346Y213050D01*
X787732Y212423D01*
X788103Y211787D01*
X788458Y211142D01*
X788797Y210488D01*
X789120Y209827D01*
X789426Y209157D01*
X789716Y208481D01*
X789990Y207797D01*
X790246Y207107D01*
X790486Y206410D01*
X790708Y205709D01*
X790913Y205001D01*
X791101Y204289D01*
X791271Y203573D01*
X791424Y202853D01*
X791558Y202129D01*
X791675Y201402D01*
X791774Y200672D01*
X791856Y199941D01*
X791919Y199207D01*
X791964Y198472D01*
X791991Y197736D01*
X792000Y197000D01*
X791991Y196264D01*
X791964Y195528D01*
X791919Y194793D01*
X791856Y194059D01*
X791774Y193328D01*
X791675Y192598D01*
X791558Y191871D01*
X791424Y191147D01*
X791271Y190427D01*
X791101Y189711D01*
X790913Y188999D01*
X790708Y188291D01*
X790486Y187590D01*
X790246Y186893D01*
X789990Y186203D01*
X789716Y185519D01*
X789426Y184843D01*
X789120Y184173D01*
X788797Y183512D01*
X788458Y182858D01*
X788103Y182213D01*
X787732Y181577D01*
X787346Y180950D01*
X786944Y180333D01*
X786528Y179726D01*
X786096Y179129D01*
X785650Y178543D01*
X785190Y177968D01*
X784716Y177405D01*
X784229Y176853D01*
X783727Y176314D01*
X783213Y175787D01*
X782686Y175273D01*
X782147Y174771D01*
X781595Y174284D01*
X781032Y173810D01*
X780457Y173350D01*
X779871Y172904D01*
X779274Y172472D01*
X778667Y172056D01*
X778050Y171654D01*
X777423Y171268D01*
X776787Y170897D01*
X776142Y170542D01*
X775488Y170203D01*
X774827Y169880D01*
X774157Y169574D01*
X773481Y169284D01*
X772797Y169010D01*
X772107Y168754D01*
X771410Y168514D01*
X770709Y168292D01*
X770001Y168087D01*
X769289Y167899D01*
X768573Y167729D01*
X767853Y167576D01*
X767129Y167442D01*
X766402Y167325D01*
X765672Y167226D01*
X764941Y167144D01*
X764207Y167081D01*
X763472Y167036D01*
X762736Y167009D01*
X762000Y167000D01*
X761264Y167009D01*
X760528Y167036D01*
X759793Y167081D01*
X759059Y167144D01*
X758328Y167226D01*
X757598Y167325D01*
X756871Y167442D01*
X756147Y167576D01*
X755427Y167729D01*
X754711Y167899D01*
X753999Y168087D01*
X753291Y168292D01*
X752590Y168514D01*
X751893Y168754D01*
X751203Y169010D01*
X750519Y169284D01*
X749843Y169574D01*
X749173Y169880D01*
X748512Y170203D01*
X747858Y170542D01*
X747213Y170897D01*
X746577Y171268D01*
X745950Y171654D01*
X745333Y172056D01*
X744726Y172472D01*
X744129Y172904D01*
X743543Y173350D01*
X742968Y173810D01*
X742405Y174284D01*
X741853Y174771D01*
X741314Y175273D01*
X740787Y175787D01*
X740273Y176314D01*
X739771Y176853D01*
X739284Y177405D01*
X738810Y177968D01*
X738350Y178543D01*
X737904Y179129D01*
X737472Y179726D01*
X737056Y180333D01*
X736654Y180950D01*
X736268Y181577D01*
X735897Y182213D01*
X735542Y182858D01*
X735203Y183512D01*
X734880Y184173D01*
X734574Y184843D01*
X734284Y185519D01*
X734010Y186203D01*
X733754Y186893D01*
X733514Y187590D01*
X733292Y188291D01*
X733087Y188999D01*
X732899Y189711D01*
X732729Y190427D01*
X732576Y191147D01*
X732442Y191871D01*
X732325Y192598D01*
X732226Y193328D01*
X732144Y194059D01*
X732081Y194793D01*
X732036Y195528D01*
X732009Y196264D01*
X732000Y197000D01*
X712000Y177000D02*
X712000Y127000D01*
X712000Y217000D02*
X712000Y252000D01*
X812000Y252000D01*
X812000Y217000D01*
X812000Y177000D02*
X812000Y127000D01*
X802000Y127000D01*
X722000Y127000D02*
X712000Y127000D01*
D10*
X711962Y254762D02*
X711962Y265938D01*
X715066Y265938D01*
X715177Y265936D01*
X715287Y265930D01*
X715398Y265920D01*
X715508Y265906D01*
X715617Y265889D01*
X715726Y265867D01*
X715834Y265842D01*
X715940Y265812D01*
X716046Y265779D01*
X716151Y265742D01*
X716254Y265702D01*
X716355Y265657D01*
X716455Y265610D01*
X716554Y265558D01*
X716650Y265503D01*
X716744Y265445D01*
X716836Y265384D01*
X716926Y265319D01*
X717014Y265251D01*
X717099Y265180D01*
X717181Y265106D01*
X717261Y265029D01*
X717338Y264949D01*
X717412Y264867D01*
X717483Y264782D01*
X717551Y264694D01*
X717616Y264604D01*
X717677Y264512D01*
X717735Y264418D01*
X717790Y264322D01*
X717842Y264223D01*
X717889Y264123D01*
X717934Y264022D01*
X717974Y263919D01*
X718011Y263814D01*
X718044Y263708D01*
X718074Y263602D01*
X718099Y263494D01*
X718121Y263385D01*
X718138Y263276D01*
X718152Y263166D01*
X718162Y263055D01*
X718168Y262945D01*
X718170Y262834D01*
X718168Y262723D01*
X718162Y262613D01*
X718152Y262502D01*
X718138Y262392D01*
X718121Y262283D01*
X718099Y262174D01*
X718074Y262066D01*
X718044Y261960D01*
X718011Y261854D01*
X717974Y261749D01*
X717934Y261646D01*
X717889Y261545D01*
X717842Y261445D01*
X717790Y261346D01*
X717735Y261250D01*
X717677Y261156D01*
X717616Y261064D01*
X717551Y260974D01*
X717483Y260886D01*
X717412Y260801D01*
X717338Y260719D01*
X717261Y260639D01*
X717181Y260562D01*
X717099Y260488D01*
X717014Y260417D01*
X716926Y260349D01*
X716836Y260284D01*
X716744Y260223D01*
X716650Y260165D01*
X716554Y260110D01*
X716455Y260058D01*
X716355Y260011D01*
X716254Y259966D01*
X716151Y259926D01*
X716046Y259889D01*
X715940Y259856D01*
X715834Y259826D01*
X715726Y259801D01*
X715617Y259779D01*
X715508Y259762D01*
X715398Y259748D01*
X715287Y259738D01*
X715177Y259732D01*
X715066Y259730D01*
X715066Y259729D02*
X711962Y259729D01*
X715687Y259729D02*
X718171Y254762D01*
X723300Y254762D02*
X727025Y254762D01*
X727123Y254764D01*
X727220Y254770D01*
X727317Y254779D01*
X727414Y254793D01*
X727510Y254810D01*
X727605Y254831D01*
X727699Y254855D01*
X727793Y254884D01*
X727885Y254916D01*
X727976Y254951D01*
X728065Y254990D01*
X728153Y255033D01*
X728239Y255079D01*
X728323Y255128D01*
X728405Y255181D01*
X728485Y255236D01*
X728563Y255295D01*
X728638Y255357D01*
X728711Y255422D01*
X728781Y255490D01*
X728849Y255560D01*
X728914Y255633D01*
X728976Y255708D01*
X729035Y255786D01*
X729090Y255866D01*
X729143Y255948D01*
X729192Y256032D01*
X729238Y256118D01*
X729281Y256206D01*
X729320Y256295D01*
X729355Y256386D01*
X729387Y256478D01*
X729416Y256572D01*
X729440Y256666D01*
X729461Y256761D01*
X729478Y256857D01*
X729492Y256954D01*
X729501Y257051D01*
X729507Y257148D01*
X729509Y257246D01*
X729509Y258487D01*
X729507Y258585D01*
X729501Y258682D01*
X729492Y258779D01*
X729478Y258876D01*
X729461Y258972D01*
X729440Y259067D01*
X729416Y259161D01*
X729387Y259255D01*
X729355Y259347D01*
X729320Y259438D01*
X729281Y259527D01*
X729238Y259615D01*
X729192Y259701D01*
X729143Y259785D01*
X729090Y259867D01*
X729035Y259947D01*
X728976Y260025D01*
X728914Y260100D01*
X728849Y260173D01*
X728781Y260243D01*
X728711Y260311D01*
X728638Y260376D01*
X728563Y260438D01*
X728485Y260497D01*
X728405Y260552D01*
X728323Y260605D01*
X728239Y260654D01*
X728153Y260700D01*
X728065Y260743D01*
X727976Y260782D01*
X727885Y260817D01*
X727793Y260849D01*
X727699Y260878D01*
X727605Y260902D01*
X727510Y260923D01*
X727414Y260940D01*
X727317Y260954D01*
X727220Y260963D01*
X727123Y260969D01*
X727025Y260971D01*
X723300Y260971D01*
X723300Y265938D01*
X729509Y265938D01*
D11*
X122400Y197000D02*
X122409Y197736D01*
X122436Y198472D01*
X122481Y199207D01*
X122544Y199941D01*
X122626Y200672D01*
X122725Y201402D01*
X122842Y202129D01*
X122976Y202853D01*
X123129Y203573D01*
X123299Y204289D01*
X123487Y205001D01*
X123692Y205709D01*
X123914Y206410D01*
X124154Y207107D01*
X124410Y207797D01*
X124684Y208481D01*
X124974Y209157D01*
X125280Y209827D01*
X125603Y210488D01*
X125942Y211142D01*
X126297Y211787D01*
X126668Y212423D01*
X127054Y213050D01*
X127456Y213667D01*
X127872Y214274D01*
X128304Y214871D01*
X128750Y215457D01*
X129210Y216032D01*
X129684Y216595D01*
X130171Y217147D01*
X130673Y217686D01*
X131187Y218213D01*
X131714Y218727D01*
X132253Y219229D01*
X132805Y219716D01*
X133368Y220190D01*
X133943Y220650D01*
X134529Y221096D01*
X135126Y221528D01*
X135733Y221944D01*
X136350Y222346D01*
X136977Y222732D01*
X137613Y223103D01*
X138258Y223458D01*
X138912Y223797D01*
X139573Y224120D01*
X140243Y224426D01*
X140919Y224716D01*
X141603Y224990D01*
X142293Y225246D01*
X142990Y225486D01*
X143691Y225708D01*
X144399Y225913D01*
X145111Y226101D01*
X145827Y226271D01*
X146547Y226424D01*
X147271Y226558D01*
X147998Y226675D01*
X148728Y226774D01*
X149459Y226856D01*
X150193Y226919D01*
X150928Y226964D01*
X151664Y226991D01*
X152400Y227000D01*
X153136Y226991D01*
X153872Y226964D01*
X154607Y226919D01*
X155341Y226856D01*
X156072Y226774D01*
X156802Y226675D01*
X157529Y226558D01*
X158253Y226424D01*
X158973Y226271D01*
X159689Y226101D01*
X160401Y225913D01*
X161109Y225708D01*
X161810Y225486D01*
X162507Y225246D01*
X163197Y224990D01*
X163881Y224716D01*
X164557Y224426D01*
X165227Y224120D01*
X165888Y223797D01*
X166542Y223458D01*
X167187Y223103D01*
X167823Y222732D01*
X168450Y222346D01*
X169067Y221944D01*
X169674Y221528D01*
X170271Y221096D01*
X170857Y220650D01*
X171432Y220190D01*
X171995Y219716D01*
X172547Y219229D01*
X173086Y218727D01*
X173613Y218213D01*
X174127Y217686D01*
X174629Y217147D01*
X175116Y216595D01*
X175590Y216032D01*
X176050Y215457D01*
X176496Y214871D01*
X176928Y214274D01*
X177344Y213667D01*
X177746Y213050D01*
X178132Y212423D01*
X178503Y211787D01*
X178858Y211142D01*
X179197Y210488D01*
X179520Y209827D01*
X179826Y209157D01*
X180116Y208481D01*
X180390Y207797D01*
X180646Y207107D01*
X180886Y206410D01*
X181108Y205709D01*
X181313Y205001D01*
X181501Y204289D01*
X181671Y203573D01*
X181824Y202853D01*
X181958Y202129D01*
X182075Y201402D01*
X182174Y200672D01*
X182256Y199941D01*
X182319Y199207D01*
X182364Y198472D01*
X182391Y197736D01*
X182400Y197000D01*
X182391Y196264D01*
X182364Y195528D01*
X182319Y194793D01*
X182256Y194059D01*
X182174Y193328D01*
X182075Y192598D01*
X181958Y191871D01*
X181824Y191147D01*
X181671Y190427D01*
X181501Y189711D01*
X181313Y188999D01*
X181108Y188291D01*
X180886Y187590D01*
X180646Y186893D01*
X180390Y186203D01*
X180116Y185519D01*
X179826Y184843D01*
X179520Y184173D01*
X179197Y183512D01*
X178858Y182858D01*
X178503Y182213D01*
X178132Y181577D01*
X177746Y180950D01*
X177344Y180333D01*
X176928Y179726D01*
X176496Y179129D01*
X176050Y178543D01*
X175590Y177968D01*
X175116Y177405D01*
X174629Y176853D01*
X174127Y176314D01*
X173613Y175787D01*
X173086Y175273D01*
X172547Y174771D01*
X171995Y174284D01*
X171432Y173810D01*
X170857Y173350D01*
X170271Y172904D01*
X169674Y172472D01*
X169067Y172056D01*
X168450Y171654D01*
X167823Y171268D01*
X167187Y170897D01*
X166542Y170542D01*
X165888Y170203D01*
X165227Y169880D01*
X164557Y169574D01*
X163881Y169284D01*
X163197Y169010D01*
X162507Y168754D01*
X161810Y168514D01*
X161109Y168292D01*
X160401Y168087D01*
X159689Y167899D01*
X158973Y167729D01*
X158253Y167576D01*
X157529Y167442D01*
X156802Y167325D01*
X156072Y167226D01*
X155341Y167144D01*
X154607Y167081D01*
X153872Y167036D01*
X153136Y167009D01*
X152400Y167000D01*
X151664Y167009D01*
X150928Y167036D01*
X150193Y167081D01*
X149459Y167144D01*
X148728Y167226D01*
X147998Y167325D01*
X147271Y167442D01*
X146547Y167576D01*
X145827Y167729D01*
X145111Y167899D01*
X144399Y168087D01*
X143691Y168292D01*
X142990Y168514D01*
X142293Y168754D01*
X141603Y169010D01*
X140919Y169284D01*
X140243Y169574D01*
X139573Y169880D01*
X138912Y170203D01*
X138258Y170542D01*
X137613Y170897D01*
X136977Y171268D01*
X136350Y171654D01*
X135733Y172056D01*
X135126Y172472D01*
X134529Y172904D01*
X133943Y173350D01*
X133368Y173810D01*
X132805Y174284D01*
X132253Y174771D01*
X131714Y175273D01*
X131187Y175787D01*
X130673Y176314D01*
X130171Y176853D01*
X129684Y177405D01*
X129210Y177968D01*
X128750Y178543D01*
X128304Y179129D01*
X127872Y179726D01*
X127456Y180333D01*
X127054Y180950D01*
X126668Y181577D01*
X126297Y182213D01*
X125942Y182858D01*
X125603Y183512D01*
X125280Y184173D01*
X124974Y184843D01*
X124684Y185519D01*
X124410Y186203D01*
X124154Y186893D01*
X123914Y187590D01*
X123692Y188291D01*
X123487Y188999D01*
X123299Y189711D01*
X123129Y190427D01*
X122976Y191147D01*
X122842Y191871D01*
X122725Y192598D01*
X122626Y193328D01*
X122544Y194059D01*
X122481Y194793D01*
X122436Y195528D01*
X122409Y196264D01*
X122400Y197000D01*
X102400Y177000D02*
X102400Y127000D01*
X102400Y217000D02*
X102400Y252000D01*
X202400Y252000D01*
X202400Y217000D01*
X202400Y177000D02*
X202400Y127000D01*
X192400Y127000D01*
X112400Y127000D02*
X102400Y127000D01*
D10*
X102362Y254762D02*
X102362Y265938D01*
X105466Y265938D01*
X105577Y265936D01*
X105687Y265930D01*
X105798Y265920D01*
X105908Y265906D01*
X106017Y265889D01*
X106126Y265867D01*
X106234Y265842D01*
X106340Y265812D01*
X106446Y265779D01*
X106551Y265742D01*
X106654Y265702D01*
X106755Y265657D01*
X106855Y265610D01*
X106954Y265558D01*
X107050Y265503D01*
X107144Y265445D01*
X107236Y265384D01*
X107326Y265319D01*
X107414Y265251D01*
X107499Y265180D01*
X107581Y265106D01*
X107661Y265029D01*
X107738Y264949D01*
X107812Y264867D01*
X107883Y264782D01*
X107951Y264694D01*
X108016Y264604D01*
X108077Y264512D01*
X108135Y264418D01*
X108190Y264322D01*
X108242Y264223D01*
X108289Y264123D01*
X108334Y264022D01*
X108374Y263919D01*
X108411Y263814D01*
X108444Y263708D01*
X108474Y263602D01*
X108499Y263494D01*
X108521Y263385D01*
X108538Y263276D01*
X108552Y263166D01*
X108562Y263055D01*
X108568Y262945D01*
X108570Y262834D01*
X108568Y262723D01*
X108562Y262613D01*
X108552Y262502D01*
X108538Y262392D01*
X108521Y262283D01*
X108499Y262174D01*
X108474Y262066D01*
X108444Y261960D01*
X108411Y261854D01*
X108374Y261749D01*
X108334Y261646D01*
X108289Y261545D01*
X108242Y261445D01*
X108190Y261346D01*
X108135Y261250D01*
X108077Y261156D01*
X108016Y261064D01*
X107951Y260974D01*
X107883Y260886D01*
X107812Y260801D01*
X107738Y260719D01*
X107661Y260639D01*
X107581Y260562D01*
X107499Y260488D01*
X107414Y260417D01*
X107326Y260349D01*
X107236Y260284D01*
X107144Y260223D01*
X107050Y260165D01*
X106954Y260110D01*
X106855Y260058D01*
X106755Y260011D01*
X106654Y259966D01*
X106551Y259926D01*
X106446Y259889D01*
X106340Y259856D01*
X106234Y259826D01*
X106126Y259801D01*
X106017Y259779D01*
X105908Y259762D01*
X105798Y259748D01*
X105687Y259738D01*
X105577Y259732D01*
X105466Y259730D01*
X105466Y259729D02*
X102362Y259729D01*
X106087Y259729D02*
X108571Y254762D01*
X113700Y260971D02*
X117425Y260971D01*
X117523Y260969D01*
X117620Y260963D01*
X117717Y260954D01*
X117814Y260940D01*
X117910Y260923D01*
X118005Y260902D01*
X118099Y260878D01*
X118193Y260849D01*
X118285Y260817D01*
X118376Y260782D01*
X118465Y260743D01*
X118553Y260700D01*
X118639Y260654D01*
X118723Y260605D01*
X118805Y260552D01*
X118885Y260497D01*
X118963Y260438D01*
X119038Y260376D01*
X119111Y260311D01*
X119181Y260243D01*
X119249Y260173D01*
X119314Y260100D01*
X119376Y260025D01*
X119435Y259947D01*
X119490Y259867D01*
X119543Y259785D01*
X119592Y259701D01*
X119638Y259615D01*
X119681Y259527D01*
X119720Y259438D01*
X119755Y259347D01*
X119787Y259255D01*
X119816Y259161D01*
X119840Y259067D01*
X119861Y258972D01*
X119878Y258876D01*
X119892Y258779D01*
X119901Y258682D01*
X119907Y258585D01*
X119909Y258487D01*
X119909Y257866D01*
X119908Y257866D02*
X119906Y257755D01*
X119900Y257645D01*
X119890Y257534D01*
X119876Y257424D01*
X119859Y257315D01*
X119837Y257206D01*
X119812Y257098D01*
X119782Y256992D01*
X119749Y256886D01*
X119712Y256781D01*
X119672Y256678D01*
X119627Y256577D01*
X119580Y256477D01*
X119528Y256378D01*
X119473Y256282D01*
X119415Y256188D01*
X119354Y256096D01*
X119289Y256006D01*
X119221Y255918D01*
X119150Y255833D01*
X119076Y255751D01*
X118999Y255671D01*
X118919Y255594D01*
X118837Y255520D01*
X118752Y255449D01*
X118664Y255381D01*
X118574Y255316D01*
X118482Y255255D01*
X118388Y255197D01*
X118292Y255142D01*
X118193Y255090D01*
X118093Y255043D01*
X117992Y254998D01*
X117889Y254958D01*
X117784Y254921D01*
X117678Y254888D01*
X117572Y254858D01*
X117464Y254833D01*
X117355Y254811D01*
X117246Y254794D01*
X117136Y254780D01*
X117025Y254770D01*
X116915Y254764D01*
X116804Y254762D01*
X116693Y254764D01*
X116583Y254770D01*
X116472Y254780D01*
X116362Y254794D01*
X116253Y254811D01*
X116144Y254833D01*
X116036Y254858D01*
X115930Y254888D01*
X115824Y254921D01*
X115719Y254958D01*
X115616Y254998D01*
X115515Y255043D01*
X115415Y255090D01*
X115316Y255142D01*
X115220Y255197D01*
X115126Y255255D01*
X115034Y255316D01*
X114944Y255381D01*
X114856Y255449D01*
X114771Y255520D01*
X114689Y255594D01*
X114609Y255671D01*
X114532Y255751D01*
X114458Y255833D01*
X114387Y255918D01*
X114319Y256006D01*
X114254Y256096D01*
X114193Y256188D01*
X114135Y256282D01*
X114080Y256378D01*
X114028Y256477D01*
X113981Y256577D01*
X113936Y256678D01*
X113896Y256781D01*
X113859Y256886D01*
X113826Y256992D01*
X113796Y257098D01*
X113771Y257206D01*
X113749Y257315D01*
X113732Y257424D01*
X113718Y257534D01*
X113708Y257645D01*
X113702Y257755D01*
X113700Y257866D01*
X113700Y260971D01*
X113702Y261110D01*
X113708Y261250D01*
X113718Y261388D01*
X113731Y261527D01*
X113749Y261665D01*
X113770Y261803D01*
X113795Y261940D01*
X113825Y262076D01*
X113857Y262212D01*
X113894Y262346D01*
X113935Y262479D01*
X113979Y262611D01*
X114027Y262742D01*
X114078Y262872D01*
X114133Y263000D01*
X114192Y263126D01*
X114254Y263251D01*
X114320Y263374D01*
X114389Y263495D01*
X114461Y263614D01*
X114537Y263731D01*
X114616Y263845D01*
X114698Y263958D01*
X114784Y264068D01*
X114872Y264176D01*
X114963Y264281D01*
X115058Y264383D01*
X115155Y264483D01*
X115255Y264580D01*
X115357Y264675D01*
X115462Y264766D01*
X115570Y264854D01*
X115680Y264940D01*
X115793Y265022D01*
X115907Y265101D01*
X116024Y265177D01*
X116143Y265249D01*
X116264Y265318D01*
X116387Y265384D01*
X116512Y265446D01*
X116638Y265505D01*
X116766Y265560D01*
X116896Y265611D01*
X117026Y265659D01*
X117159Y265703D01*
X117292Y265744D01*
X117426Y265781D01*
X117562Y265813D01*
X117698Y265843D01*
X117835Y265868D01*
X117973Y265889D01*
X118111Y265907D01*
X118249Y265920D01*
X118388Y265930D01*
X118528Y265936D01*
X118667Y265938D01*
D11*
X1084200Y754300D02*
X1100200Y754300D01*
X1100200Y744300D02*
X1084200Y744300D01*
X1094200Y747300D02*
X1094200Y751300D01*
D10*
X1080262Y762762D02*
X1080262Y773938D01*
X1083366Y773938D01*
X1083477Y773936D01*
X1083587Y773930D01*
X1083698Y773920D01*
X1083808Y773906D01*
X1083917Y773889D01*
X1084026Y773867D01*
X1084134Y773842D01*
X1084240Y773812D01*
X1084346Y773779D01*
X1084451Y773742D01*
X1084554Y773702D01*
X1084655Y773657D01*
X1084755Y773610D01*
X1084854Y773558D01*
X1084950Y773503D01*
X1085044Y773445D01*
X1085136Y773384D01*
X1085226Y773319D01*
X1085314Y773251D01*
X1085399Y773180D01*
X1085481Y773106D01*
X1085561Y773029D01*
X1085638Y772949D01*
X1085712Y772867D01*
X1085783Y772782D01*
X1085851Y772694D01*
X1085916Y772604D01*
X1085977Y772512D01*
X1086035Y772418D01*
X1086090Y772322D01*
X1086142Y772223D01*
X1086189Y772123D01*
X1086234Y772022D01*
X1086274Y771919D01*
X1086311Y771814D01*
X1086344Y771708D01*
X1086374Y771602D01*
X1086399Y771494D01*
X1086421Y771385D01*
X1086438Y771276D01*
X1086452Y771166D01*
X1086462Y771055D01*
X1086468Y770945D01*
X1086470Y770834D01*
X1086471Y770834D02*
X1086471Y765866D01*
X1086470Y765866D02*
X1086468Y765755D01*
X1086462Y765645D01*
X1086452Y765534D01*
X1086438Y765424D01*
X1086421Y765315D01*
X1086399Y765206D01*
X1086374Y765098D01*
X1086344Y764992D01*
X1086311Y764886D01*
X1086274Y764781D01*
X1086234Y764678D01*
X1086189Y764577D01*
X1086142Y764477D01*
X1086090Y764378D01*
X1086035Y764282D01*
X1085977Y764188D01*
X1085916Y764096D01*
X1085851Y764006D01*
X1085783Y763918D01*
X1085712Y763833D01*
X1085638Y763751D01*
X1085561Y763671D01*
X1085481Y763594D01*
X1085399Y763520D01*
X1085314Y763449D01*
X1085226Y763381D01*
X1085136Y763316D01*
X1085044Y763255D01*
X1084950Y763197D01*
X1084854Y763142D01*
X1084755Y763090D01*
X1084655Y763043D01*
X1084554Y762998D01*
X1084451Y762958D01*
X1084346Y762921D01*
X1084240Y762888D01*
X1084134Y762858D01*
X1084026Y762833D01*
X1083917Y762811D01*
X1083808Y762794D01*
X1083698Y762780D01*
X1083587Y762770D01*
X1083477Y762764D01*
X1083366Y762762D01*
X1080262Y762762D01*
X1092073Y771454D02*
X1095177Y773938D01*
X1095177Y762762D01*
X1092073Y762762D02*
X1098282Y762762D01*
D11*
X1100200Y690800D02*
X1084200Y690800D01*
X1084200Y680800D02*
X1100200Y680800D01*
X1094200Y683800D02*
X1094200Y687800D01*
D10*
X1080262Y699262D02*
X1080262Y710438D01*
X1083366Y710438D01*
X1083477Y710436D01*
X1083587Y710430D01*
X1083698Y710420D01*
X1083808Y710406D01*
X1083917Y710389D01*
X1084026Y710367D01*
X1084134Y710342D01*
X1084240Y710312D01*
X1084346Y710279D01*
X1084451Y710242D01*
X1084554Y710202D01*
X1084655Y710157D01*
X1084755Y710110D01*
X1084854Y710058D01*
X1084950Y710003D01*
X1085044Y709945D01*
X1085136Y709884D01*
X1085226Y709819D01*
X1085314Y709751D01*
X1085399Y709680D01*
X1085481Y709606D01*
X1085561Y709529D01*
X1085638Y709449D01*
X1085712Y709367D01*
X1085783Y709282D01*
X1085851Y709194D01*
X1085916Y709104D01*
X1085977Y709012D01*
X1086035Y708918D01*
X1086090Y708822D01*
X1086142Y708723D01*
X1086189Y708623D01*
X1086234Y708522D01*
X1086274Y708419D01*
X1086311Y708314D01*
X1086344Y708208D01*
X1086374Y708102D01*
X1086399Y707994D01*
X1086421Y707885D01*
X1086438Y707776D01*
X1086452Y707666D01*
X1086462Y707555D01*
X1086468Y707445D01*
X1086470Y707334D01*
X1086471Y707334D02*
X1086471Y702366D01*
X1086470Y702366D02*
X1086468Y702255D01*
X1086462Y702145D01*
X1086452Y702034D01*
X1086438Y701924D01*
X1086421Y701815D01*
X1086399Y701706D01*
X1086374Y701598D01*
X1086344Y701492D01*
X1086311Y701386D01*
X1086274Y701281D01*
X1086234Y701178D01*
X1086189Y701077D01*
X1086142Y700977D01*
X1086090Y700878D01*
X1086035Y700782D01*
X1085977Y700688D01*
X1085916Y700596D01*
X1085851Y700506D01*
X1085783Y700418D01*
X1085712Y700333D01*
X1085638Y700251D01*
X1085561Y700171D01*
X1085481Y700094D01*
X1085399Y700020D01*
X1085314Y699949D01*
X1085226Y699881D01*
X1085136Y699816D01*
X1085044Y699755D01*
X1084950Y699697D01*
X1084854Y699642D01*
X1084755Y699590D01*
X1084655Y699543D01*
X1084554Y699498D01*
X1084451Y699458D01*
X1084346Y699421D01*
X1084240Y699388D01*
X1084134Y699358D01*
X1084026Y699333D01*
X1083917Y699311D01*
X1083808Y699294D01*
X1083698Y699280D01*
X1083587Y699270D01*
X1083477Y699264D01*
X1083366Y699262D01*
X1080262Y699262D01*
X1095488Y710438D02*
X1095592Y710436D01*
X1095697Y710430D01*
X1095801Y710420D01*
X1095904Y710407D01*
X1096007Y710389D01*
X1096110Y710368D01*
X1096211Y710343D01*
X1096312Y710314D01*
X1096411Y710281D01*
X1096509Y710245D01*
X1096605Y710205D01*
X1096700Y710161D01*
X1096794Y710114D01*
X1096885Y710064D01*
X1096974Y710010D01*
X1097062Y709953D01*
X1097147Y709892D01*
X1097230Y709828D01*
X1097310Y709762D01*
X1097388Y709692D01*
X1097464Y709620D01*
X1097536Y709544D01*
X1097606Y709466D01*
X1097672Y709386D01*
X1097736Y709303D01*
X1097797Y709218D01*
X1097854Y709130D01*
X1097908Y709041D01*
X1097958Y708950D01*
X1098005Y708856D01*
X1098049Y708761D01*
X1098089Y708665D01*
X1098125Y708567D01*
X1098158Y708468D01*
X1098187Y708367D01*
X1098212Y708266D01*
X1098233Y708163D01*
X1098251Y708060D01*
X1098264Y707957D01*
X1098274Y707853D01*
X1098280Y707748D01*
X1098282Y707644D01*
X1095488Y710439D02*
X1095369Y710437D01*
X1095251Y710431D01*
X1095132Y710421D01*
X1095014Y710408D01*
X1094897Y710390D01*
X1094780Y710368D01*
X1094664Y710343D01*
X1094549Y710314D01*
X1094434Y710281D01*
X1094321Y710244D01*
X1094210Y710204D01*
X1094099Y710160D01*
X1093991Y710112D01*
X1093884Y710061D01*
X1093778Y710006D01*
X1093675Y709947D01*
X1093573Y709886D01*
X1093474Y709821D01*
X1093376Y709752D01*
X1093282Y709681D01*
X1093189Y709606D01*
X1093099Y709529D01*
X1093012Y709448D01*
X1092927Y709365D01*
X1092845Y709279D01*
X1092766Y709190D01*
X1092690Y709099D01*
X1092617Y709005D01*
X1092548Y708909D01*
X1092481Y708810D01*
X1092418Y708710D01*
X1092358Y708607D01*
X1092301Y708503D01*
X1092249Y708396D01*
X1092199Y708288D01*
X1092153Y708179D01*
X1092111Y708067D01*
X1092073Y707955D01*
X1097351Y705471D02*
X1097426Y705545D01*
X1097498Y705622D01*
X1097568Y705701D01*
X1097635Y705783D01*
X1097699Y705867D01*
X1097760Y705953D01*
X1097818Y706041D01*
X1097873Y706132D01*
X1097925Y706224D01*
X1097973Y706318D01*
X1098018Y706413D01*
X1098060Y706511D01*
X1098098Y706609D01*
X1098133Y706709D01*
X1098164Y706810D01*
X1098191Y706912D01*
X1098215Y707015D01*
X1098236Y707118D01*
X1098252Y707223D01*
X1098265Y707328D01*
X1098275Y707433D01*
X1098280Y707538D01*
X1098282Y707644D01*
X1097351Y705471D02*
X1092073Y699262D01*
X1098282Y699262D01*
D11*
X1100200Y627300D02*
X1084200Y627300D01*
X1084200Y617300D02*
X1100200Y617300D01*
X1094200Y620300D02*
X1094200Y624300D01*
D10*
X1080262Y635762D02*
X1080262Y646938D01*
X1083366Y646938D01*
X1083477Y646936D01*
X1083587Y646930D01*
X1083698Y646920D01*
X1083808Y646906D01*
X1083917Y646889D01*
X1084026Y646867D01*
X1084134Y646842D01*
X1084240Y646812D01*
X1084346Y646779D01*
X1084451Y646742D01*
X1084554Y646702D01*
X1084655Y646657D01*
X1084755Y646610D01*
X1084854Y646558D01*
X1084950Y646503D01*
X1085044Y646445D01*
X1085136Y646384D01*
X1085226Y646319D01*
X1085314Y646251D01*
X1085399Y646180D01*
X1085481Y646106D01*
X1085561Y646029D01*
X1085638Y645949D01*
X1085712Y645867D01*
X1085783Y645782D01*
X1085851Y645694D01*
X1085916Y645604D01*
X1085977Y645512D01*
X1086035Y645418D01*
X1086090Y645322D01*
X1086142Y645223D01*
X1086189Y645123D01*
X1086234Y645022D01*
X1086274Y644919D01*
X1086311Y644814D01*
X1086344Y644708D01*
X1086374Y644602D01*
X1086399Y644494D01*
X1086421Y644385D01*
X1086438Y644276D01*
X1086452Y644166D01*
X1086462Y644055D01*
X1086468Y643945D01*
X1086470Y643834D01*
X1086471Y643834D02*
X1086471Y638866D01*
X1086470Y638866D02*
X1086468Y638755D01*
X1086462Y638645D01*
X1086452Y638534D01*
X1086438Y638424D01*
X1086421Y638315D01*
X1086399Y638206D01*
X1086374Y638098D01*
X1086344Y637992D01*
X1086311Y637886D01*
X1086274Y637781D01*
X1086234Y637678D01*
X1086189Y637577D01*
X1086142Y637477D01*
X1086090Y637378D01*
X1086035Y637282D01*
X1085977Y637188D01*
X1085916Y637096D01*
X1085851Y637006D01*
X1085783Y636918D01*
X1085712Y636833D01*
X1085638Y636751D01*
X1085561Y636671D01*
X1085481Y636594D01*
X1085399Y636520D01*
X1085314Y636449D01*
X1085226Y636381D01*
X1085136Y636316D01*
X1085044Y636255D01*
X1084950Y636197D01*
X1084854Y636142D01*
X1084755Y636090D01*
X1084655Y636043D01*
X1084554Y635998D01*
X1084451Y635958D01*
X1084346Y635921D01*
X1084240Y635888D01*
X1084134Y635858D01*
X1084026Y635833D01*
X1083917Y635811D01*
X1083808Y635794D01*
X1083698Y635780D01*
X1083587Y635770D01*
X1083477Y635764D01*
X1083366Y635762D01*
X1080262Y635762D01*
X1092073Y635762D02*
X1095177Y635762D01*
X1095288Y635764D01*
X1095398Y635770D01*
X1095509Y635780D01*
X1095619Y635794D01*
X1095728Y635811D01*
X1095837Y635833D01*
X1095945Y635858D01*
X1096051Y635888D01*
X1096157Y635921D01*
X1096262Y635958D01*
X1096365Y635998D01*
X1096466Y636043D01*
X1096566Y636090D01*
X1096665Y636142D01*
X1096761Y636197D01*
X1096855Y636255D01*
X1096947Y636316D01*
X1097037Y636381D01*
X1097125Y636449D01*
X1097210Y636520D01*
X1097292Y636594D01*
X1097372Y636671D01*
X1097449Y636751D01*
X1097523Y636833D01*
X1097594Y636918D01*
X1097662Y637006D01*
X1097727Y637096D01*
X1097788Y637188D01*
X1097846Y637282D01*
X1097901Y637378D01*
X1097953Y637477D01*
X1098000Y637577D01*
X1098045Y637678D01*
X1098085Y637781D01*
X1098122Y637886D01*
X1098155Y637992D01*
X1098185Y638098D01*
X1098210Y638206D01*
X1098232Y638315D01*
X1098249Y638424D01*
X1098263Y638534D01*
X1098273Y638645D01*
X1098279Y638755D01*
X1098281Y638866D01*
X1098279Y638977D01*
X1098273Y639087D01*
X1098263Y639198D01*
X1098249Y639308D01*
X1098232Y639417D01*
X1098210Y639526D01*
X1098185Y639634D01*
X1098155Y639740D01*
X1098122Y639846D01*
X1098085Y639951D01*
X1098045Y640054D01*
X1098000Y640155D01*
X1097953Y640255D01*
X1097901Y640354D01*
X1097846Y640450D01*
X1097788Y640544D01*
X1097727Y640636D01*
X1097662Y640726D01*
X1097594Y640814D01*
X1097523Y640899D01*
X1097449Y640981D01*
X1097372Y641061D01*
X1097292Y641138D01*
X1097210Y641212D01*
X1097125Y641283D01*
X1097037Y641351D01*
X1096947Y641416D01*
X1096855Y641477D01*
X1096761Y641535D01*
X1096665Y641590D01*
X1096566Y641642D01*
X1096466Y641689D01*
X1096365Y641734D01*
X1096262Y641774D01*
X1096157Y641811D01*
X1096051Y641844D01*
X1095945Y641874D01*
X1095837Y641899D01*
X1095728Y641921D01*
X1095619Y641938D01*
X1095509Y641952D01*
X1095398Y641962D01*
X1095288Y641968D01*
X1095177Y641970D01*
X1095798Y646938D02*
X1092073Y646938D01*
X1095798Y646938D02*
X1095897Y646936D01*
X1095995Y646930D01*
X1096094Y646920D01*
X1096191Y646907D01*
X1096289Y646889D01*
X1096385Y646868D01*
X1096481Y646842D01*
X1096575Y646813D01*
X1096668Y646781D01*
X1096760Y646744D01*
X1096850Y646704D01*
X1096939Y646660D01*
X1097026Y646613D01*
X1097111Y646563D01*
X1097193Y646509D01*
X1097274Y646452D01*
X1097352Y646392D01*
X1097428Y646328D01*
X1097501Y646262D01*
X1097572Y646193D01*
X1097640Y646121D01*
X1097704Y646046D01*
X1097766Y645969D01*
X1097825Y645890D01*
X1097880Y645808D01*
X1097933Y645724D01*
X1097981Y645639D01*
X1098027Y645551D01*
X1098069Y645461D01*
X1098107Y645370D01*
X1098141Y645278D01*
X1098172Y645184D01*
X1098199Y645089D01*
X1098223Y644993D01*
X1098242Y644896D01*
X1098258Y644799D01*
X1098270Y644701D01*
X1098278Y644602D01*
X1098282Y644503D01*
X1098282Y644405D01*
X1098278Y644306D01*
X1098270Y644207D01*
X1098258Y644109D01*
X1098242Y644012D01*
X1098223Y643915D01*
X1098199Y643819D01*
X1098172Y643724D01*
X1098141Y643630D01*
X1098107Y643538D01*
X1098069Y643447D01*
X1098027Y643357D01*
X1097981Y643269D01*
X1097933Y643184D01*
X1097880Y643100D01*
X1097825Y643018D01*
X1097766Y642939D01*
X1097704Y642862D01*
X1097640Y642787D01*
X1097572Y642715D01*
X1097501Y642646D01*
X1097428Y642580D01*
X1097352Y642516D01*
X1097274Y642456D01*
X1097193Y642399D01*
X1097111Y642345D01*
X1097026Y642295D01*
X1096939Y642248D01*
X1096850Y642204D01*
X1096760Y642164D01*
X1096668Y642127D01*
X1096575Y642095D01*
X1096481Y642066D01*
X1096385Y642040D01*
X1096289Y642019D01*
X1096191Y642001D01*
X1096094Y641988D01*
X1095995Y641978D01*
X1095897Y641972D01*
X1095798Y641970D01*
X1095798Y641971D02*
X1093315Y641971D01*
D12*
X76200Y922020D02*
X75586Y922013D01*
X74973Y921990D01*
X74360Y921953D01*
X73749Y921901D01*
X73138Y921835D01*
X72530Y921753D01*
X71924Y921657D01*
X71320Y921547D01*
X70719Y921422D01*
X70121Y921282D01*
X69527Y921128D01*
X68937Y920959D01*
X68351Y920777D01*
X67770Y920580D01*
X67193Y920369D01*
X66622Y920145D01*
X66056Y919907D01*
X65496Y919655D01*
X64943Y919389D01*
X64396Y919111D01*
X63856Y918819D01*
X63323Y918514D01*
X62798Y918196D01*
X62280Y917866D01*
X61771Y917524D01*
X61270Y917169D01*
X60778Y916802D01*
X60295Y916424D01*
X59821Y916034D01*
X59357Y915632D01*
X58902Y915220D01*
X58458Y914796D01*
X58024Y914362D01*
X57600Y913918D01*
X57188Y913463D01*
X56786Y912999D01*
X56396Y912525D01*
X56018Y912042D01*
X55651Y911550D01*
X55296Y911049D01*
X54954Y910540D01*
X54624Y910022D01*
X54306Y909497D01*
X54001Y908964D01*
X53709Y908424D01*
X53431Y907877D01*
X53165Y907324D01*
X52913Y906764D01*
X52675Y906198D01*
X52451Y905627D01*
X52240Y905050D01*
X52043Y904469D01*
X51861Y903883D01*
X51692Y903293D01*
X51538Y902699D01*
X51398Y902101D01*
X51273Y901500D01*
X51163Y900896D01*
X51067Y900290D01*
X50985Y899682D01*
X50919Y899071D01*
X50867Y898460D01*
X50830Y897847D01*
X50807Y897234D01*
X50800Y896620D01*
X50800Y322580D01*
X50807Y321966D01*
X50830Y321353D01*
X50867Y320740D01*
X50919Y320129D01*
X50985Y319518D01*
X51067Y318910D01*
X51163Y318304D01*
X51273Y317700D01*
X51398Y317099D01*
X51538Y316501D01*
X51692Y315907D01*
X51861Y315317D01*
X52043Y314731D01*
X52240Y314150D01*
X52451Y313573D01*
X52675Y313002D01*
X52913Y312436D01*
X53165Y311876D01*
X53431Y311323D01*
X53709Y310776D01*
X54001Y310236D01*
X54306Y309703D01*
X54624Y309178D01*
X54954Y308660D01*
X55296Y308151D01*
X55651Y307650D01*
X56018Y307158D01*
X56396Y306675D01*
X56786Y306201D01*
X57188Y305737D01*
X57600Y305282D01*
X58024Y304838D01*
X58458Y304404D01*
X58902Y303980D01*
X59357Y303568D01*
X59821Y303166D01*
X60295Y302776D01*
X60778Y302398D01*
X61270Y302031D01*
X61771Y301676D01*
X62280Y301334D01*
X62798Y301004D01*
X63323Y300686D01*
X63856Y300381D01*
X64396Y300089D01*
X64943Y299811D01*
X65496Y299545D01*
X66056Y299293D01*
X66622Y299055D01*
X67193Y298831D01*
X67770Y298620D01*
X68351Y298423D01*
X68937Y298241D01*
X69527Y298072D01*
X70121Y297918D01*
X70719Y297778D01*
X71320Y297653D01*
X71924Y297543D01*
X72530Y297447D01*
X73138Y297365D01*
X73749Y297299D01*
X74360Y297247D01*
X74973Y297210D01*
X75586Y297187D01*
X76200Y297180D01*
X76814Y297187D01*
X77427Y297210D01*
X78040Y297247D01*
X78651Y297299D01*
X79262Y297365D01*
X79870Y297447D01*
X80476Y297543D01*
X81080Y297653D01*
X81681Y297778D01*
X82279Y297918D01*
X82873Y298072D01*
X83463Y298241D01*
X84049Y298423D01*
X84630Y298620D01*
X85207Y298831D01*
X85778Y299055D01*
X86344Y299293D01*
X86904Y299545D01*
X87457Y299811D01*
X88004Y300089D01*
X88544Y300381D01*
X89077Y300686D01*
X89602Y301004D01*
X90120Y301334D01*
X90629Y301676D01*
X91130Y302031D01*
X91622Y302398D01*
X92105Y302776D01*
X92579Y303166D01*
X93043Y303568D01*
X93498Y303980D01*
X93942Y304404D01*
X94376Y304838D01*
X94800Y305282D01*
X95212Y305737D01*
X95614Y306201D01*
X96004Y306675D01*
X96382Y307158D01*
X96749Y307650D01*
X97104Y308151D01*
X97446Y308660D01*
X97776Y309178D01*
X98094Y309703D01*
X98399Y310236D01*
X98691Y310776D01*
X98969Y311323D01*
X99235Y311876D01*
X99487Y312436D01*
X99725Y313002D01*
X99949Y313573D01*
X100160Y314150D01*
X100357Y314731D01*
X100539Y315317D01*
X100708Y315907D01*
X100862Y316501D01*
X101002Y317099D01*
X101127Y317700D01*
X101237Y318304D01*
X101333Y318910D01*
X101415Y319518D01*
X101481Y320129D01*
X101533Y320740D01*
X101570Y321353D01*
X101593Y321966D01*
X101600Y322580D01*
X101600Y355600D01*
X812800Y355600D01*
X812800Y322580D01*
X812807Y321966D01*
X812830Y321353D01*
X812867Y320740D01*
X812919Y320129D01*
X812985Y319518D01*
X813067Y318910D01*
X813163Y318304D01*
X813273Y317700D01*
X813398Y317099D01*
X813538Y316501D01*
X813692Y315907D01*
X813861Y315317D01*
X814043Y314731D01*
X814240Y314150D01*
X814451Y313573D01*
X814675Y313002D01*
X814913Y312436D01*
X815165Y311876D01*
X815431Y311323D01*
X815709Y310776D01*
X816001Y310236D01*
X816306Y309703D01*
X816624Y309178D01*
X816954Y308660D01*
X817296Y308151D01*
X817651Y307650D01*
X818018Y307158D01*
X818396Y306675D01*
X818786Y306201D01*
X819188Y305737D01*
X819600Y305282D01*
X820024Y304838D01*
X820458Y304404D01*
X820902Y303980D01*
X821357Y303568D01*
X821821Y303166D01*
X822295Y302776D01*
X822778Y302398D01*
X823270Y302031D01*
X823771Y301676D01*
X824280Y301334D01*
X824798Y301004D01*
X825323Y300686D01*
X825856Y300381D01*
X826396Y300089D01*
X826943Y299811D01*
X827496Y299545D01*
X828056Y299293D01*
X828622Y299055D01*
X829193Y298831D01*
X829770Y298620D01*
X830351Y298423D01*
X830937Y298241D01*
X831527Y298072D01*
X832121Y297918D01*
X832719Y297778D01*
X833320Y297653D01*
X833924Y297543D01*
X834530Y297447D01*
X835138Y297365D01*
X835749Y297299D01*
X836360Y297247D01*
X836973Y297210D01*
X837586Y297187D01*
X838200Y297180D01*
X838814Y297187D01*
X839427Y297210D01*
X840040Y297247D01*
X840651Y297299D01*
X841262Y297365D01*
X841870Y297447D01*
X842476Y297543D01*
X843080Y297653D01*
X843681Y297778D01*
X844279Y297918D01*
X844873Y298072D01*
X845463Y298241D01*
X846049Y298423D01*
X846630Y298620D01*
X847207Y298831D01*
X847778Y299055D01*
X848344Y299293D01*
X848904Y299545D01*
X849457Y299811D01*
X850004Y300089D01*
X850544Y300381D01*
X851077Y300686D01*
X851602Y301004D01*
X852120Y301334D01*
X852629Y301676D01*
X853130Y302031D01*
X853622Y302398D01*
X854105Y302776D01*
X854579Y303166D01*
X855043Y303568D01*
X855498Y303980D01*
X855942Y304404D01*
X856376Y304838D01*
X856800Y305282D01*
X857212Y305737D01*
X857614Y306201D01*
X858004Y306675D01*
X858382Y307158D01*
X858749Y307650D01*
X859104Y308151D01*
X859446Y308660D01*
X859776Y309178D01*
X860094Y309703D01*
X860399Y310236D01*
X860691Y310776D01*
X860969Y311323D01*
X861235Y311876D01*
X861487Y312436D01*
X861725Y313002D01*
X861949Y313573D01*
X862160Y314150D01*
X862357Y314731D01*
X862539Y315317D01*
X862708Y315907D01*
X862862Y316501D01*
X863002Y317099D01*
X863127Y317700D01*
X863237Y318304D01*
X863333Y318910D01*
X863415Y319518D01*
X863481Y320129D01*
X863533Y320740D01*
X863570Y321353D01*
X863593Y321966D01*
X863600Y322580D01*
X863600Y896620D01*
X863593Y897234D01*
X863570Y897847D01*
X863533Y898460D01*
X863481Y899071D01*
X863415Y899682D01*
X863333Y900290D01*
X863237Y900896D01*
X863127Y901500D01*
X863002Y902101D01*
X862862Y902699D01*
X862708Y903293D01*
X862539Y903883D01*
X862357Y904469D01*
X862160Y905050D01*
X861949Y905627D01*
X861725Y906198D01*
X861487Y906764D01*
X861235Y907324D01*
X860969Y907877D01*
X860691Y908424D01*
X860399Y908964D01*
X860094Y909497D01*
X859776Y910022D01*
X859446Y910540D01*
X859104Y911049D01*
X858749Y911550D01*
X858382Y912042D01*
X858004Y912525D01*
X857614Y912999D01*
X857212Y913463D01*
X856800Y913918D01*
X856376Y914362D01*
X855942Y914796D01*
X855498Y915220D01*
X855043Y915632D01*
X854579Y916034D01*
X854105Y916424D01*
X853622Y916802D01*
X853130Y917169D01*
X852629Y917524D01*
X852120Y917866D01*
X851602Y918196D01*
X851077Y918514D01*
X850544Y918819D01*
X850004Y919111D01*
X849457Y919389D01*
X848904Y919655D01*
X848344Y919907D01*
X847778Y920145D01*
X847207Y920369D01*
X846630Y920580D01*
X846049Y920777D01*
X845463Y920959D01*
X844873Y921128D01*
X844279Y921282D01*
X843681Y921422D01*
X843080Y921547D01*
X842476Y921657D01*
X841870Y921753D01*
X841262Y921835D01*
X840651Y921901D01*
X840040Y921953D01*
X839427Y921990D01*
X838814Y922013D01*
X838200Y922020D01*
X837586Y922013D01*
X836973Y921990D01*
X836360Y921953D01*
X835749Y921901D01*
X835138Y921835D01*
X834530Y921753D01*
X833924Y921657D01*
X833320Y921547D01*
X832719Y921422D01*
X832121Y921282D01*
X831527Y921128D01*
X830937Y920959D01*
X830351Y920777D01*
X829770Y920580D01*
X829193Y920369D01*
X828622Y920145D01*
X828056Y919907D01*
X827496Y919655D01*
X826943Y919389D01*
X826396Y919111D01*
X825856Y918819D01*
X825323Y918514D01*
X824798Y918196D01*
X824280Y917866D01*
X823771Y917524D01*
X823270Y917169D01*
X822778Y916802D01*
X822295Y916424D01*
X821821Y916034D01*
X821357Y915632D01*
X820902Y915220D01*
X820458Y914796D01*
X820024Y914362D01*
X819600Y913918D01*
X819188Y913463D01*
X818786Y912999D01*
X818396Y912525D01*
X818018Y912042D01*
X817651Y911550D01*
X817296Y911049D01*
X816954Y910540D01*
X816624Y910022D01*
X816306Y909497D01*
X816001Y908964D01*
X815709Y908424D01*
X815431Y907877D01*
X815165Y907324D01*
X814913Y906764D01*
X814675Y906198D01*
X814451Y905627D01*
X814240Y905050D01*
X814043Y904469D01*
X813861Y903883D01*
X813692Y903293D01*
X813538Y902699D01*
X813398Y902101D01*
X813273Y901500D01*
X813163Y900896D01*
X813067Y900290D01*
X812985Y899682D01*
X812919Y899071D01*
X812867Y898460D01*
X812830Y897847D01*
X812807Y897234D01*
X812800Y896620D01*
X812800Y863600D01*
X101600Y863600D01*
X101600Y896620D01*
X101593Y897234D01*
X101570Y897847D01*
X101533Y898460D01*
X101481Y899071D01*
X101415Y899682D01*
X101333Y900290D01*
X101237Y900896D01*
X101127Y901500D01*
X101002Y902101D01*
X100862Y902699D01*
X100708Y903293D01*
X100539Y903883D01*
X100357Y904469D01*
X100160Y905050D01*
X99949Y905627D01*
X99725Y906198D01*
X99487Y906764D01*
X99235Y907324D01*
X98969Y907877D01*
X98691Y908424D01*
X98399Y908964D01*
X98094Y909497D01*
X97776Y910022D01*
X97446Y910540D01*
X97104Y911049D01*
X96749Y911550D01*
X96382Y912042D01*
X96004Y912525D01*
X95614Y912999D01*
X95212Y913463D01*
X94800Y913918D01*
X94376Y914362D01*
X93942Y914796D01*
X93498Y915220D01*
X93043Y915632D01*
X92579Y916034D01*
X92105Y916424D01*
X91622Y916802D01*
X91130Y917169D01*
X90629Y917524D01*
X90120Y917866D01*
X89602Y918196D01*
X89077Y918514D01*
X88544Y918819D01*
X88004Y919111D01*
X87457Y919389D01*
X86904Y919655D01*
X86344Y919907D01*
X85778Y920145D01*
X85207Y920369D01*
X84630Y920580D01*
X84049Y920777D01*
X83463Y920959D01*
X82873Y921128D01*
X82279Y921282D01*
X81681Y921422D01*
X81080Y921547D01*
X80476Y921657D01*
X79870Y921753D01*
X79262Y921835D01*
X78651Y921901D01*
X78040Y921953D01*
X77427Y921990D01*
X76814Y922013D01*
X76200Y922020D01*
D13*
X466796Y572022D02*
X466895Y572020D01*
X466995Y572014D01*
X467094Y572005D01*
X467192Y571992D01*
X467290Y571975D01*
X467388Y571954D01*
X467484Y571929D01*
X467579Y571901D01*
X467673Y571869D01*
X467766Y571834D01*
X467858Y571795D01*
X467948Y571752D01*
X468036Y571707D01*
X468123Y571657D01*
X468207Y571605D01*
X468290Y571549D01*
X468370Y571491D01*
X468448Y571429D01*
X468523Y571364D01*
X468596Y571296D01*
X468666Y571226D01*
X468734Y571153D01*
X468799Y571078D01*
X468861Y571000D01*
X468919Y570920D01*
X468975Y570837D01*
X469027Y570753D01*
X469077Y570666D01*
X469122Y570578D01*
X469165Y570488D01*
X469204Y570396D01*
X469239Y570303D01*
X469271Y570209D01*
X469299Y570114D01*
X469324Y570018D01*
X469345Y569920D01*
X469362Y569822D01*
X469375Y569724D01*
X469384Y569625D01*
X469390Y569525D01*
X469392Y569426D01*
X469390Y569282D01*
X469384Y569137D01*
X469375Y568993D01*
X469362Y568850D01*
X469345Y568706D01*
X469324Y568563D01*
X469299Y568421D01*
X469271Y568280D01*
X469239Y568139D01*
X469203Y567999D01*
X469164Y567860D01*
X469121Y567722D01*
X469074Y567586D01*
X469024Y567450D01*
X468970Y567316D01*
X468913Y567184D01*
X468852Y567053D01*
X468788Y566924D01*
X468720Y566796D01*
X468650Y566670D01*
X468575Y566546D01*
X468498Y566425D01*
X468417Y566305D01*
X468334Y566187D01*
X468247Y566072D01*
X468157Y565959D01*
X468064Y565848D01*
X467969Y565740D01*
X467870Y565634D01*
X467769Y565531D01*
X460304Y565856D02*
X460205Y565858D01*
X460105Y565864D01*
X460006Y565873D01*
X459908Y565886D01*
X459810Y565903D01*
X459712Y565924D01*
X459616Y565949D01*
X459521Y565977D01*
X459427Y566009D01*
X459334Y566044D01*
X459242Y566083D01*
X459152Y566126D01*
X459064Y566171D01*
X458977Y566221D01*
X458893Y566273D01*
X458810Y566329D01*
X458730Y566387D01*
X458652Y566449D01*
X458577Y566514D01*
X458504Y566582D01*
X458434Y566652D01*
X458366Y566725D01*
X458301Y566800D01*
X458239Y566878D01*
X458181Y566958D01*
X458125Y567041D01*
X458073Y567125D01*
X458023Y567212D01*
X457978Y567300D01*
X457935Y567390D01*
X457896Y567482D01*
X457861Y567575D01*
X457829Y567669D01*
X457801Y567764D01*
X457776Y567860D01*
X457755Y567958D01*
X457738Y568056D01*
X457725Y568154D01*
X457716Y568253D01*
X457710Y568353D01*
X457708Y568452D01*
X457710Y568588D01*
X457716Y568724D01*
X457725Y568860D01*
X457738Y568996D01*
X457756Y569131D01*
X457776Y569265D01*
X457801Y569399D01*
X457829Y569533D01*
X457862Y569665D01*
X457897Y569796D01*
X457937Y569927D01*
X457980Y570056D01*
X458026Y570184D01*
X458077Y570310D01*
X458130Y570436D01*
X458188Y570559D01*
X458248Y570681D01*
X458312Y570801D01*
X458380Y570920D01*
X458450Y571036D01*
X458524Y571150D01*
X458601Y571263D01*
X458682Y571373D01*
X462576Y567154D02*
X462523Y567068D01*
X462466Y566984D01*
X462407Y566902D01*
X462344Y566822D01*
X462278Y566745D01*
X462210Y566670D01*
X462138Y566598D01*
X462064Y566529D01*
X461987Y566463D01*
X461908Y566400D01*
X461826Y566340D01*
X461742Y566283D01*
X461656Y566229D01*
X461568Y566179D01*
X461478Y566132D01*
X461387Y566088D01*
X461293Y566049D01*
X461199Y566012D01*
X461103Y565980D01*
X461005Y565951D01*
X460907Y565926D01*
X460808Y565905D01*
X460708Y565887D01*
X460608Y565874D01*
X460507Y565864D01*
X460405Y565858D01*
X460304Y565856D01*
X464524Y570724D02*
X464577Y570810D01*
X464634Y570894D01*
X464693Y570976D01*
X464756Y571056D01*
X464822Y571133D01*
X464890Y571208D01*
X464962Y571280D01*
X465036Y571349D01*
X465113Y571415D01*
X465192Y571478D01*
X465274Y571538D01*
X465358Y571595D01*
X465444Y571649D01*
X465532Y571699D01*
X465622Y571746D01*
X465713Y571790D01*
X465807Y571829D01*
X465901Y571866D01*
X465997Y571898D01*
X466095Y571927D01*
X466193Y571952D01*
X466292Y571973D01*
X466392Y571991D01*
X466492Y572004D01*
X466593Y572014D01*
X466695Y572020D01*
X466796Y572022D01*
X464524Y570724D02*
X462576Y567154D01*
X457708Y577130D02*
X469392Y577130D01*
X457708Y577130D02*
X457708Y580376D01*
X457710Y580489D01*
X457716Y580602D01*
X457726Y580715D01*
X457740Y580828D01*
X457757Y580940D01*
X457779Y581051D01*
X457804Y581161D01*
X457834Y581271D01*
X457867Y581379D01*
X457904Y581486D01*
X457944Y581592D01*
X457989Y581696D01*
X458037Y581799D01*
X458088Y581900D01*
X458143Y581999D01*
X458201Y582096D01*
X458263Y582191D01*
X458328Y582284D01*
X458396Y582374D01*
X458467Y582462D01*
X458542Y582548D01*
X458619Y582631D01*
X458699Y582711D01*
X458782Y582788D01*
X458868Y582863D01*
X458956Y582934D01*
X459046Y583002D01*
X459139Y583067D01*
X459234Y583129D01*
X459331Y583187D01*
X459430Y583242D01*
X459531Y583293D01*
X459634Y583341D01*
X459738Y583386D01*
X459844Y583426D01*
X459951Y583463D01*
X460059Y583496D01*
X460169Y583526D01*
X460279Y583551D01*
X460390Y583573D01*
X460502Y583590D01*
X460615Y583604D01*
X460728Y583614D01*
X460841Y583620D01*
X460954Y583622D01*
X461067Y583620D01*
X461180Y583614D01*
X461293Y583604D01*
X461406Y583590D01*
X461518Y583573D01*
X461629Y583551D01*
X461739Y583526D01*
X461849Y583496D01*
X461957Y583463D01*
X462064Y583426D01*
X462170Y583386D01*
X462274Y583341D01*
X462377Y583293D01*
X462478Y583242D01*
X462577Y583187D01*
X462674Y583129D01*
X462769Y583067D01*
X462862Y583002D01*
X462952Y582934D01*
X463040Y582863D01*
X463126Y582788D01*
X463209Y582711D01*
X463289Y582631D01*
X463366Y582548D01*
X463441Y582462D01*
X463512Y582374D01*
X463580Y582284D01*
X463645Y582191D01*
X463707Y582096D01*
X463765Y581999D01*
X463820Y581900D01*
X463871Y581799D01*
X463919Y581696D01*
X463964Y581592D01*
X464004Y581486D01*
X464041Y581379D01*
X464074Y581271D01*
X464104Y581161D01*
X464129Y581051D01*
X464151Y580940D01*
X464168Y580828D01*
X464182Y580715D01*
X464192Y580602D01*
X464198Y580489D01*
X464200Y580376D01*
X464199Y580376D02*
X464199Y577130D01*
X469392Y588970D02*
X457708Y588970D01*
X469392Y587671D02*
X469392Y590268D01*
X457708Y590268D02*
X457708Y587671D01*
X469392Y604478D02*
X469390Y604577D01*
X469384Y604677D01*
X469375Y604776D01*
X469362Y604874D01*
X469345Y604972D01*
X469324Y605070D01*
X469299Y605166D01*
X469271Y605261D01*
X469239Y605355D01*
X469204Y605448D01*
X469165Y605540D01*
X469122Y605630D01*
X469077Y605718D01*
X469027Y605805D01*
X468975Y605889D01*
X468919Y605972D01*
X468861Y606052D01*
X468799Y606130D01*
X468734Y606205D01*
X468666Y606278D01*
X468596Y606348D01*
X468523Y606416D01*
X468448Y606481D01*
X468370Y606543D01*
X468290Y606601D01*
X468207Y606657D01*
X468123Y606709D01*
X468036Y606759D01*
X467948Y606804D01*
X467858Y606847D01*
X467766Y606886D01*
X467673Y606921D01*
X467579Y606953D01*
X467484Y606981D01*
X467388Y607006D01*
X467290Y607027D01*
X467192Y607044D01*
X467094Y607057D01*
X466995Y607066D01*
X466895Y607072D01*
X466796Y607074D01*
X469392Y604478D02*
X469390Y604334D01*
X469384Y604189D01*
X469375Y604045D01*
X469362Y603902D01*
X469345Y603758D01*
X469324Y603615D01*
X469299Y603473D01*
X469271Y603332D01*
X469239Y603191D01*
X469203Y603051D01*
X469164Y602912D01*
X469121Y602774D01*
X469074Y602638D01*
X469024Y602502D01*
X468970Y602368D01*
X468913Y602236D01*
X468852Y602105D01*
X468788Y601976D01*
X468720Y601848D01*
X468650Y601722D01*
X468575Y601598D01*
X468498Y601477D01*
X468417Y601357D01*
X468334Y601239D01*
X468247Y601124D01*
X468157Y601011D01*
X468064Y600900D01*
X467969Y600792D01*
X467870Y600686D01*
X467769Y600583D01*
X460304Y600908D02*
X460205Y600910D01*
X460105Y600916D01*
X460006Y600925D01*
X459908Y600938D01*
X459810Y600955D01*
X459712Y600976D01*
X459616Y601001D01*
X459521Y601029D01*
X459427Y601061D01*
X459334Y601096D01*
X459242Y601135D01*
X459152Y601178D01*
X459064Y601223D01*
X458977Y601273D01*
X458893Y601325D01*
X458810Y601381D01*
X458730Y601439D01*
X458652Y601501D01*
X458577Y601566D01*
X458504Y601634D01*
X458434Y601704D01*
X458366Y601777D01*
X458301Y601852D01*
X458239Y601930D01*
X458181Y602010D01*
X458125Y602093D01*
X458073Y602177D01*
X458023Y602264D01*
X457978Y602352D01*
X457935Y602442D01*
X457896Y602534D01*
X457861Y602627D01*
X457829Y602721D01*
X457801Y602816D01*
X457776Y602912D01*
X457755Y603010D01*
X457738Y603108D01*
X457725Y603206D01*
X457716Y603305D01*
X457710Y603405D01*
X457708Y603504D01*
X457710Y603640D01*
X457716Y603776D01*
X457725Y603912D01*
X457738Y604048D01*
X457756Y604183D01*
X457776Y604317D01*
X457801Y604451D01*
X457829Y604585D01*
X457862Y604717D01*
X457897Y604848D01*
X457937Y604979D01*
X457980Y605108D01*
X458026Y605236D01*
X458077Y605362D01*
X458130Y605488D01*
X458188Y605611D01*
X458248Y605733D01*
X458312Y605853D01*
X458380Y605972D01*
X458450Y606088D01*
X458524Y606202D01*
X458601Y606315D01*
X458682Y606425D01*
X462576Y602206D02*
X462523Y602120D01*
X462466Y602036D01*
X462407Y601954D01*
X462344Y601874D01*
X462278Y601797D01*
X462210Y601722D01*
X462138Y601650D01*
X462064Y601581D01*
X461987Y601515D01*
X461908Y601452D01*
X461826Y601392D01*
X461742Y601335D01*
X461656Y601281D01*
X461568Y601231D01*
X461478Y601184D01*
X461387Y601140D01*
X461293Y601101D01*
X461199Y601064D01*
X461103Y601032D01*
X461005Y601003D01*
X460907Y600978D01*
X460808Y600957D01*
X460708Y600939D01*
X460608Y600926D01*
X460507Y600916D01*
X460405Y600910D01*
X460304Y600908D01*
X464524Y605776D02*
X464577Y605862D01*
X464634Y605946D01*
X464693Y606028D01*
X464756Y606108D01*
X464822Y606185D01*
X464890Y606260D01*
X464962Y606332D01*
X465036Y606401D01*
X465113Y606467D01*
X465192Y606530D01*
X465274Y606590D01*
X465358Y606647D01*
X465444Y606701D01*
X465532Y606751D01*
X465622Y606798D01*
X465713Y606842D01*
X465807Y606881D01*
X465901Y606918D01*
X465997Y606950D01*
X466095Y606979D01*
X466193Y607004D01*
X466292Y607025D01*
X466392Y607043D01*
X466492Y607056D01*
X466593Y607066D01*
X466695Y607072D01*
X466796Y607074D01*
X464524Y605776D02*
X462576Y602206D01*
X469392Y613480D02*
X469392Y616076D01*
X469392Y613480D02*
X469390Y613393D01*
X469384Y613305D01*
X469374Y613219D01*
X469361Y613132D01*
X469343Y613047D01*
X469322Y612962D01*
X469297Y612878D01*
X469268Y612796D01*
X469235Y612715D01*
X469199Y612635D01*
X469160Y612557D01*
X469116Y612481D01*
X469070Y612407D01*
X469020Y612336D01*
X468967Y612266D01*
X468911Y612199D01*
X468852Y612135D01*
X468790Y612073D01*
X468726Y612014D01*
X468659Y611958D01*
X468589Y611905D01*
X468518Y611855D01*
X468444Y611809D01*
X468368Y611765D01*
X468290Y611726D01*
X468210Y611690D01*
X468129Y611657D01*
X468047Y611628D01*
X467963Y611603D01*
X467878Y611582D01*
X467793Y611564D01*
X467706Y611551D01*
X467620Y611541D01*
X467532Y611535D01*
X467445Y611533D01*
X467445Y611532D02*
X463550Y611532D01*
X463550Y611533D02*
X463463Y611535D01*
X463375Y611541D01*
X463289Y611551D01*
X463202Y611564D01*
X463117Y611582D01*
X463032Y611603D01*
X462948Y611628D01*
X462866Y611657D01*
X462785Y611690D01*
X462705Y611726D01*
X462627Y611765D01*
X462551Y611809D01*
X462477Y611855D01*
X462406Y611905D01*
X462336Y611958D01*
X462269Y612014D01*
X462205Y612073D01*
X462143Y612135D01*
X462084Y612199D01*
X462028Y612266D01*
X461975Y612336D01*
X461925Y612407D01*
X461879Y612481D01*
X461835Y612557D01*
X461796Y612635D01*
X461760Y612715D01*
X461727Y612796D01*
X461698Y612878D01*
X461673Y612962D01*
X461652Y613047D01*
X461634Y613132D01*
X461621Y613219D01*
X461611Y613305D01*
X461605Y613393D01*
X461603Y613480D01*
X461603Y616076D01*
X461603Y620729D02*
X469392Y620729D01*
X461603Y620729D02*
X461603Y624624D01*
X462901Y624624D01*
X469392Y630230D02*
X469392Y633476D01*
X469392Y630230D02*
X469390Y630143D01*
X469384Y630055D01*
X469374Y629969D01*
X469361Y629882D01*
X469343Y629797D01*
X469322Y629712D01*
X469297Y629628D01*
X469268Y629546D01*
X469235Y629465D01*
X469199Y629385D01*
X469160Y629307D01*
X469116Y629231D01*
X469070Y629157D01*
X469020Y629086D01*
X468967Y629016D01*
X468911Y628949D01*
X468852Y628885D01*
X468790Y628823D01*
X468726Y628764D01*
X468659Y628708D01*
X468589Y628655D01*
X468518Y628605D01*
X468444Y628559D01*
X468368Y628515D01*
X468290Y628476D01*
X468210Y628440D01*
X468129Y628407D01*
X468047Y628378D01*
X467963Y628353D01*
X467878Y628332D01*
X467793Y628314D01*
X467706Y628301D01*
X467620Y628291D01*
X467532Y628285D01*
X467445Y628283D01*
X464199Y628283D01*
X464199Y628284D02*
X464098Y628286D01*
X463998Y628292D01*
X463898Y628302D01*
X463798Y628315D01*
X463699Y628333D01*
X463600Y628354D01*
X463503Y628379D01*
X463406Y628408D01*
X463311Y628441D01*
X463217Y628477D01*
X463125Y628517D01*
X463034Y628560D01*
X462945Y628607D01*
X462858Y628657D01*
X462772Y628711D01*
X462689Y628768D01*
X462609Y628828D01*
X462530Y628891D01*
X462454Y628958D01*
X462381Y629027D01*
X462311Y629099D01*
X462243Y629173D01*
X462178Y629250D01*
X462117Y629330D01*
X462058Y629412D01*
X462003Y629496D01*
X461951Y629582D01*
X461902Y629670D01*
X461857Y629760D01*
X461815Y629852D01*
X461777Y629945D01*
X461743Y630040D01*
X461712Y630135D01*
X461685Y630232D01*
X461662Y630330D01*
X461642Y630429D01*
X461627Y630529D01*
X461615Y630629D01*
X461607Y630729D01*
X461603Y630830D01*
X461603Y630930D01*
X461607Y631031D01*
X461615Y631131D01*
X461627Y631231D01*
X461642Y631331D01*
X461662Y631430D01*
X461685Y631528D01*
X461712Y631625D01*
X461743Y631720D01*
X461777Y631815D01*
X461815Y631908D01*
X461857Y632000D01*
X461902Y632090D01*
X461951Y632178D01*
X462003Y632264D01*
X462058Y632348D01*
X462117Y632430D01*
X462178Y632510D01*
X462243Y632587D01*
X462311Y632661D01*
X462381Y632733D01*
X462454Y632802D01*
X462530Y632869D01*
X462609Y632932D01*
X462689Y632992D01*
X462772Y633049D01*
X462858Y633103D01*
X462945Y633153D01*
X463034Y633200D01*
X463125Y633243D01*
X463217Y633283D01*
X463311Y633319D01*
X463406Y633352D01*
X463503Y633381D01*
X463600Y633406D01*
X463699Y633427D01*
X463798Y633445D01*
X463898Y633458D01*
X463998Y633468D01*
X464098Y633474D01*
X464199Y633476D01*
X465497Y633476D01*
X465497Y628283D01*
X469392Y640136D02*
X469392Y643382D01*
X469392Y640136D02*
X469390Y640049D01*
X469384Y639961D01*
X469374Y639875D01*
X469361Y639788D01*
X469343Y639703D01*
X469322Y639618D01*
X469297Y639534D01*
X469268Y639452D01*
X469235Y639371D01*
X469199Y639291D01*
X469160Y639213D01*
X469116Y639137D01*
X469070Y639063D01*
X469020Y638992D01*
X468967Y638922D01*
X468911Y638855D01*
X468852Y638791D01*
X468790Y638729D01*
X468726Y638670D01*
X468659Y638614D01*
X468589Y638561D01*
X468518Y638511D01*
X468444Y638465D01*
X468368Y638421D01*
X468290Y638382D01*
X468210Y638346D01*
X468129Y638313D01*
X468047Y638284D01*
X467963Y638259D01*
X467878Y638238D01*
X467793Y638220D01*
X467706Y638207D01*
X467620Y638197D01*
X467532Y638191D01*
X467445Y638189D01*
X464199Y638189D01*
X464199Y638190D02*
X464098Y638192D01*
X463998Y638198D01*
X463898Y638208D01*
X463798Y638221D01*
X463699Y638239D01*
X463600Y638260D01*
X463503Y638285D01*
X463406Y638314D01*
X463311Y638347D01*
X463217Y638383D01*
X463125Y638423D01*
X463034Y638466D01*
X462945Y638513D01*
X462858Y638563D01*
X462772Y638617D01*
X462689Y638674D01*
X462609Y638734D01*
X462530Y638797D01*
X462454Y638864D01*
X462381Y638933D01*
X462311Y639005D01*
X462243Y639079D01*
X462178Y639156D01*
X462117Y639236D01*
X462058Y639318D01*
X462003Y639402D01*
X461951Y639488D01*
X461902Y639576D01*
X461857Y639666D01*
X461815Y639758D01*
X461777Y639851D01*
X461743Y639946D01*
X461712Y640041D01*
X461685Y640138D01*
X461662Y640236D01*
X461642Y640335D01*
X461627Y640435D01*
X461615Y640535D01*
X461607Y640635D01*
X461603Y640736D01*
X461603Y640836D01*
X461607Y640937D01*
X461615Y641037D01*
X461627Y641137D01*
X461642Y641237D01*
X461662Y641336D01*
X461685Y641434D01*
X461712Y641531D01*
X461743Y641626D01*
X461777Y641721D01*
X461815Y641814D01*
X461857Y641906D01*
X461902Y641996D01*
X461951Y642084D01*
X462003Y642170D01*
X462058Y642254D01*
X462117Y642336D01*
X462178Y642416D01*
X462243Y642493D01*
X462311Y642567D01*
X462381Y642639D01*
X462454Y642708D01*
X462530Y642775D01*
X462609Y642838D01*
X462689Y642898D01*
X462772Y642955D01*
X462858Y643009D01*
X462945Y643059D01*
X463034Y643106D01*
X463125Y643149D01*
X463217Y643189D01*
X463311Y643225D01*
X463406Y643258D01*
X463503Y643287D01*
X463600Y643312D01*
X463699Y643333D01*
X463798Y643351D01*
X463898Y643364D01*
X463998Y643374D01*
X464098Y643380D01*
X464199Y643382D01*
X465497Y643382D01*
X465497Y638189D01*
X469392Y648476D02*
X461603Y648476D01*
X461603Y651722D01*
X461605Y651809D01*
X461611Y651897D01*
X461621Y651983D01*
X461634Y652070D01*
X461652Y652155D01*
X461673Y652240D01*
X461698Y652324D01*
X461727Y652406D01*
X461760Y652487D01*
X461796Y652567D01*
X461835Y652645D01*
X461879Y652721D01*
X461925Y652795D01*
X461975Y652866D01*
X462028Y652936D01*
X462084Y653003D01*
X462143Y653067D01*
X462204Y653129D01*
X462269Y653188D01*
X462336Y653244D01*
X462406Y653297D01*
X462477Y653347D01*
X462551Y653393D01*
X462627Y653437D01*
X462705Y653476D01*
X462785Y653512D01*
X462866Y653545D01*
X462948Y653574D01*
X463032Y653599D01*
X463117Y653620D01*
X463202Y653638D01*
X463289Y653651D01*
X463375Y653661D01*
X463463Y653667D01*
X463550Y653669D01*
X469392Y653669D01*
X876808Y898384D02*
X885246Y898384D01*
X885246Y898383D02*
X885359Y898385D01*
X885472Y898391D01*
X885585Y898401D01*
X885698Y898415D01*
X885810Y898432D01*
X885921Y898454D01*
X886031Y898479D01*
X886141Y898509D01*
X886249Y898542D01*
X886356Y898579D01*
X886462Y898619D01*
X886566Y898664D01*
X886669Y898712D01*
X886770Y898763D01*
X886869Y898818D01*
X886966Y898876D01*
X887061Y898938D01*
X887154Y899003D01*
X887244Y899071D01*
X887332Y899142D01*
X887418Y899217D01*
X887501Y899294D01*
X887581Y899374D01*
X887658Y899457D01*
X887733Y899543D01*
X887804Y899631D01*
X887872Y899721D01*
X887937Y899814D01*
X887999Y899909D01*
X888057Y900006D01*
X888112Y900105D01*
X888163Y900206D01*
X888211Y900309D01*
X888256Y900413D01*
X888296Y900519D01*
X888333Y900626D01*
X888366Y900734D01*
X888396Y900844D01*
X888421Y900954D01*
X888443Y901065D01*
X888460Y901177D01*
X888474Y901290D01*
X888484Y901403D01*
X888490Y901516D01*
X888492Y901629D01*
X888490Y901742D01*
X888484Y901855D01*
X888474Y901968D01*
X888460Y902081D01*
X888443Y902193D01*
X888421Y902304D01*
X888396Y902414D01*
X888366Y902524D01*
X888333Y902632D01*
X888296Y902739D01*
X888256Y902845D01*
X888211Y902949D01*
X888163Y903052D01*
X888112Y903153D01*
X888057Y903252D01*
X887999Y903349D01*
X887937Y903444D01*
X887872Y903537D01*
X887804Y903627D01*
X887733Y903715D01*
X887658Y903801D01*
X887581Y903884D01*
X887501Y903964D01*
X887418Y904041D01*
X887332Y904116D01*
X887244Y904187D01*
X887154Y904255D01*
X887061Y904320D01*
X886966Y904382D01*
X886869Y904440D01*
X886770Y904495D01*
X886669Y904546D01*
X886566Y904594D01*
X886462Y904639D01*
X886356Y904679D01*
X886249Y904716D01*
X886141Y904749D01*
X886031Y904779D01*
X885921Y904804D01*
X885810Y904826D01*
X885698Y904843D01*
X885585Y904857D01*
X885472Y904867D01*
X885359Y904873D01*
X885246Y904875D01*
X876808Y904875D01*
X876808Y912678D02*
X888492Y912678D01*
X882650Y912678D02*
X881676Y911056D01*
X881677Y911055D02*
X881630Y910982D01*
X881581Y910911D01*
X881528Y910842D01*
X881472Y910775D01*
X881413Y910711D01*
X881352Y910649D01*
X881288Y910591D01*
X881221Y910535D01*
X881152Y910483D01*
X881080Y910433D01*
X881006Y910387D01*
X880931Y910344D01*
X880853Y910305D01*
X880774Y910269D01*
X880693Y910237D01*
X880611Y910208D01*
X880528Y910183D01*
X880444Y910162D01*
X880359Y910145D01*
X880273Y910131D01*
X880187Y910122D01*
X880100Y910116D01*
X880013Y910114D01*
X879926Y910116D01*
X879839Y910122D01*
X879753Y910132D01*
X879667Y910145D01*
X879582Y910163D01*
X879498Y910184D01*
X879415Y910209D01*
X879332Y910238D01*
X879252Y910270D01*
X879173Y910306D01*
X879095Y910345D01*
X879020Y910388D01*
X878946Y910435D01*
X878875Y910484D01*
X878805Y910537D01*
X878739Y910592D01*
X878675Y910651D01*
X878613Y910712D01*
X878554Y910776D01*
X878499Y910843D01*
X878446Y910912D01*
X878396Y910984D01*
X878350Y911057D01*
X878307Y911133D01*
X878268Y911210D01*
X878232Y911289D01*
X878199Y911370D01*
X878171Y911452D01*
X878145Y911535D01*
X878124Y911619D01*
X878107Y911704D01*
X878106Y911705D02*
X878082Y911845D01*
X878062Y911987D01*
X878046Y912128D01*
X878035Y912270D01*
X878027Y912413D01*
X878023Y912555D01*
X878022Y912698D01*
X878026Y912841D01*
X878034Y912983D01*
X878046Y913125D01*
X878062Y913267D01*
X878081Y913408D01*
X878105Y913549D01*
X878132Y913689D01*
X878164Y913828D01*
X878199Y913966D01*
X878238Y914104D01*
X878281Y914240D01*
X878327Y914374D01*
X878378Y914508D01*
X878431Y914640D01*
X878489Y914770D01*
X878550Y914899D01*
X878615Y915026D01*
X878683Y915152D01*
X878755Y915275D01*
X882650Y912678D02*
X883624Y914301D01*
X883623Y914302D02*
X883670Y914375D01*
X883719Y914446D01*
X883772Y914516D01*
X883828Y914582D01*
X883887Y914646D01*
X883948Y914708D01*
X884012Y914766D01*
X884079Y914822D01*
X884148Y914874D01*
X884220Y914924D01*
X884294Y914970D01*
X884369Y915013D01*
X884447Y915052D01*
X884526Y915088D01*
X884607Y915120D01*
X884689Y915149D01*
X884772Y915174D01*
X884856Y915195D01*
X884941Y915212D01*
X885027Y915226D01*
X885114Y915235D01*
X885200Y915241D01*
X885287Y915243D01*
X885374Y915241D01*
X885461Y915235D01*
X885547Y915225D01*
X885633Y915212D01*
X885718Y915194D01*
X885802Y915173D01*
X885885Y915148D01*
X885968Y915119D01*
X886048Y915087D01*
X886127Y915051D01*
X886205Y915012D01*
X886280Y914969D01*
X886354Y914922D01*
X886425Y914873D01*
X886495Y914820D01*
X886561Y914765D01*
X886625Y914706D01*
X886687Y914645D01*
X886746Y914580D01*
X886801Y914514D01*
X886854Y914445D01*
X886904Y914373D01*
X886950Y914300D01*
X886993Y914224D01*
X887032Y914147D01*
X887068Y914068D01*
X887101Y913987D01*
X887129Y913905D01*
X887155Y913822D01*
X887176Y913738D01*
X887193Y913652D01*
X887194Y913652D02*
X887218Y913512D01*
X887238Y913370D01*
X887254Y913229D01*
X887265Y913087D01*
X887273Y912944D01*
X887277Y912802D01*
X887278Y912659D01*
X887274Y912516D01*
X887266Y912374D01*
X887254Y912232D01*
X887238Y912090D01*
X887219Y911949D01*
X887195Y911808D01*
X887168Y911668D01*
X887136Y911529D01*
X887101Y911391D01*
X887062Y911253D01*
X887019Y911117D01*
X886973Y910983D01*
X886922Y910849D01*
X886869Y910717D01*
X886811Y910587D01*
X886750Y910458D01*
X886685Y910331D01*
X886617Y910205D01*
X886545Y910082D01*
X879404Y920101D02*
X876808Y923346D01*
X888492Y923346D01*
X888492Y920101D02*
X888492Y926592D01*
X37592Y794371D02*
X25908Y794371D01*
X25908Y797617D01*
X25910Y797730D01*
X25916Y797843D01*
X25926Y797956D01*
X25940Y798069D01*
X25957Y798181D01*
X25979Y798292D01*
X26004Y798402D01*
X26034Y798512D01*
X26067Y798620D01*
X26104Y798727D01*
X26144Y798833D01*
X26189Y798937D01*
X26237Y799040D01*
X26288Y799141D01*
X26343Y799240D01*
X26401Y799337D01*
X26463Y799432D01*
X26528Y799525D01*
X26596Y799615D01*
X26667Y799703D01*
X26742Y799789D01*
X26819Y799872D01*
X26899Y799952D01*
X26982Y800029D01*
X27068Y800104D01*
X27156Y800175D01*
X27246Y800243D01*
X27339Y800308D01*
X27434Y800370D01*
X27531Y800428D01*
X27630Y800483D01*
X27731Y800534D01*
X27834Y800582D01*
X27938Y800627D01*
X28044Y800667D01*
X28151Y800704D01*
X28259Y800737D01*
X28369Y800767D01*
X28479Y800792D01*
X28590Y800814D01*
X28702Y800831D01*
X28815Y800845D01*
X28928Y800855D01*
X29041Y800861D01*
X29154Y800863D01*
X29154Y800862D02*
X34346Y800862D01*
X34346Y800863D02*
X34459Y800861D01*
X34572Y800855D01*
X34685Y800845D01*
X34798Y800831D01*
X34910Y800814D01*
X35021Y800792D01*
X35131Y800767D01*
X35241Y800737D01*
X35349Y800704D01*
X35456Y800667D01*
X35562Y800627D01*
X35666Y800582D01*
X35769Y800534D01*
X35870Y800483D01*
X35969Y800428D01*
X36066Y800370D01*
X36161Y800308D01*
X36254Y800243D01*
X36344Y800175D01*
X36432Y800104D01*
X36518Y800029D01*
X36601Y799952D01*
X36681Y799872D01*
X36758Y799789D01*
X36833Y799703D01*
X36904Y799615D01*
X36972Y799525D01*
X37037Y799432D01*
X37099Y799337D01*
X37157Y799240D01*
X37212Y799141D01*
X37263Y799040D01*
X37311Y798937D01*
X37356Y798833D01*
X37396Y798727D01*
X37433Y798620D01*
X37466Y798512D01*
X37496Y798402D01*
X37521Y798292D01*
X37543Y798181D01*
X37560Y798069D01*
X37574Y797956D01*
X37584Y797843D01*
X37590Y797730D01*
X37592Y797617D01*
X37592Y794371D01*
X37592Y807142D02*
X25908Y807142D01*
X37592Y805843D02*
X37592Y808440D01*
X25908Y808440D02*
X25908Y805843D01*
X37592Y816554D02*
X37590Y816653D01*
X37584Y816753D01*
X37575Y816852D01*
X37562Y816950D01*
X37545Y817048D01*
X37524Y817146D01*
X37499Y817242D01*
X37471Y817337D01*
X37439Y817431D01*
X37404Y817524D01*
X37365Y817616D01*
X37322Y817706D01*
X37277Y817794D01*
X37227Y817881D01*
X37175Y817965D01*
X37119Y818048D01*
X37061Y818128D01*
X36999Y818206D01*
X36934Y818281D01*
X36866Y818354D01*
X36796Y818424D01*
X36723Y818492D01*
X36648Y818557D01*
X36570Y818619D01*
X36490Y818677D01*
X36407Y818733D01*
X36323Y818785D01*
X36236Y818835D01*
X36148Y818880D01*
X36058Y818923D01*
X35966Y818962D01*
X35873Y818997D01*
X35779Y819029D01*
X35684Y819057D01*
X35588Y819082D01*
X35490Y819103D01*
X35392Y819120D01*
X35294Y819133D01*
X35195Y819142D01*
X35095Y819148D01*
X34996Y819150D01*
X37592Y816554D02*
X37590Y816410D01*
X37584Y816265D01*
X37575Y816121D01*
X37562Y815978D01*
X37545Y815834D01*
X37524Y815691D01*
X37499Y815549D01*
X37471Y815408D01*
X37439Y815267D01*
X37403Y815127D01*
X37364Y814988D01*
X37321Y814850D01*
X37274Y814714D01*
X37224Y814578D01*
X37170Y814444D01*
X37113Y814312D01*
X37052Y814181D01*
X36988Y814052D01*
X36920Y813924D01*
X36850Y813798D01*
X36775Y813674D01*
X36698Y813553D01*
X36617Y813433D01*
X36534Y813315D01*
X36447Y813200D01*
X36357Y813087D01*
X36264Y812976D01*
X36169Y812868D01*
X36070Y812762D01*
X35969Y812659D01*
X28504Y812984D02*
X28405Y812986D01*
X28305Y812992D01*
X28206Y813001D01*
X28108Y813014D01*
X28010Y813031D01*
X27912Y813052D01*
X27816Y813077D01*
X27721Y813105D01*
X27627Y813137D01*
X27534Y813172D01*
X27442Y813211D01*
X27352Y813254D01*
X27264Y813299D01*
X27177Y813349D01*
X27093Y813401D01*
X27010Y813457D01*
X26930Y813515D01*
X26852Y813577D01*
X26777Y813642D01*
X26704Y813710D01*
X26634Y813780D01*
X26566Y813853D01*
X26501Y813928D01*
X26439Y814006D01*
X26381Y814086D01*
X26325Y814169D01*
X26273Y814253D01*
X26223Y814340D01*
X26178Y814428D01*
X26135Y814518D01*
X26096Y814610D01*
X26061Y814703D01*
X26029Y814797D01*
X26001Y814892D01*
X25976Y814988D01*
X25955Y815086D01*
X25938Y815184D01*
X25925Y815282D01*
X25916Y815381D01*
X25910Y815481D01*
X25908Y815580D01*
X25910Y815716D01*
X25916Y815852D01*
X25925Y815988D01*
X25938Y816124D01*
X25956Y816259D01*
X25976Y816393D01*
X26001Y816527D01*
X26029Y816661D01*
X26062Y816793D01*
X26097Y816924D01*
X26137Y817055D01*
X26180Y817184D01*
X26226Y817312D01*
X26277Y817438D01*
X26330Y817564D01*
X26388Y817687D01*
X26448Y817809D01*
X26512Y817929D01*
X26580Y818048D01*
X26650Y818164D01*
X26724Y818278D01*
X26801Y818391D01*
X26882Y818501D01*
X30776Y814282D02*
X30723Y814196D01*
X30666Y814112D01*
X30607Y814030D01*
X30544Y813950D01*
X30478Y813873D01*
X30410Y813798D01*
X30338Y813726D01*
X30264Y813657D01*
X30187Y813591D01*
X30108Y813528D01*
X30026Y813468D01*
X29942Y813411D01*
X29856Y813357D01*
X29768Y813307D01*
X29678Y813260D01*
X29587Y813216D01*
X29493Y813177D01*
X29399Y813140D01*
X29303Y813108D01*
X29205Y813079D01*
X29107Y813054D01*
X29008Y813033D01*
X28908Y813015D01*
X28808Y813002D01*
X28707Y812992D01*
X28605Y812986D01*
X28504Y812984D01*
X32724Y817852D02*
X32777Y817938D01*
X32834Y818022D01*
X32893Y818104D01*
X32956Y818184D01*
X33022Y818261D01*
X33090Y818336D01*
X33162Y818408D01*
X33236Y818477D01*
X33313Y818543D01*
X33392Y818606D01*
X33474Y818666D01*
X33558Y818723D01*
X33644Y818777D01*
X33732Y818827D01*
X33822Y818874D01*
X33913Y818918D01*
X34007Y818957D01*
X34101Y818994D01*
X34197Y819026D01*
X34295Y819055D01*
X34393Y819080D01*
X34492Y819101D01*
X34592Y819119D01*
X34692Y819132D01*
X34793Y819142D01*
X34895Y819148D01*
X34996Y819150D01*
X32724Y817852D02*
X30776Y814282D01*
X25908Y824258D02*
X37592Y824258D01*
X25908Y824258D02*
X25908Y827504D01*
X25910Y827617D01*
X25916Y827730D01*
X25926Y827843D01*
X25940Y827956D01*
X25957Y828068D01*
X25979Y828179D01*
X26004Y828289D01*
X26034Y828399D01*
X26067Y828507D01*
X26104Y828614D01*
X26144Y828720D01*
X26189Y828824D01*
X26237Y828927D01*
X26288Y829028D01*
X26343Y829127D01*
X26401Y829224D01*
X26463Y829319D01*
X26528Y829412D01*
X26596Y829502D01*
X26667Y829590D01*
X26742Y829676D01*
X26819Y829759D01*
X26899Y829839D01*
X26982Y829916D01*
X27068Y829991D01*
X27156Y830062D01*
X27246Y830130D01*
X27339Y830195D01*
X27434Y830257D01*
X27531Y830315D01*
X27630Y830370D01*
X27731Y830421D01*
X27834Y830469D01*
X27938Y830514D01*
X28044Y830554D01*
X28151Y830591D01*
X28259Y830624D01*
X28369Y830654D01*
X28479Y830679D01*
X28590Y830701D01*
X28702Y830718D01*
X28815Y830732D01*
X28928Y830742D01*
X29041Y830748D01*
X29154Y830750D01*
X29267Y830748D01*
X29380Y830742D01*
X29493Y830732D01*
X29606Y830718D01*
X29718Y830701D01*
X29829Y830679D01*
X29939Y830654D01*
X30049Y830624D01*
X30157Y830591D01*
X30264Y830554D01*
X30370Y830514D01*
X30474Y830469D01*
X30577Y830421D01*
X30678Y830370D01*
X30777Y830315D01*
X30874Y830257D01*
X30969Y830195D01*
X31062Y830130D01*
X31152Y830062D01*
X31240Y829991D01*
X31326Y829916D01*
X31409Y829839D01*
X31489Y829759D01*
X31566Y829676D01*
X31641Y829590D01*
X31712Y829502D01*
X31780Y829412D01*
X31845Y829319D01*
X31907Y829224D01*
X31965Y829127D01*
X32020Y829028D01*
X32071Y828927D01*
X32119Y828824D01*
X32164Y828720D01*
X32204Y828614D01*
X32241Y828507D01*
X32274Y828399D01*
X32304Y828289D01*
X32329Y828179D01*
X32351Y828068D01*
X32368Y827956D01*
X32382Y827843D01*
X32392Y827730D01*
X32398Y827617D01*
X32400Y827504D01*
X32399Y827504D02*
X32399Y824258D01*
X37592Y835542D02*
X25908Y835542D01*
X37592Y835542D02*
X37592Y840734D01*
X37592Y844395D02*
X25908Y848290D01*
X37592Y852184D01*
X34671Y851211D02*
X34671Y845369D01*
X25908Y855825D02*
X31425Y859720D01*
X25908Y863614D01*
X31425Y859720D02*
X37592Y859720D01*
X37592Y871418D02*
X37590Y871517D01*
X37584Y871617D01*
X37575Y871716D01*
X37562Y871814D01*
X37545Y871912D01*
X37524Y872010D01*
X37499Y872106D01*
X37471Y872201D01*
X37439Y872295D01*
X37404Y872388D01*
X37365Y872480D01*
X37322Y872570D01*
X37277Y872658D01*
X37227Y872745D01*
X37175Y872829D01*
X37119Y872912D01*
X37061Y872992D01*
X36999Y873070D01*
X36934Y873145D01*
X36866Y873218D01*
X36796Y873288D01*
X36723Y873356D01*
X36648Y873421D01*
X36570Y873483D01*
X36490Y873541D01*
X36407Y873597D01*
X36323Y873649D01*
X36236Y873699D01*
X36148Y873744D01*
X36058Y873787D01*
X35966Y873826D01*
X35873Y873861D01*
X35779Y873893D01*
X35684Y873921D01*
X35588Y873946D01*
X35490Y873967D01*
X35392Y873984D01*
X35294Y873997D01*
X35195Y874006D01*
X35095Y874012D01*
X34996Y874014D01*
X37592Y871418D02*
X37590Y871274D01*
X37584Y871129D01*
X37575Y870985D01*
X37562Y870842D01*
X37545Y870698D01*
X37524Y870555D01*
X37499Y870413D01*
X37471Y870272D01*
X37439Y870131D01*
X37403Y869991D01*
X37364Y869852D01*
X37321Y869714D01*
X37274Y869578D01*
X37224Y869442D01*
X37170Y869308D01*
X37113Y869176D01*
X37052Y869045D01*
X36988Y868916D01*
X36920Y868788D01*
X36850Y868662D01*
X36775Y868538D01*
X36698Y868417D01*
X36617Y868297D01*
X36534Y868179D01*
X36447Y868064D01*
X36357Y867951D01*
X36264Y867840D01*
X36169Y867732D01*
X36070Y867626D01*
X35969Y867523D01*
X28504Y867848D02*
X28405Y867850D01*
X28305Y867856D01*
X28206Y867865D01*
X28108Y867878D01*
X28010Y867895D01*
X27912Y867916D01*
X27816Y867941D01*
X27721Y867969D01*
X27627Y868001D01*
X27534Y868036D01*
X27442Y868075D01*
X27352Y868118D01*
X27264Y868163D01*
X27177Y868213D01*
X27093Y868265D01*
X27010Y868321D01*
X26930Y868379D01*
X26852Y868441D01*
X26777Y868506D01*
X26704Y868574D01*
X26634Y868644D01*
X26566Y868717D01*
X26501Y868792D01*
X26439Y868870D01*
X26381Y868950D01*
X26325Y869033D01*
X26273Y869117D01*
X26223Y869204D01*
X26178Y869292D01*
X26135Y869382D01*
X26096Y869474D01*
X26061Y869567D01*
X26029Y869661D01*
X26001Y869756D01*
X25976Y869852D01*
X25955Y869950D01*
X25938Y870048D01*
X25925Y870146D01*
X25916Y870245D01*
X25910Y870345D01*
X25908Y870444D01*
X25910Y870580D01*
X25916Y870716D01*
X25925Y870852D01*
X25938Y870988D01*
X25956Y871123D01*
X25976Y871257D01*
X26001Y871391D01*
X26029Y871525D01*
X26062Y871657D01*
X26097Y871788D01*
X26137Y871919D01*
X26180Y872048D01*
X26226Y872176D01*
X26277Y872302D01*
X26330Y872428D01*
X26388Y872551D01*
X26448Y872673D01*
X26512Y872793D01*
X26580Y872912D01*
X26650Y873028D01*
X26724Y873142D01*
X26801Y873255D01*
X26882Y873365D01*
X30776Y869145D02*
X30723Y869059D01*
X30666Y868975D01*
X30607Y868893D01*
X30544Y868813D01*
X30478Y868736D01*
X30410Y868661D01*
X30338Y868589D01*
X30264Y868520D01*
X30187Y868454D01*
X30108Y868391D01*
X30026Y868331D01*
X29942Y868274D01*
X29856Y868220D01*
X29768Y868170D01*
X29678Y868123D01*
X29587Y868079D01*
X29493Y868040D01*
X29399Y868003D01*
X29303Y867971D01*
X29205Y867942D01*
X29107Y867917D01*
X29008Y867896D01*
X28908Y867878D01*
X28808Y867865D01*
X28707Y867855D01*
X28605Y867849D01*
X28504Y867847D01*
X32724Y872716D02*
X32777Y872802D01*
X32834Y872886D01*
X32893Y872968D01*
X32956Y873048D01*
X33022Y873125D01*
X33090Y873200D01*
X33162Y873272D01*
X33236Y873341D01*
X33313Y873407D01*
X33392Y873470D01*
X33474Y873530D01*
X33558Y873587D01*
X33644Y873641D01*
X33732Y873691D01*
X33822Y873738D01*
X33913Y873782D01*
X34007Y873821D01*
X34101Y873858D01*
X34197Y873890D01*
X34295Y873919D01*
X34393Y873944D01*
X34492Y873965D01*
X34592Y873983D01*
X34692Y873996D01*
X34793Y874006D01*
X34895Y874012D01*
X34996Y874014D01*
X32724Y872716D02*
X30776Y869146D01*
X37592Y881135D02*
X37592Y883732D01*
X37592Y881135D02*
X37590Y881036D01*
X37584Y880936D01*
X37575Y880837D01*
X37562Y880739D01*
X37545Y880641D01*
X37524Y880543D01*
X37499Y880447D01*
X37471Y880352D01*
X37439Y880258D01*
X37404Y880165D01*
X37365Y880073D01*
X37322Y879983D01*
X37277Y879895D01*
X37227Y879808D01*
X37175Y879724D01*
X37119Y879641D01*
X37061Y879561D01*
X36999Y879483D01*
X36934Y879408D01*
X36866Y879335D01*
X36796Y879265D01*
X36723Y879197D01*
X36648Y879132D01*
X36570Y879070D01*
X36490Y879012D01*
X36407Y878956D01*
X36323Y878904D01*
X36236Y878854D01*
X36148Y878809D01*
X36058Y878766D01*
X35966Y878727D01*
X35873Y878692D01*
X35779Y878660D01*
X35684Y878632D01*
X35588Y878607D01*
X35490Y878586D01*
X35392Y878569D01*
X35294Y878556D01*
X35195Y878547D01*
X35095Y878541D01*
X34996Y878539D01*
X28504Y878539D01*
X28504Y878538D02*
X28405Y878540D01*
X28305Y878546D01*
X28206Y878555D01*
X28108Y878568D01*
X28010Y878586D01*
X27912Y878606D01*
X27816Y878631D01*
X27720Y878659D01*
X27626Y878691D01*
X27533Y878726D01*
X27442Y878765D01*
X27352Y878808D01*
X27263Y878853D01*
X27177Y878903D01*
X27092Y878955D01*
X27010Y879011D01*
X26930Y879070D01*
X26852Y879131D01*
X26776Y879196D01*
X26703Y879264D01*
X26633Y879334D01*
X26565Y879407D01*
X26500Y879483D01*
X26439Y879561D01*
X26380Y879641D01*
X26324Y879723D01*
X26272Y879808D01*
X26223Y879894D01*
X26177Y879983D01*
X26134Y880073D01*
X26095Y880164D01*
X26060Y880257D01*
X26028Y880351D01*
X26000Y880447D01*
X25975Y880543D01*
X25955Y880641D01*
X25937Y880739D01*
X25924Y880837D01*
X25915Y880936D01*
X25909Y881035D01*
X25907Y881135D01*
X25908Y881135D02*
X25908Y883732D01*
X25908Y888552D02*
X37592Y888552D01*
X25908Y888552D02*
X25908Y891797D01*
X25910Y891910D01*
X25916Y892023D01*
X25926Y892136D01*
X25940Y892249D01*
X25957Y892361D01*
X25979Y892472D01*
X26004Y892582D01*
X26034Y892692D01*
X26067Y892800D01*
X26104Y892907D01*
X26144Y893013D01*
X26189Y893117D01*
X26237Y893220D01*
X26288Y893321D01*
X26343Y893420D01*
X26401Y893517D01*
X26463Y893612D01*
X26528Y893705D01*
X26596Y893795D01*
X26667Y893883D01*
X26742Y893969D01*
X26819Y894052D01*
X26899Y894132D01*
X26982Y894209D01*
X27068Y894284D01*
X27156Y894355D01*
X27246Y894423D01*
X27339Y894488D01*
X27434Y894550D01*
X27531Y894608D01*
X27630Y894663D01*
X27731Y894714D01*
X27834Y894762D01*
X27938Y894807D01*
X28044Y894847D01*
X28151Y894884D01*
X28259Y894917D01*
X28369Y894947D01*
X28479Y894972D01*
X28590Y894994D01*
X28702Y895011D01*
X28815Y895025D01*
X28928Y895035D01*
X29041Y895041D01*
X29154Y895043D01*
X29267Y895041D01*
X29380Y895035D01*
X29493Y895025D01*
X29606Y895011D01*
X29718Y894994D01*
X29829Y894972D01*
X29939Y894947D01*
X30049Y894917D01*
X30157Y894884D01*
X30264Y894847D01*
X30370Y894807D01*
X30474Y894762D01*
X30577Y894714D01*
X30678Y894663D01*
X30777Y894608D01*
X30874Y894550D01*
X30969Y894488D01*
X31062Y894423D01*
X31152Y894355D01*
X31240Y894284D01*
X31326Y894209D01*
X31409Y894132D01*
X31489Y894052D01*
X31566Y893969D01*
X31641Y893883D01*
X31712Y893795D01*
X31780Y893705D01*
X31845Y893612D01*
X31907Y893517D01*
X31965Y893420D01*
X32020Y893321D01*
X32071Y893220D01*
X32119Y893117D01*
X32164Y893013D01*
X32204Y892907D01*
X32241Y892800D01*
X32274Y892692D01*
X32304Y892582D01*
X32329Y892472D01*
X32351Y892361D01*
X32368Y892249D01*
X32382Y892136D01*
X32392Y892023D01*
X32398Y891910D01*
X32400Y891797D01*
X32399Y891797D02*
X32399Y888552D01*
X32399Y892446D02*
X37592Y895043D01*
X37592Y900312D02*
X37592Y905504D01*
X37592Y900312D02*
X25908Y900312D01*
X25908Y905504D01*
X31101Y904206D02*
X31101Y900312D01*
X37592Y910218D02*
X37592Y915410D01*
X37592Y910218D02*
X25908Y910218D01*
X25908Y915410D01*
X31101Y914112D02*
X31101Y910218D01*
X25908Y920101D02*
X37592Y920101D01*
X37592Y926592D02*
X25908Y920101D01*
X25908Y926592D02*
X37592Y926592D01*
D11*
X38100Y93980D02*
X38100Y83820D01*
D10*
X19791Y115062D02*
X19791Y126238D01*
X22896Y126238D01*
X23007Y126236D01*
X23117Y126230D01*
X23228Y126220D01*
X23338Y126206D01*
X23447Y126189D01*
X23556Y126167D01*
X23664Y126142D01*
X23770Y126112D01*
X23876Y126079D01*
X23981Y126042D01*
X24084Y126002D01*
X24185Y125957D01*
X24285Y125910D01*
X24384Y125858D01*
X24480Y125803D01*
X24574Y125745D01*
X24666Y125684D01*
X24756Y125619D01*
X24844Y125551D01*
X24929Y125480D01*
X25011Y125406D01*
X25091Y125329D01*
X25168Y125249D01*
X25242Y125167D01*
X25313Y125082D01*
X25381Y124994D01*
X25446Y124904D01*
X25507Y124812D01*
X25565Y124718D01*
X25620Y124622D01*
X25672Y124523D01*
X25719Y124423D01*
X25764Y124322D01*
X25804Y124219D01*
X25841Y124114D01*
X25874Y124008D01*
X25904Y123902D01*
X25929Y123794D01*
X25951Y123685D01*
X25968Y123576D01*
X25982Y123466D01*
X25992Y123355D01*
X25998Y123245D01*
X26000Y123134D01*
X25998Y123023D01*
X25992Y122913D01*
X25982Y122802D01*
X25968Y122692D01*
X25951Y122583D01*
X25929Y122474D01*
X25904Y122366D01*
X25874Y122260D01*
X25841Y122154D01*
X25804Y122049D01*
X25764Y121946D01*
X25719Y121845D01*
X25672Y121745D01*
X25620Y121646D01*
X25565Y121550D01*
X25507Y121456D01*
X25446Y121364D01*
X25381Y121274D01*
X25313Y121186D01*
X25242Y121101D01*
X25168Y121019D01*
X25091Y120939D01*
X25011Y120862D01*
X24929Y120788D01*
X24844Y120717D01*
X24756Y120649D01*
X24666Y120584D01*
X24574Y120523D01*
X24480Y120465D01*
X24384Y120410D01*
X24285Y120358D01*
X24185Y120311D01*
X24084Y120266D01*
X23981Y120226D01*
X23876Y120189D01*
X23770Y120156D01*
X23664Y120126D01*
X23556Y120101D01*
X23447Y120079D01*
X23338Y120062D01*
X23228Y120048D01*
X23117Y120038D01*
X23007Y120032D01*
X22896Y120030D01*
X22896Y120029D02*
X19791Y120029D01*
X23516Y120029D02*
X26000Y115062D01*
X31129Y123754D02*
X34234Y126238D01*
X34234Y115062D01*
X37338Y115062D02*
X31129Y115062D01*
M02*
